SplineFontDB: 1.0
FontName: URWBookmanL-DemiBoldItal
FullName: URW Bookman L Demi Bold Italic
FamilyName: URW Bookman L
Weight: Bold
Copyright: Copyright (URW)++,Copyright 1999 by (URW)++ Design & Development; Cyrillic glyphs added by Valek Filippov (C) 2001
Version: 1.06
ItalicAngle: -10.3
UnderlinePosition: -125
UnderlineWidth: 60
Ascent: 800
Descent: 200
NeedsXUIDChange: 1
UniqueID: 4212012
FSType: 0
OS2WinAscent: 0
OS2WinAOffset: 1
OS2WinDescent: 0
OS2WinDOffset: 1
HheadAscent: 0
HheadAOffset: 1
HheadDescent: 0
HheadDOffset: 1
ScriptLang: 2
 1 latn 1 dflt 
 1 DFLT 1 dflt 
Encoding: adobestandard
UnicodeInterp: none
DisplaySize: -36
AntiAlias: 1
FitToEm: 1
WinInfo: 330 22 14
BeginPrivate: 7
BlueValues 23 [-20 0 511 531 681 701]
BlueScale 8 0.039625
StdHW 4 [90]
StdVW 5 [164]
StemSnapH 198 [79 83 90 98 110] 
systemdict /internaldict known
{1183615869 systemdict /internaldict get exec
/StemSnapLength 2 copy known { get 5 lt } { pop pop true } ifelse }
{ true } ifelse { pop [90 98] } if
StemSnapV 2 []
ForceBold 5 false
EndPrivate
BeginChars: 766 659
StartChar: exclam
Encoding: 33 33 2
Width: 320
Flags: W
HStem: -13 180<164 183> 674 20G<262.5 307>
Fore
239 219 m 1
 157 219 l 1
 172 363 172 363 172 417 c 0
 172 439 171 461 170 486 c 0
 168 511 167 528 167 536 c 0
 167 577 174 615 185 635 c 0
 204 671 243 694 282 694 c 0
 332 694 366 660 366 611 c 0
 366 586 359 558 342 517 c 1
 290 387 l 2
 266 326 258 300 239 219 c 1
183 167 m 0
 227 167 259 133 259 86 c 0
 259 34 214 -13 164 -13 c 0
 120 -13 86 22 86 68 c 0
 86 121 131 167 183 167 c 0
EndSplineSet
EndChar
StartChar: quotedbl
Encoding: 34 34 3
Width: 380
Flags: W
HStem: 661 20G<199 247.5 397 445.5>
Fore
184 352 m 1
 140 365 l 1
 152 592 l 1
 153 601 153 608 153 613 c 0
 155 660 177 681 221 681 c 0
 274 681 309 651 309 606 c 0
 309 590 305 576 297 561 c 2
 184 352 l 1
382 352 m 1
 338 365 l 1
 350 592 l 1
 351 601 351 608 351 613 c 0
 353 660 375 681 419 681 c 0
 472 681 507 651 507 606 c 0
 507 590 503 576 495 561 c 2
 382 352 l 1
EndSplineSet
EndChar
StartChar: numbersign
Encoding: 35 35 4
Width: 680
Flags: W
HStem: 0 21G<227 313 400 486> 219 86<157 259 358 432 531 621> 390 86<185 284 383 457 556 649> 661 20G<327 414 500 587>
DStem: 259 219 346 219 227 0 313 0 327 681 414 681 297 476 383 476 432 219 519 219 400 0 486 0 500 681 587 681 470 476 556 476
Fore
531 305 m 1
 621 305 l 1
 621 219 l 1
 519 219 l 1
 486 0 l 1
 400 0 l 1
 432 219 l 1
 346 219 l 1
 313 0 l 1
 227 0 l 1
 259 219 l 1
 157 219 l 1
 157 305 l 1
 271 305 l 1
 284 390 l 1
 185 390 l 1
 185 476 l 1
 297 476 l 1
 327 681 l 1
 414 681 l 1
 383 476 l 1
 470 476 l 1
 500 681 l 1
 587 681 l 1
 556 476 l 1
 649 476 l 1
 649 390 l 1
 544 390 l 1
 531 305 l 1
444 305 m 1
 457 390 l 1
 371 390 l 1
 358 305 l 1
 444 305 l 1
EndSplineSet
EndChar
StartChar: dollar
Encoding: 36 36 5
Width: 680
Flags: W
HStem: 587 204<415 430>
VStem: 140 168<464 504> 482 187<170 219>
DStem: 291 -15 374 -15 265 -164 348 -164 416 791 499 791 393 668 477 669
Fore
499 791 m 1
 477 669 l 1
 616 649 697 604 697 546 c 0
 697 507 665 478 622 478 c 0
 600 478 582 485 566 498 c 0
 561 503 561 503 528 539 c 0
 496 573 466 587 423 587 c 0
 358 587 308 551 308 504 c 0
 308 478 324 455 352 441 c 0
 380 426 382 426 468 401 c 0
 506 390 547 374 580 355 c 0
 642 321 669 279 669 219 c 0
 669 94 555 4 374 -15 c 1
 348 -164 l 1
 265 -164 l 1
 291 -15 l 1
 129 8 45 55 45 123 c 0
 45 168 81 199 132 199 c 0
 155 199 175 193 192 180 c 0
 201 173 206 167 237 129 c 0
 272 88 302 72 348 72 c 0
 421 72 482 116 482 170 c 0
 482 204 462 228 418 246 c 0
 393 257 389 258 334 275 c 0
 204 313 140 376 140 464 c 0
 140 552 204 621 314 652 c 0
 340 659 364 664 393 668 c 1
 416 791 l 1
 499 791 l 1
EndSplineSet
EndChar
StartChar: percent
Encoding: 37 37 6
Width: 880
Flags: W
HStem: -8 82<681 699> 276 78<728 745> 327 82<260 276> 611 78<307 324>
VStem: 106 117<457.81 489> 361 117<535 553> 527 117<122.659 153> 782 117<199 218>
DStem: 684 681 767 681 242 0 326 0
Fore
324 689 m 0xbf
 418 689 478 631 478 538 c 0
 478 425 377 327 260 327 c 0
 168 327 106 385 106 473 c 0
 106 590 205 689 324 689 c 0xbf
309 611 m 0
 261 611 223 551 223 474 c 0
 223 432 241 409 274 409 c 0
 294 409 313 419 325 435 c 0
 346 464 361 513 361 551 c 0
 361 590 343 611 309 611 c 0
767 681 m 1
 326 0 l 1
 242 0 l 1
 684 681 l 1
 767 681 l 1
745 354 m 0xdf
 839 354 899 296 899 203 c 0
 899 90 798 -8 681 -8 c 0
 589 -8 527 50 527 138 c 0
 527 255 626 354 745 354 c 0xdf
730 276 m 0
 682 276 644 216 644 139 c 0
 644 97 662 74 695 74 c 0
 715 74 734 84 746 100 c 0
 767 129 782 178 782 216 c 0
 782 255 764 276 730 276 c 0
EndSplineSet
EndChar
StartChar: ampersand
Encoding: 38 38 7
Width: 980
Flags: W
HStem: -13 96<313 394 768 809> 624 70<415 440>
VStem: 48 173<193 241> 183 158<496 516> 485 142<550.331 567> 726 172<485 524>
Fore
561 54 m 1xdc
 552 50 l 2
 485 18 477 14 443 5 c 0
 398 -6 352 -13 313 -13 c 0
 242 -13 173 7 123 42 c 0
 75 75 48 130 48 193 c 0xec
 48 261 79 322 134 361 c 0
 167 384 198 394 264 403 c 1
 207 421 183 452 183 505 c 0
 183 612 290 694 432 694 c 0
 550 694 627 643 627 564 c 0
 627 516 599 469 554 441 c 0
 527 425 505 416 461 403 c 1
 564 355 595 322 639 217 c 1
 647 200 l 1
 721 257 781 352 781 413 c 0
 781 427 776 436 764 449 c 0
 733 480 726 495 726 524 c 0
 726 573 761 612 806 612 c 0
 859 612 898 558 898 485 c 0
 898 372 810 225 690 138 c 1
 735 99 769 83 809 83 c 0
 833 83 858 92 869 104 c 0
 878 113 879 118 882 145 c 0
 886 191 917 224 955 224 c 0
 989 224 1016 198 1016 165 c 0
 1016 72 898 -13 768 -13 c 0
 720 -13 664 -1 628 16 c 0
 614 23 597 32 561 54 c 1xdc
428 624 m 0
 399 624 378 611 360 580 c 0
 348 559 341 535 341 511 c 0xdc
 341 471 363 445 397 445 c 0
 426 445 451 463 468 498 c 0
 478 519 485 545 485 564 c 0
 485 600 463 624 428 624 c 0
509 113 m 1
 502 120 l 2
 475 148 459 171 438 211 c 0
 405 275 390 296 368 312 c 0
 347 328 325 336 306 336 c 0
 258 336 221 295 221 241 c 0xec
 221 155 300 83 394 83 c 0
 428 83 458 91 509 113 c 1
EndSplineSet
EndChar
StartChar: quoteright
Encoding: 39 8217 8
Width: 320
Flags: W
HStem: 526 21G<212.5 233> 674 20G<250.5 299.5>
Fore
206 416 m 1
 172 448 l 1
 209 481 237 512 244 527 c 1
 238 526 235 526 231 526 c 0
 194 526 171 551 171 590 c 0
 171 644 222 694 279 694 c 0
 320 694 349 664 349 621 c 0
 349 554 292 472 206 416 c 1
EndSplineSet
KernsSLIF: 65 -97 1 0 225 -189 1 0 257 -98 1 0 256 -98 1 0 262 -98 1 0 44 -76 1 0 100 -46 1 0 111 -43 1 0 46 -79 1 0 114 -26 1 0 115 -33 1 0 116 -31 1 0 118 -12 1 0 119 -12 1 0 121 -15 1 0
EndChar
StartChar: parenleft
Encoding: 40 40 9
Width: 260
Flags: W
Fore
388 710 m 1
 375 636 l 1
 335 631 306 604 280 549 c 0
 231 446 174 169 174 33 c 0
 174 -28 195 -59 246 -75 c 1
 233 -145 l 1
 223 -145 l 2
 167 -144 139 -136 107 -112 c 0
 60 -79 31 -13 31 56 c 0
 31 136 69 354 104 472 c 0
 141 597 220 683 315 704 c 0
 335 708 357 710 388 710 c 1
EndSplineSet
EndChar
StartChar: parenright
Encoding: 41 41 10
Width: 260
Flags: W
Fore
-35 -145 m 1
 -22 -72 l 1
 18 -66 47 -39 73 16 c 0
 122 118 179 395 179 532 c 0
 179 592 158 624 107 640 c 1
 120 710 l 1
 163 710 183 707 210 697 c 0
 278 671 322 597 322 509 c 0
 322 445 299 299 268 165 c 0
 237 33 197 -43 132 -94 c 0
 89 -128 27 -148 -21 -145 c 0
 -28 -144 -33 -145 -35 -145 c 1
EndSplineSet
EndChar
StartChar: asterisk
Encoding: 42 42 11
Width: 460
Flags: W
HStem: 475 96<162 174 459 473> 679 20G<266.5 290>
VStem: 219 96<642 650> 319 97<392 406>
Fore
270 540 m 1
 287 560 l 1
 242 602 l 2
 227 616 219 632 219 644 c 0
 219 671 251 699 282 699 c 0
 298 699 310 687 313 668 c 0
 315 662 315 657 315 642 c 1
 317 576 l 1
 340 573 l 1
 362 641 l 2
 374 679 392 697 416 697 c 0
 440 697 462 678 462 657 c 0
 462 638 452 624 422 602 c 2
 364 557 l 1
 370 536 l 1
 437 560 l 2
 452 566 465 569 473 569 c 0
 495 569 508 555 508 533 c 0
 508 500 486 474 459 474 c 0
 450 474 439 477 424 482 c 2
 365 504 l 1
 348 485 l 1
 393 442 l 2
 408 427 416 413 416 400 c 0
 416 373 383 345 352 345 c 0
 330 345 319 363 319 402 c 1
 318 469 l 1
 295 471 l 1
 273 403 l 2
 260 364 243 346 219 346 c 0
 195 346 173 366 173 386 c 0
 173 405 184 420 212 442 c 2
 270 487 l 1
 264 508 l 1
 197 484 l 2
 180 477 171 475 162 475 c 0
 139 475 126 489 126 512 c 0
 126 544 148 571 174 571 c 0
 184 571 194 568 211 562 c 2
 270 540 l 1
EndSplineSet
EndChar
StartChar: plus
Encoding: 43 43 12
Width: 600
Flags: W
HStem: 293 114<91 285 401 595>
VStem: 285 116<107 293 407 593>
Fore
595 293 m 1
 401 293 l 1
 401 107 l 1
 285 107 l 1
 285 293 l 1
 91 293 l 1
 91 407 l 1
 285 407 l 1
 285 593 l 1
 401 593 l 1
 401 407 l 1
 595 407 l 1
 595 293 l 1
EndSplineSet
EndChar
StartChar: comma
Encoding: 44 44 13
Width: 340
Flags: W
HStem: -7 21G<146 168.5>
Fore
139 -130 m 1
 101 -94 l 1
 141 -59 174 -23 181 -6 c 1
 174 -7 171 -7 166 -7 c 0
 126 -7 100 20 100 64 c 0
 100 124 157 179 219 179 c 0
 266 179 298 146 298 98 c 0
 298 24 236 -66 139 -130 c 1
EndSplineSet
KernsSLIF: 49 -61 1 0 186 -49 1 0 39 -49 1 0
EndChar
StartChar: hyphen
Encoding: 45 45 14
Width: 280
Flags: W
HStem: 224 90<92 286>
Fore
93 314 m 1
 319 314 l 1
 286 224 l 1
 59 224 l 1
 93 314 l 1
EndSplineSet
KernsSLIF: 65 -12 1 0 225 -55 1 0 257 -12 1 0 256 -12 1 0 262 -12 1 0 84 -77 1 0 86 -33 1 0 87 -15 1 0 89 -61 1 0
EndChar
StartChar: period
Encoding: 46 46 15
Width: 340
Flags: W
HStem: -13 21G<162 213>
Fore
221 172 m 0
 264 172 296 139 296 94 c 0
 296 39 242 -13 184 -13 c 0
 140 -13 106 19 106 60 c 0
 106 120 160 172 221 172 c 0
EndSplineSet
KernsSLIF: 49 -64 1 0 186 -50 1 0 39 -50 1 0
EndChar
StartChar: slash
Encoding: 47 47 16
Width: 360
Flags: W
DStem: 368 710 502 710 9 -145 145 -145
Fore
502 710 m 1
 145 -145 l 1
 9 -145 l 1
 368 710 l 1
 502 710 l 1
EndSplineSet
EndChar
StartChar: zero
Encoding: 48 48 17
Width: 680
Flags: W
HStem: -13 88<334 360> 612 82<438 454>
VStem: 87 168<210 246> 535 168<418 458>
Fore
454 694 m 0
 611 694 703 592 703 418 c 0
 703 306 655 174 586 97 c 0
 523 26 433 -13 335 -13 c 0
 183 -13 87 88 87 246 c 0
 87 386 145 535 228 607 c 0
 292 662 375 694 454 694 c 0
441 612 m 0
 390 612 347 579 318 519 c 0
 283 444 255 308 255 210 c 0
 255 126 290 75 348 75 c 0
 399 75 445 112 475 177 c 0
 506 245 535 379 535 458 c 0
 535 509 529 542 515 568 c 0
 501 594 471 612 441 612 c 0
EndSplineSet
KernsSLIF: 52 -17 1 0 49 -82 1 0 55 -36 1 0
EndChar
StartChar: one
Encoding: 49 49 18
Width: 680
Flags: W
HStem: 0 83<192 210.592> 565 82<242 277> 661 20G<492 547>
DStem: 339 492 547 681 276 144 452 156
Fore
547 681 m 1
 452 156 l 2
 449 139 447 125 447 119 c 0
 447 94 465 85 514 83 c 2
 565 81 l 1
 550 0 l 1
 123 0 l 1
 138 81 l 1
 192 83 l 2
 247 84 268 99 276 144 c 2
 339 492 l 2
 342 509 344 524 344 531 c 0
 344 553 323 564 277 565 c 2
 228 566 l 1
 242 648 l 1
 251 647 258 647 260 647 c 0
 407 656 430 659 492 681 c 1
 547 681 l 1
EndSplineSet
KernsSLIF: 44 -77 1 0 56 -87 1 0 53 -87 1 0 52 -117 1 0 57 -78 1 0 49 -108 1 0 46 -80 1 0 55 -127 1 0 54 -93 1 0 51 -85 1 0 50 -75 1 0 48 -93 1 0
EndChar
StartChar: two
Encoding: 50 50 19
Width: 680
Flags: W
HStem: 0 133<282 570> 612 82<390 421>
VStem: 132 142<485 548> 132 166<479 497> 485 189<511 529>
Fore
664 207 m 1xe8
 570 0 l 1
 75 0 l 1
 67 102 l 1
 96 119 l 2
 247 207 286 234 357 300 c 0
 439 375 485 457 485 527 c 0
 485 576 445 612 390 612 c 0
 330 612 274 581 274 548 c 0xe8
 274 541 277 534 285 522 c 0
 295 507 298 500 298 489 c 0xd8
 298 446 254 404 208 404 c 0
 163 404 132 437 132 485 c 0
 132 528 153 571 193 611 c 0
 250 666 325 694 421 694 c 0
 576 694 674 623 674 513 c 0
 674 461 654 413 611 364 c 0
 563 310 510 271 377 191 c 2
 282 133 l 1
 405 133 l 2
 521 133 540 143 595 232 c 1
 664 207 l 1xe8
EndSplineSet
KernsSLIF: 52 -29 1 0 49 -87 1 0 55 -50 1 0
EndChar
StartChar: three
Encoding: 51 51 20
Width: 680
Flags: W
HStem: -13 88<308 347> 606 88<406 428>
VStem: 72 152<126 142> 152 166<504 522> 472 193<210 227> 501 182<512 532>
Fore
296 325 m 1xe8
 312 409 l 1
 346 409 l 2
 395 409 421 414 446 427 c 0
 479 444 501 483 501 525 c 0
 501 578 469 606 408 606 c 0
 360 606 310 582 310 560 c 0
 310 557 310 554 311 551 c 0
 316 533 318 520 318 514 c 0
 318 476 273 439 227 439 c 0
 183 439 152 467 152 506 c 0
 152 557 184 608 241 645 c 0
 288 676 356 694 428 694 c 0
 580 694 683 624 683 522 c 0xd4
 683 453 633 392 554 362 c 1
 629 338 665 293 665 225 c 0
 665 91 516 -13 323 -13 c 0
 176 -13 72 51 72 142 c 0
 72 199 116 246 168 246 c 0
 209 246 241 218 241 183 c 0
 241 170 241 170 226 134 c 0
 225 131 224 128 224 126 c 0
 224 99 273 75 327 75 c 0
 376 75 412 91 438 124 c 0
 460 151 472 186 472 222 c 0
 472 295 429 325 322 325 c 2
 296 325 l 1xe8
EndSplineSet
KernsSLIF: 52 -24 1 0 49 -87 1 0 55 -47 1 0
EndChar
StartChar: four
Encoding: 52 52 21
Width: 680
Flags: W
HStem: 183 100<202 382 563 659> 661 20G<472 635>
DStem: 448 547 635 681 400 283 563 283 472 681 427 524 223 423 329 415
Fore
635 681 m 1
 563 283 l 1
 708 283 l 1
 659 183 l 1
 544 183 l 1
 537 147 l 2
 536 142 536 139 536 132 c 0
 536 104 556 86 593 83 c 2
 618 81 l 1
 603 0 l 1
 257 0 l 1
 271 81 l 1
 299 83 l 2
 352 88 368 105 380 170 c 1
 382 183 l 1
 84 183 l 1
 63 264 l 1
 118 316 161 358 223 423 c 2
 472 681 l 1
 635 681 l 1
400 283 m 1
 448 547 l 1
 443 541 434 531 427 524 c 2
 329 415 l 1
 202 283 l 1
 400 283 l 1
EndSplineSet
KernsSLIF: 52 -4 1 0 49 -82 1 0 55 -66 1 0
EndChar
StartChar: five
Encoding: 53 53 22
Width: 680
Flags: W
HStem: -13 88<301 320> 383 92<367 440> 548 133<221 626>
VStem: 78 163<111 135> 472 197<258 276>
DStem: 221 681 291 548 141 319 262 431
Fore
291 548 m 1
 262 431 l 1
 310 459 374 475 440 475 c 0
 575 475 669 393 669 274 c 0
 669 189 625 103 555 54 c 0
 494 11 409 -13 318 -13 c 0
 178 -13 78 49 78 135 c 0
 78 194 122 240 177 240 c 0
 222 240 258 209 258 170 c 0
 258 157 254 143 243 121 c 0
 242 118 241 114 241 111 c 0
 241 91 272 75 311 75 c 0
 402 75 472 156 472 261 c 0
 472 334 430 383 367 383 c 0
 313 383 256 350 214 294 c 1
 141 319 l 1
 221 681 l 1
 669 681 l 1
 626 548 l 1
 291 548 l 1
EndSplineSet
KernsSLIF: 52 -21 1 0 49 -94 1 0 55 -69 1 0
EndChar
StartChar: six
Encoding: 54 54 23
Width: 680
Flags: W
HStem: -13 88<357 377> 360 88<404 459> 606 88<455 477>
VStem: 88 163<188 246> 513 168<242 260>
Fore
271 392 m 1
 331 432 385 448 459 448 c 0
 592 448 681 370 681 253 c 0
 681 103 540 -13 359 -13 c 0
 280 -13 205 11 160 51 c 0
 113 93 88 161 88 246 c 0
 88 355 122 472 176 552 c 0
 236 641 348 694 475 694 c 0
 603 694 704 640 704 571 c 0
 704 524 664 484 617 484 c 0
 595 484 574 493 561 507 c 0
 550 519 546 531 544 560 c 0
 542 584 541 586 529 592 c 0
 514 600 487 606 465 606 c 0
 389 606 329 557 293 469 c 0
 282 442 282 440 271 392 c 1
404 360 m 0
 316 360 251 287 251 188 c 0
 251 118 294 75 364 75 c 0
 453 75 513 146 513 249 c 0
 513 320 474 360 404 360 c 0
EndSplineSet
KernsSLIF: 52 -15 1 0 49 -80 1 0 55 -46 1 0
EndChar
StartChar: seven
Encoding: 55 55 24
Width: 680
Flags: W
HStem: 0 21G<236 437> 548 133<191 598>
Fore
739 681 m 1
 736 590 l 1
 540 355 473 222 437 0 c 1
 236 0 l 1
 251 63 280 133 322 207 c 0
 369 288 418 355 466 406 c 2
 588 537 l 1
 592 540 595 544 598 548 c 1
 357 548 l 2
 313 548 294 546 278 540 c 0
 254 530 228 500 197 446 c 1
 123 466 l 1
 191 681 l 1
 739 681 l 1
EndSplineSet
KernsSLIF: 58 -92 1 0 44 -102 1 0 56 -49 1 0 53 -56 1 0 52 -94 1 0 49 -72 1 0 46 -105 1 0 55 -36 1 0 54 -55 1 0 51 -45 1 0 50 -39 1 0
EndChar
StartChar: eight
Encoding: 56 56 25
Width: 680
Flags: W
HStem: -13 88<339 373> 606 88<419 453>
VStem: 68 137<164 180> 146 168<465 530> 506 168<171 234> 554 132<524 537>
Fore
564 378 m 1xd4
 643 340 674 299 674 234 c 0
 674 91 534 -13 342 -13 c 0
 176 -13 68 57 68 166 c 0xe8
 68 223 96 277 142 309 c 0
 164 323 181 332 220 349 c 1
 198 364 190 370 180 379 c 0
 159 400 146 434 146 465 c 0
 146 507 164 555 193 592 c 0
 245 658 331 694 437 694 c 0
 586 694 686 630 686 535 c 0
 686 471 650 424 564 378 c 1xd4
463 422 m 1
 467 424 l 2
 520 444 554 483 554 526 c 0
 554 574 505 606 432 606 c 0
 367 606 314 572 314 530 c 0xd4
 314 496 350 469 463 422 c 1
307 304 m 1
 243 279 205 232 205 178 c 0
 205 112 260 75 358 75 c 0
 446 75 506 114 506 171 c 0xe8
 506 199 494 215 459 236 c 0
 419 260 360 286 307 304 c 1
EndSplineSet
KernsSLIF: 52 -19 1 0 49 -84 1 0 55 -47 1 0
EndChar
StartChar: nine
Encoding: 57 57 26
Width: 680
Flags: W
HStem: -13 88<285 312> 235 96<325 385> 606 88<438 457>
VStem: 115 173<415 436> 544 168<441 500>
Fore
521 294 m 1
 450 251 397 235 325 235 c 0
 197 235 115 305 115 415 c 0
 115 569 268 694 455 694 c 0
 541 694 613 668 655 623 c 0
 693 582 712 522 712 441 c 0
 712 302 657 169 566 87 c 0
 493 20 399 -13 287 -13 c 0
 158 -13 71 32 71 99 c 0
 71 147 114 188 163 188 c 0
 208 188 230 162 234 106 c 0
 235 94 237 90 247 85 c 0
 263 78 283 75 307 75 c 0
 376 75 435 105 467 157 c 0
 490 194 503 229 521 294 c 1
443 606 m 0
 355 606 288 533 288 436 c 0
 288 367 321 331 385 331 c 0
 473 331 544 406 544 500 c 0
 544 566 506 606 443 606 c 0
EndSplineSet
KernsSLIF: 52 -16 1 0 49 -80 1 0 55 -31 1 0
EndChar
StartChar: colon
Encoding: 58 58 27
Width: 340
Flags: W
HStem: -13 185<184 221> 335 185<244 281>
Fore
281 520 m 0
 324 520 356 487 356 442 c 0
 356 387 302 335 244 335 c 0
 200 335 166 367 166 408 c 0
 166 468 220 520 281 520 c 0
221 172 m 0
 264 172 296 139 296 94 c 0
 296 39 242 -13 184 -13 c 0
 140 -13 106 19 106 60 c 0
 106 120 160 172 221 172 c 0
EndSplineSet
EndChar
StartChar: semicolon
Encoding: 59 59 28
Width: 340
Flags: W
HStem: -7 186<166 219> 335 185<240 277>
Fore
139 -130 m 1
 101 -94 l 1
 140 -59 174 -23 181 -6 c 1
 174 -7 171 -7 166 -7 c 0
 126 -7 100 20 100 64 c 0
 100 124 157 179 219 179 c 0
 266 179 298 146 298 98 c 0
 298 23 236 -66 139 -130 c 1
277 520 m 0
 320 520 352 487 352 442 c 0
 352 387 298 335 240 335 c 0
 196 335 162 367 162 408 c 0
 162 467 216 520 277 520 c 0
EndSplineSet
EndChar
StartChar: less
Encoding: 60 60 29
Width: 620
Flags: W
DStem: 79 294 237 350 588 56 588 185 588 643 588 514 79 405 237 350
Fore
237 350 m 1
 588 185 l 1
 588 56 l 1
 79 294 l 1
 79 405 l 1
 588 643 l 1
 588 514 l 1
 237 350 l 1
EndSplineSet
EndChar
StartChar: equal
Encoding: 61 61 30
Width: 600
Flags: W
HStem: 198 114<91 595> 388 114<91 595>
Fore
595 388 m 1
 91 388 l 1
 91 502 l 1
 595 502 l 1
 595 388 l 1
595 198 m 1
 91 198 l 1
 91 312 l 1
 595 312 l 1
 595 198 l 1
EndSplineSet
EndChar
StartChar: greater
Encoding: 62 62 31
Width: 620
Flags: W
DStem: 89 514 89 643 440 350 598 405 440 350 598 294 89 185 89 56
Fore
440 350 m 1
 89 514 l 1
 89 643 l 1
 598 405 l 1
 598 294 l 1
 89 56 l 1
 89 185 l 1
 440 350 l 1
EndSplineSet
EndChar
StartChar: question
Encoding: 63 63 32
Width: 620
Flags: W
HStem: -13 174<350 369> 612 82<399 428>
VStem: 145 160<498 516> 273 174<65 85> 497 171<502 525>
Fore
417 215 m 1xe8
 326 215 l 1
 330 307 347 339 424 395 c 0
 458 419 469 430 480 450 c 0
 491 471 497 493 497 514 c 0
 497 573 458 612 400 612 c 0
 347 612 296 586 296 558 c 0
 296 552 298 543 301 531 c 0
 304 523 305 516 305 510 c 0
 305 468 264 429 221 429 c 0
 174 429 145 458 145 504 c 0
 145 607 274 694 428 694 c 0
 571 694 668 625 668 523 c 0
 668 433 609 354 510 314 c 0
 443 288 425 269 417 215 c 1xe8
369 161 m 0
 415 161 447 130 447 85 c 0
 447 32 403 -13 350 -13 c 0
 306 -13 273 20 273 65 c 0xd8
 273 116 318 161 369 161 c 0
EndSplineSet
EndChar
StartChar: at
Encoding: 64 64 33
Width: 780
Flags: W
HStem: -13 65<455 482> 170 65<370 398> 461 58<438 456> 635 65<431 480>
VStem: 80 72<322 372> 241 112<293 313> 716 71<386 420>
Fore
532 513 m 1
 626 513 l 1
 587 300 l 1
 582 276 582 275 582 267 c 0
 582 252 593 240 606 240 c 0
 617 240 633 247 650 259 c 0
 694 290 716 337 716 397 c 0
 716 533 604 635 455 635 c 0
 281 635 152 512 152 347 c 0
 152 177 280 52 455 52 c 0
 571 52 657 95 719 184 c 1
 790 184 l 1
 762 136 743 111 711 82 c 0
 643 21 551 -13 455 -13 c 0
 247 -13 80 147 80 346 c 0
 80 449 125 545 203 610 c 0
 269 665 367 700 454 700 c 0
 539 700 632 666 693 613 c 0
 753 561 787 487 787 408 c 0
 787 322 746 249 671 205 c 0
 635 184 592 170 560 170 c 0
 517 170 489 188 480 222 c 1
 452 189 412 170 370 170 c 0
 295 170 241 229 241 311 c 0
 241 422 332 519 438 519 c 0
 470 519 504 507 527 488 c 1
 532 513 l 1
511 440 m 1
 509 441 509 441 506 443 c 0
 489 454 470 461 456 461 c 0
 402 461 353 382 353 295 c 0
 353 258 370 235 398 235 c 0
 424 235 446 252 466 287 c 0
 483 316 493 350 511 440 c 1
EndSplineSet
EndChar
StartChar: A
Encoding: 65 65 34
Width: 720
Flags: W
HStem: 0 21G<-27 262 402 754> 242 78<305 484> 661 20G<413 564>
DStem: 413 681 428 538 135 210 305 320 413 681 262 242 135 210 216 155
Fore
564 681 m 1
 680 178 l 1
 691 134 696 119 701 112 c 0
 712 95 715 94 757 84 c 0
 759 84 764 82 769 81 c 1
 754 0 l 1
 402 0 l 1
 417 81 l 1
 431 83 l 1
 450 85 l 2
 493 91 507 99 507 119 c 0
 507 128 504 146 500 165 c 2
 484 242 l 1
 262 242 l 1
 216 155 l 2
 201 126 200 125 200 113 c 0
 200 96 217 88 258 83 c 2
 277 81 l 1
 262 0 l 1
 -27 0 l 1
 -12 81 l 1
 55 97 86 120 116 177 c 0
 124 190 130 202 135 210 c 2
 413 681 l 1
 564 681 l 1
469 320 m 1
 428 538 l 1
 305 320 l 1
 469 320 l 1
EndSplineSet
KernsSLIF: 67 -34 0 0 264 -35 0 0 71 -30 0 0 79 -35 0 0 286 -35 0 0 81 6 0 0 84 -39 0 0 85 -28 0 0 299 -28 0 0 301 -28 0 0 298 -28 0 0 300 -28 0 0 86 -67 0 0 87 -52 0 0 89 -36 0 0 97 -16 0 0 98 6 0 0 99 -6 0 0 332 -8 0 0 44 11 0 0 100 -4 0 0 101 -6 0 0 103 -17 0 0 171 -21 0 0 172 -21 0 0 45 -4 0 0 111 -4 0 0 46 8 0 0 113 -5 0 0 186 -82 0 0 39 -82 0 0 116 -18 0 0 117 -16 0 0 118 -3 0 0 119 -3 0 0 121 -8 0 0
EndChar
StartChar: B
Encoding: 66 66 35
Width: 720
Flags: W
HStem: 0 84<365 435> 322 83<348 437> 600 81<137 479>
VStem: 545 194<223 241> 585 177<517 538>
Fore
137 681 m 1xf0
 514 681 l 2
 614 681 660 674 696 654 c 0
 737 631 762 587 762 538 c 0xe8
 762 449 688 379 581 366 c 1
 675 364 739 310 739 232 c 0
 739 172 707 108 657 66 c 0
 604 22 530 0 435 0 c 2
 14 0 l 1
 29 81 l 1
 51 83 l 2
 104 90 119 106 131 168 c 1
 194 513 l 1
 196 525 198 542 198 552 c 0
 198 580 181 595 145 598 c 2
 123 600 l 1
 137 681 l 1xf0
333 322 m 1
 311 201 l 1
 304 151 301 124 301 121 c 0
 301 96 326 84 378 84 c 0
 430 84 463 95 495 125 c 0
 528 155 545 192 545 233 c 0xf0
 545 298 510 322 417 322 c 2
 333 322 l 1
348 405 m 1
 410 405 l 2
 523 405 585 444 585 517 c 0xe8
 585 572 544 600 465 600 c 0
 434 600 413 597 398 589 c 0
 385 583 378 567 370 525 c 1
 348 405 l 1
EndSplineSet
KernsSLIF: 65 2 0 0 225 2 0 0 257 2 0 0 259 2 0 0 256 2 0 0 262 2 0 0 261 2 0 0 79 -2 0 0 234 -10 0 0 287 -2 0 0 289 -2 0 0 286 -2 0 0 288 -2 0 0 233 -2 0 0 86 -5 0 0 87 -5 0 0 89 -5 0 0
EndChar
StartChar: C
Encoding: 67 67 36
Width: 700
Flags: W
HStem: -13 92<397 436> 602 92<466 495>
VStem: 78 192<258 292>
Fore
704 681 m 1
 754 419 l 1
 680 403 l 1
 674 437 651 485 620 527 c 0
 585 574 535 602 483 602 c 0
 426 602 377 571 336 509 c 0
 295 446 270 356 270 270 c 0
 270 150 332 79 436 79 c 0
 519 79 611 136 669 224 c 1
 738 179 l 1
 657 53 539 -13 397 -13 c 0
 302 -13 215 21 158 79 c 0
 109 130 78 208 78 282 c 0
 78 374 114 473 175 552 c 0
 246 644 349 694 468 694 c 0
 523 694 569 682 636 651 c 1
 648 681 l 1
 704 681 l 1
EndSplineSet
KernsSLIF: 65 2 0 0 225 1 0 0 257 2 0 0 256 2 0 0 262 2 0 0 72 -6 0 0 75 -6 0 0 79 -3 0 0 287 -3 0 0 286 -3 0 0
EndChar
StartChar: D
Encoding: 68 68 37
Width: 760
Flags: W
HStem: 0 87<310 376> 599 82<137 479>
VStem: 632 173<399 433>
DStem: 194 513 367 509 131 168 304 157
Fore
14 0 m 1
 29 81 l 1
 51 83 l 2
 104 90 119 106 131 168 c 1
 194 513 l 1
 196 525 198 542 198 552 c 0
 198 580 181 595 145 598 c 2
 123 600 l 1
 137 681 l 1
 457 681 l 2
 606 681 662 667 721 617 c 0
 776 569 805 496 805 407 c 0
 805 250 726 109 602 46 c 0
 537 13 453 0 310 0 c 2
 14 0 l 1
367 509 m 2
 304 157 l 1
 301 145 299 126 299 120 c 0
 299 97 322 87 376 87 c 0
 516 87 632 237 632 419 c 0
 632 536 575 599 469 599 c 0
 432 599 401 591 389 579 c 0
 379 569 377 564 367 509 c 2
EndSplineSet
KernsSLIF: 65 -25 0 0 257 -25 0 0 259 -25 0 0 256 -25 0 0 258 -25 0 0 262 -25 0 0 261 -25 0 0 74 11 0 0 84 -1 0 0 86 -28 0 0 87 -21 0 0 88 -34 0 0 89 -28 0 0
EndChar
StartChar: E
Encoding: 69 69 38
Width: 720
Flags: W
HStem: 0 84<365 648> 321 87<333 389> 491 20G<501 572> 600 81<138 503>
Fore
761 225 m 1
 648 0 l 1
 14 0 l 1
 29 81 l 1
 51 83 l 2
 104 90 119 106 131 168 c 1
 194 513 l 2
 196 524 198 543 198 552 c 0
 198 580 181 595 145 598 c 2
 123 600 l 1
 138 681 l 1
 722 681 l 1
 777 460 l 1
 707 438 l 1
 658 545 582 600 480 600 c 0
 441 600 407 592 394 579 c 1
 381 568 375 553 368 511 c 1
 349 410 l 1
 365 408 372 408 389 408 c 0
 462 408 478 423 501 511 c 1
 572 511 l 1
 517 209 l 1
 446 209 l 1
 448 225 448 232 448 239 c 0
 448 304 424 322 333 321 c 1
 303 156 l 2
 298 128 298 128 298 119 c 0
 298 95 322 84 376 84 c 0
 495 84 571 126 695 260 c 1
 761 225 l 1
EndSplineSet
EndChar
StartChar: F
Encoding: 70 70 39
Width: 660
Flags: W
HStem: 0 21G<14 374> 312 90<377 390> 491 20G<494 563> 593 88<137 478>
Fore
709 681 m 1
 763 445 l 1
 694 427 l 1
 691 434 l 1
 643 512 636 521 605 546 c 0
 565 578 521 593 463 593 c 0
 394 593 380 582 368 511 c 1
 348 403 l 1
 360 403 l 2
 372 402 380 402 390 402 c 0
 435 402 456 416 476 458 c 0
 484 475 489 490 494 511 c 1
 563 511 l 1
 505 195 l 1
 437 195 l 1
 439 214 439 223 439 235 c 0
 439 290 421 312 377 312 c 2
 332 312 l 1
 305 168 l 1
 304 160 302 138 302 129 c 0
 302 99 318 86 361 83 c 2
 389 81 l 1
 374 0 l 1
 14 0 l 1
 29 81 l 1
 51 83 l 2
 104 90 119 106 131 168 c 1
 194 513 l 1
 196 525 198 542 198 552 c 0
 198 580 181 595 145 598 c 2
 123 600 l 1
 137 681 l 1
 709 681 l 1
EndSplineSet
KernsSLIF: 65 -65 0 0 257 -65 0 0 259 -65 0 0 256 -65 0 0 258 -65 0 0 262 -65 0 0 261 -65 0 0 74 -43 0 0 79 15 0 0 286 15 0 0 97 -23 0 0 323 -23 0 0 322 -23 0 0 241 10 0 0 328 -23 0 0 44 -110 0 0 101 -18 0 0 335 -18 0 0 45 -12 0 0 105 22 0 0 106 15 0 0 111 -11 0 0 352 -11 0 0 351 -11 0 0 250 -6 0 0 249 -10 0 0 46 -113 0 0 114 21 0 0 117 22 0 0
EndChar
StartChar: G
Encoding: 71 71 40
Width: 760
Flags: W
HStem: -13 96<364 409> 598 96<465 494>
VStem: 77 187<252 292>
Fore
726 681 m 1
 768 436 l 1
 694 423 l 1
 690 431 l 2
 646 514 629 536 586 565 c 0
 553 586 518 598 484 598 c 0
 364 598 264 449 264 269 c 0
 264 154 319 83 409 83 c 0
 492 83 567 145 567 212 c 0
 567 231 560 246 547 254 c 0
 537 260 535 260 503 266 c 2
 492 268 l 1
 506 349 l 1
 828 349 l 1
 813 268 l 1
 794 264 l 2
 743 252 732 240 724 192 c 1
 689 0 l 1
 580 0 l 1
 569 51 l 1
 512 9 441 -13 364 -13 c 0
 192 -13 77 104 77 278 c 0
 77 505 253 694 465 694 c 0
 531 694 582 680 652 641 c 1
 671 681 l 1
 726 681 l 1
EndSplineSet
KernsSLIF: 65 -5 0 0 225 -5 0 0 257 -5 0 0 259 -5 0 0 256 -5 0 0 258 -5 0 0 262 -5 0 0 261 -5 0 0 84 -20 0 0 86 -30 0 0 87 -19 0 0 89 -30 0 0
EndChar
StartChar: H
Encoding: 72 72 41
Width: 800
Flags: W
HStem: 323 90<350 584>
Fore
334 323 m 1
 305 168 l 1
 304 160 302 137 302 128 c 0
 302 101 319 86 355 83 c 2
 377 81 l 1
 362 0 l 1
 14 0 l 1
 29 81 l 1
 51 83 l 2
 104 90 119 106 131 168 c 1
 194 513 l 1
 196 525 198 542 198 552 c 0
 198 580 181 595 145 598 c 2
 123 600 l 1
 137 681 l 1
 485 681 l 1
 471 600 l 1
 448 598 l 2
 396 591 381 575 368 513 c 1
 350 413 l 1
 600 413 l 1
 618 513 l 1
 620 523 622 542 622 552 c 0
 622 580 605 595 569 598 c 2
 547 600 l 1
 562 681 l 1
 910 681 l 1
 895 600 l 1
 873 598 l 2
 820 591 805 575 793 513 c 1
 730 168 l 2
 728 157 726 138 726 129 c 0
 726 101 743 86 779 83 c 2
 801 81 l 1
 786 0 l 1
 438 0 l 1
 453 81 l 1
 476 83 l 2
 528 90 543 105 556 168 c 1
 584 323 l 1
 334 323 l 1
EndSplineSet
EndChar
StartChar: I
Encoding: 73 73 42
Width: 375
Flags: W
HStem: 0 21G<14 361> 661 20G<137 485>
DStem: 194 513 368 513 131 168 305 168
Fore
123 600 m 1
 137 681 l 1
 485 681 l 1
 470 600 l 1
 448 598 l 2
 395 591 381 575 368 513 c 1
 305 168 l 1
 304 161 302 137 302 128 c 0
 302 101 319 86 355 83 c 2
 376 81 l 1
 361 0 l 1
 14 0 l 1
 29 81 l 1
 51 83 l 2
 104 90 118 106 131 168 c 1
 194 513 l 1
 195 521 197 543 197 552 c 0
 197 580 180 595 144 598 c 2
 123 600 l 1
EndSplineSet
EndChar
StartChar: J
Encoding: 74 74 43
Width: 620
Flags: W
HStem: -13 88<231 249> 661 20G<361 721>
VStem: 8 142<126 164>
DStem: 430 513 604 513 382 251 550 220
Fore
346 600 m 1
 361 681 l 1
 721 681 l 1
 706 600 l 1
 684 598 l 2
 631 591 616 576 604 513 c 1
 550 220 l 1
 539 157 537 149 528 130 c 0
 487 44 373 -13 242 -13 c 0
 102 -13 8 58 8 164 c 0
 8 237 60 296 125 296 c 0
 171 296 207 262 207 218 c 0
 207 194 194 170 172 154 c 0
 152 139 150 137 150 126 c 0
 150 99 191 75 236 75 c 0
 277 75 318 96 343 130 c 0
 359 152 370 187 382 251 c 1
 430 513 l 1
 431 521 433 544 433 553 c 0
 433 579 414 596 380 598 c 2
 346 600 l 1
EndSplineSet
KernsSLIF: 65 -40 0 0 225 -40 0 0 256 -40 0 0 262 -40 0 0
EndChar
StartChar: K
Encoding: 75 75 44
Width: 780
Flags: W
HStem: 0 21G<14 362 440 798> 661 20G<137 486 540 879>
DStem: 421 335 559 438 510 164 694 191 550 540 667 517 344 378 559 438
Fore
559 438 m 1
 694 191 l 2
 739 109 751 98 813 81 c 1
 798 0 l 1
 440 0 l 1
 454 81 l 1
 465 83 l 2
 518 90 528 96 528 116 c 0
 528 124 522 141 510 164 c 2
 421 335 l 1
 322 260 l 1
 305 168 l 1
 304 159 302 138 302 129 c 0
 302 101 319 86 355 83 c 2
 377 81 l 1
 362 0 l 1
 14 0 l 1
 29 81 l 1
 51 83 l 2
 104 90 119 106 131 168 c 1
 194 513 l 1
 196 525 198 542 198 552 c 0
 198 580 181 595 145 598 c 2
 123 600 l 1
 137 681 l 1
 486 681 l 1
 471 600 l 1
 448 598 l 2
 396 591 381 576 368 513 c 1
 344 378 l 1
 550 540 l 2
 580 564 589 572 589 579 c 0
 589 588 577 593 554 596 c 2
 526 600 l 1
 540 681 l 1
 879 681 l 1
 864 600 l 1
 785 588 736 567 667 517 c 2
 559 438 l 1
EndSplineSet
KernsSLIF: 67 -35 0 0 71 -34 0 0 79 -35 0 0 234 -43 0 0 287 -35 0 0 286 -35 0 0 83 -11 0 0 84 -6 0 0 97 -24 0 0 322 -24 0 0 241 12 0 0 328 -24 0 0 101 -14 0 0 45 -39 0 0 111 -12 0 0 352 -12 0 0 351 -12 0 0 117 -24 0 0 362 -24 0 0 121 -16 0 0
EndChar
StartChar: L
Encoding: 76 76 45
Width: 640
Flags: W
HStem: 0 89<333.82 383> 661 20G<137 498>
DStem: 194 513 368 513 131 168 305 167
Fore
725 234 m 1
 607 0 l 1
 14 0 l 1
 29 81 l 1
 51 83 l 2
 104 90 119 106 131 168 c 1
 194 513 l 1
 196 525 198 542 198 552 c 0
 198 580 181 595 145 598 c 2
 123 600 l 1
 137 681 l 1
 498 681 l 1
 483 600 l 1
 448 598 l 1
 396 591 381 575 368 513 c 1
 305 167 l 1
 300 135 297 118 297 115 c 0
 297 98 316 89 354 89 c 0
 424 89 476 105 534 144 c 0
 580 176 583 179 651 264 c 0
 652 266 654 268 656 271 c 1
 725 234 l 1
EndSplineSet
KernsSLIF: 65 27 0 0 225 26 0 0 257 27 0 0 256 27 0 0 262 27 0 0 67 18 0 0 264 17 0 0 71 19 0 0 79 17 0 0 287 17 0 0 289 17 0 0 286 17 0 0 288 17 0 0 290 17 0 0 83 28 0 0 84 -59 0 0 85 -6 0 0 298 -6 0 0 86 -47 0 0 87 -32 0 0 89 -51 0 0 45 55 0 0 186 -73 0 0 39 -73 0 0 117 1 0 0 362 -2 0 0 121 8 0 0
EndChar
StartChar: M
Encoding: 77 77 46
Width: 860
Flags: W
HStem: 0 21G<14 286 358 425 507 846> 661 20G<137 437 666 970>
DStem: 185 513 288 553 123 168 218 168 288 553 437 681 358 0 480 303 666 681 695 553 480 303 425 0 695 553 861 513 625 168 799 168
Fore
358 0 m 1
 288 553 l 1
 218 168 l 2
 216 158 214 138 214 129 c 0
 214 101 233 85 267 83 c 2
 301 81 l 1
 286 0 l 1
 14 0 l 1
 29 81 l 1
 42 83 l 2
 96 90 109 105 123 168 c 1
 185 513 l 2
 187 524 189 543 189 552 c 0
 189 581 176 592 136 598 c 2
 123 600 l 1
 137 681 l 1
 437 681 l 1
 480 303 l 1
 666 681 l 1
 970 681 l 1
 955 600 l 1
 940 598 l 2
 888 590 874 575 861 513 c 1
 799 168 l 1
 797 158 795 138 795 129 c 0
 795 101 810 88 846 83 c 2
 861 81 l 1
 846 0 l 1
 507 0 l 1
 522 81 l 1
 544 83 l 2
 597 90 612 105 625 168 c 1
 695 553 l 1
 425 0 l 1
 358 0 l 1
EndSplineSet
EndChar
StartChar: N
Encoding: 78 78 47
Width: 735
Flags: W
HStem: 0 21G<14 283 510 634> 661 20G<138 427 576 845>
DStem: 194 513 296 549 132 168 227 168 296 549 427 681 510 0 586 256 632 513 727 513 586 256 634 0
Fore
634 0 m 1
 510 0 l 1
 296 549 l 1
 227 168 l 1
 225 159 223 138 223 129 c 0
 223 101 240 86 276 83 c 2
 298 81 l 1
 283 0 l 1
 14 0 l 1
 29 81 l 1
 51 83 l 2
 104 90 119 105 132 168 c 1
 194 513 l 2
 196 524 198 543 198 552 c 0
 198 580 181 595 145 598 c 2
 123 600 l 1
 138 681 l 1
 427 681 l 1
 586 256 l 1
 632 513 l 1
 634 523 636 543 636 552 c 0
 636 580 619 595 583 598 c 2
 561 600 l 1
 576 681 l 1
 845 681 l 1
 830 600 l 1
 808 598 l 2
 755 591 740 576 727 513 c 1
 634 0 l 1
EndSplineSet
KernsSLIF: 65 -22 0 0 225 -22 0 0 257 -22 0 0 256 -22 0 0 262 -22 0 0 67 -20 0 0 264 -19 0 0 71 -19 0 0 79 -20 0 0 287 -20 0 0 286 -20 0 0 97 -35 0 0 323 -37 0 0 322 -37 0 0 241 -21 0 0 328 -37 0 0 44 -37 0 0 101 -27 0 0 335 -29 0 0 111 -24 0 0 352 -26 0 0 351 -26 0 0 249 -21 0 0 46 -40 0 0 117 -33 0 0 362 -35 0 0
EndChar
StartChar: O
Encoding: 79 79 48
Width: 760
Flags: W
HStem: -13 96<392 415> 602 92<461 487>
VStem: 78 188<263 293> 613 193<385 414>
Fore
485 694 m 0
 678 694 806 571 806 386 c 0
 806 297 765 192 704 123 c 0
 630 38 514 -13 394 -13 c 0
 206 -13 78 110 78 291 c 0
 78 395 123 506 193 575 c 0
 269 650 376 694 485 694 c 0
473 602 m 0
 360 602 266 449 266 265 c 0
 266 152 317 83 400 83 c 0
 461 83 516 119 557 187 c 0
 588 239 613 339 613 412 c 0
 613 533 563 602 473 602 c 0
EndSplineSet
KernsSLIF: 65 -27 0 0 225 -27 0 0 257 -27 0 0 256 -27 0 0 262 -27 0 0 84 -2 0 0 86 -33 0 0 87 -22 0 0 88 -35 0 0 89 -33 0 0
EndChar
StartChar: P
Encoding: 80 80 49
Width: 640
Flags: W
HStem: 0 21G<14 374> 601 80<137 463>
VStem: 558 186<495 519>
Fore
326 283 m 1
 305 168 l 1
 304 160 302 137 302 128 c 0
 302 101 321 85 355 83 c 2
 389 81 l 1
 374 0 l 1
 14 0 l 1
 29 81 l 1
 51 83 l 2
 104 90 119 106 131 168 c 1
 194 513 l 1
 196 525 198 542 198 552 c 0
 198 580 181 595 145 598 c 2
 123 600 l 1
 137 681 l 1
 479 681 l 2
 588 681 636 673 678 648 c 0
 719 623 744 574 744 517 c 0
 744 422 687 342 596 308 c 0
 550 291 494 283 409 283 c 2
 326 283 l 1
342 369 m 1
 367 369 l 2
 439 369 461 374 493 394 c 0
 532 420 558 466 558 510 c 0
 558 540 545 570 526 584 c 0
 511 595 485 601 453 601 c 0
 422 601 401 595 389 583 c 0
 380 574 378 570 371 527 c 1
 342 369 l 1
EndSplineSet
KernsSLIF: 65 -66 0 0 225 -112 0 0 257 -66 0 0 256 -66 0 0 262 -66 0 0 74 -43 0 0 97 -30 0 0 323 -30 0 0 322 -30 0 0 241 -3 0 0 328 -30 0 0 44 -108 0 0 101 -22 0 0 335 -22 0 0 45 -8 0 0 111 -19 0 0 352 -19 0 0 351 -19 0 0 250 -13 0 0 249 -16 0 0 46 -111 0 0
EndChar
StartChar: Q
Encoding: 81 81 50
Width: 760
Flags: W
HStem: -218 88<324 376> -13 88<393 426> 125 100<421 472> 602 92<468 499>
VStem: 37 151<-70 -56> 78 187<261 295> 317 58<101 125> 618 187<389 423>
Fore
699 114 m 1xf7
 712 93 720 62 720 30 c 0
 720 -116 567 -218 348 -218 c 0
 248 -218 158 -195 101 -154 c 0
 58 -122 37 -91 37 -56 c 0
 37 -16 73 18 116 18 c 0
 147 18 176 -1 183 -28 c 0
 186 -37 187 -51 188 -70 c 0xfb
 188 -82 190 -88 201 -96 c 0
 224 -115 291 -130 351 -130 c 0
 473 -130 567 -75 567 -4 c 0
 567 4 566 8 563 16 c 1
 485 -8 453 -13 393 -13 c 0
 205 -13 78 108 78 289 c 0
 78 513 261 694 489 694 c 0
 675 694 805 571 805 396 c 0
 805 293 763 182 699 114 c 1xf7
577 208 m 1
 604 278 618 346 618 411 c 0
 618 526 565 602 484 602 c 0
 362 602 265 452 265 263 c 0xf7
 265 190 282 143 319 109 c 1
 317 117 317 121 317 125 c 0
 317 184 380 225 472 225 c 0
 508 225 548 219 577 208 c 1
500 99 m 1
 499 100 499 100 497 101 c 0
 479 116 449 125 421 125 c 0
 393 125 375 116 375 101 c 0
 375 86 395 75 424 75 c 0
 447 75 473 83 500 99 c 1
EndSplineSet
EndChar
StartChar: R
Encoding: 82 82 51
Width: 740
Flags: W
HStem: 0 21G<14 362 547 750> 299 91<346 404> 600 81<137 479>
VStem: 576 186<511 528>
Fore
329 299 m 1
 305 168 l 1
 304 160 302 137 302 128 c 0
 302 101 319 86 355 83 c 2
 377 81 l 1
 362 0 l 1
 14 0 l 1
 29 81 l 1
 51 83 l 2
 104 90 119 106 131 168 c 1
 194 513 l 1
 196 525 198 542 198 552 c 0
 198 580 181 595 145 598 c 2
 123 600 l 1
 137 681 l 1
 512 681 l 2
 607 681 661 671 699 647 c 0
 738 622 762 577 762 526 c 0
 762 470 734 410 689 374 c 0
 658 349 627 334 582 324 c 1
 655 173 l 1
 693 102 701 95 765 81 c 1
 750 0 l 1
 547 0 l 1
 404 299 l 1
 329 299 l 1
372 537 m 1
 346 391 l 1
 354 390 358 390 363 390 c 0
 446 390 488 397 517 415 c 0
 553 437 576 478 576 517 c 0
 576 572 535 600 457 600 c 0
 422 600 397 594 387 582 c 1
 381 577 381 577 372 537 c 1
EndSplineSet
KernsSLIF: 67 -21 0 0 264 -20 0 0 71 -20 0 0 79 -21 0 0 234 -28 0 0 287 -21 0 0 286 -21 0 0 84 -11 0 0 85 -26 0 0 298 -26 0 0 86 -17 0 0 87 -17 0 0 89 -17 0 0 97 -28 0 0 323 -28 0 0 322 -28 0 0 241 8 0 0 328 -28 0 0 101 -18 0 0 335 -18 0 0 45 -27 0 0 111 -16 0 0 352 -16 0 0 351 -16 0 0 250 -10 0 0 117 -23 0 0 363 -24 0 0 362 -24 0 0 121 -16 0 0
EndChar
StartChar: S
Encoding: 83 83 52
Width: 700
Flags: W
HStem: -13 88<378 412> 606 88<414 446>
VStem: 122 187<477 526> 534 197<172 228>
Fore
715 681 m 1
 723 452 l 1
 647 452 l 1
 631 501 616 526 589 550 c 0
 549 586 494 606 436 606 c 0
 364 606 309 571 309 526 c 0
 309 508 318 492 334 480 c 0
 344 473 367 465 415 452 c 2
 541 419 l 2
 606 402 648 382 675 357 c 0
 712 323 731 278 731 228 c 0
 731 94 589 -13 410 -13 c 0
 327 -13 254 6 191 45 c 1
 169 0 l 1
 103 0 l 1
 59 256 l 1
 136 269 l 1
 182 140 267 75 390 75 c 0
 474 75 534 116 534 172 c 0
 534 194 524 216 508 230 c 0
 493 242 482 247 444 256 c 2
 314 287 l 2
 246 304 205 322 175 350 c 0
 142 380 122 428 122 477 c 0
 122 604 243 694 414 694 c 0
 492 694 565 676 631 638 c 1
 652 681 l 1
 715 681 l 1
EndSplineSet
KernsSLIF: 65 5 0 0 225 5 0 0 257 5 0 0 256 5 0 0 262 5 0 0 84 -10 0 0 86 -11 0 0 87 -11 0 0 89 -11 0 0 116 -9 0 0
EndChar
StartChar: T
Encoding: 84 84 53
Width: 700
Flags: W
HStem: 0 21G<148 536> 661 20G<171 753>
DStem: 364 600 538 600 285 168 459 168
Fore
538 600 m 1
 459 168 l 1
 458 161 456 139 456 129 c 0
 456 98 472 86 518 83 c 2
 550 81 l 1
 536 0 l 1
 148 0 l 1
 162 81 l 1
 195 83 l 2
 255 87 272 102 285 168 c 1
 364 600 l 1
 260 592 208 558 129 448 c 1
 70 477 l 1
 171 681 l 1
 753 681 l 1
 802 464 l 1
 730 448 l 1
 692 546 631 594 538 600 c 1
EndSplineSet
KernsSLIF: 65 -51 0 0 225 -52 0 0 257 -51 0 0 259 -51 0 0 256 -51 0 0 258 -51 0 0 262 -51 0 0 261 -51 0 0 67 8 0 0 71 8 0 0 74 -59 0 0 79 10 0 0 234 2 0 0 287 10 0 0 289 10 0 0 286 10 0 0 288 10 0 0 233 7 0 0 290 10 0 0 83 5 0 0 86 16 0 0 87 16 0 0 89 16 0 0 97 -35 0 0 241 1 0 0 99 -33 0 0 58 -22 0 0 44 -97 0 0 101 -34 0 0 103 -27 0 0 171 -29 0 0 172 -29 0 0 45 -84 0 0 105 19 0 0 106 12 0 0 111 -24 0 0 249 -22 0 0 46 -100 0 0 114 18 0 0 115 -9 0 0 59 -20 0 0 117 19 0 0 118 33 0 0 119 33 0 0 121 27 0 0
EndChar
StartChar: U
Encoding: 85 85 54
Width: 740
Flags: W
HStem: -13 100<362 426> 661 20G<127 475 586 855>
VStem: 122 185<147 188>
DStem: 183 513 357 513 130 220 315 278 642 513 738 513 598 270 687 232
Fore
571 600 m 1
 586 681 l 1
 855 681 l 1
 840 600 l 1
 818 598 l 2
 765 591 750 576 738 513 c 1
 687 232 l 1
 673 158 652 110 616 74 c 0
 561 19 467 -13 362 -13 c 0
 218 -13 122 51 122 147 c 0
 122 162 126 195 130 220 c 1
 183 513 l 2
 185 524 187 543 187 552 c 0
 187 580 170 595 134 598 c 2
 112 600 l 1
 127 681 l 1
 475 681 l 1
 460 600 l 1
 438 598 l 2
 385 591 370 576 357 513 c 1
 315 278 l 1
 311 260 307 209 307 188 c 0
 307 124 350 87 426 87 c 0
 478 87 529 107 554 138 c 0
 574 162 585 196 598 270 c 1
 642 513 l 1
 644 522 646 543 646 552 c 0
 646 580 629 595 593 598 c 2
 571 600 l 1
EndSplineSet
KernsSLIF: 65 -35 0 0 225 -35 0 0 257 -35 0 0 259 -35 0 0 256 -35 0 0 262 -35 0 0 261 -35 0 0 44 -49 0 0 109 -32 0 0 110 -32 0 0 112 -37 0 0 46 -52 0 0 114 -33 0 0
EndChar
StartChar: V
Encoding: 86 86 55
Width: 660
Flags: W
HStem: 0 21G<274 396> 661 20G<87 442 546 819>
Fore
274 0 m 1
 168 512 l 1
 154 577 147 585 80 598 c 0
 79 598 76 599 72 600 c 1
 87 681 l 1
 442 681 l 1
 428 600 l 1
 353 597 339 591 339 563 c 0
 339 556 340 545 342 537 c 1
 405 183 l 1
 575 506 l 1
 597 545 602 557 602 568 c 0
 602 585 588 591 531 600 c 1
 546 681 l 1
 819 681 l 1
 804 600 l 1
 739 592 715 575 671 499 c 1
 396 0 l 1
 274 0 l 1
EndSplineSet
KernsSLIF: 65 -70 0 0 225 -86 0 0 257 -70 0 0 259 -70 0 0 256 -70 0 0 258 -70 0 0 262 -70 0 0 261 -70 0 0 67 -18 0 0 71 -20 0 0 79 -19 0 0 287 -19 0 0 289 -19 0 0 286 -19 0 0 288 -19 0 0 233 -25 0 0 290 -19 0 0 83 4 0 0 84 24 0 0 97 -66 0 0 241 -49 0 0 58 -76 0 0 44 -94 0 0 101 -58 0 0 103 -63 0 0 171 -52 0 0 172 -52 0 0 45 -29 0 0 105 3 0 0 111 -54 0 0 249 -51 0 0 46 -97 0 0 114 -31 0 0 59 -74 0 0 117 -31 0 0 121 -23 0 0
EndChar
StartChar: W
Encoding: 87 87 56
Width: 1000
Flags: W
HStem: 0 21G<222 344 583 707> 661 20G<87 397 453 768 826 1090>
VStem: 512 165<535 561>
DStem: 150 506 318 530 222 0 364 209 529 380 679 530 583 0 725 209
Fore
222 0 m 1
 150 506 l 1
 140 572 129 585 72 600 c 1
 87 681 l 1
 397 681 l 1
 383 600 l 1
 328 597 316 589 316 556 c 0
 316 553 317 534 318 530 c 1
 364 209 l 1
 511 530 l 2
 512 532 512 534 512 535 c 0
 513 555 501 578 482 587 c 0
 474 591 465 594 439 600 c 1
 453 681 l 1
 768 681 l 1
 754 600 l 1
 742 599 l 2
 694 595 677 585 677 561 c 0
 677 558 677 558 679 530 c 1
 725 209 l 1
 871 530 l 2
 884 558 884 558 884 568 c 0
 884 586 871 593 823 598 c 2
 811 600 l 1
 826 681 l 1
 1090 681 l 1
 1075 600 l 1
 1001 592 990 582 945 482 c 1
 707 0 l 1
 583 0 l 1
 529 380 l 1
 344 0 l 1
 222 0 l 1
EndSplineSet
KernsSLIF: 65 -95 0 0 225 -103 0 0 257 -95 0 0 259 -95 0 0 256 -95 0 0 258 -95 0 0 262 -95 0 0 261 -95 0 0 67 -52 0 0 71 -55 0 0 79 -53 0 0 287 -53 0 0 289 -53 0 0 286 -53 0 0 288 -53 0 0 233 -58 0 0 290 -53 0 0 83 -30 0 0 84 -10 0 0 97 -88 0 0 241 -73 0 0 58 -100 0 0 44 -112 0 0 101 -80 0 0 103 -85 0 0 171 -74 0 0 172 -74 0 0 45 -52 0 0 105 -31 0 0 111 -77 0 0 249 -74 0 0 46 -115 0 0 114 -60 0 0 59 -97 0 0 117 -60 0 0 121 -52 0 0
EndChar
StartChar: X
Encoding: 88 88 57
Width: 740
Flags: W
HStem: 0 21G<-7 299 375 751> 661 20G<130 487 537 835>
DStem: 326 348 374 269 182 186 270 150 568 550 641 497 473 442 523 363
Fore
523 363 m 1
 627 180 l 1
 667 115 705 88 766 81 c 1
 751 0 l 1
 375 0 l 1
 390 81 l 1
 444 85 455 89 455 103 c 0
 455 110 450 122 440 143 c 1
 374 269 l 1
 270 150 l 2
 251 129 245 118 245 108 c 0
 245 94 258 88 303 82 c 2
 314 81 l 1
 299 0 l 1
 -7 0 l 1
 8 81 l 1
 94 102 104 108 182 186 c 1
 326 348 l 1
 241 500 l 1
 194 575 179 588 127 597 c 0
 125 598 120 599 115 600 c 1
 130 681 l 1
 487 681 l 1
 473 600 l 1
 423 598 406 592 406 576 c 0
 406 568 412 553 422 534 c 2
 473 442 l 1
 568 550 l 2
 581 564 585 572 585 579 c 0
 585 594 575 597 523 600 c 1
 537 681 l 1
 835 681 l 1
 820 600 l 1
 754 593 701 563 641 497 c 1
 523 363 l 1
EndSplineSet
KernsSLIF: 67 -42 0 0 79 -41 0 0 286 -41 0 0 81 -5 0 0 97 -27 0 0 101 -18 0 0 45 -55 0 0 111 -15 0 0 117 -28 0 0 121 -20 0 0
EndChar
StartChar: Y
Encoding: 89 89 58
Width: 660
Flags: W
HStem: 0 21G<141 502> 661 20G<87 440 531 817>
DStem: 199 476 348 550 288 286 425 369 564 545 617 475 425 369 459 286
Fore
459 286 m 1
 438 168 l 2
 436 156 434 139 434 129 c 0
 434 101 453 85 487 83 c 2
 517 81 l 1
 502 0 l 1
 141 0 l 1
 156 81 l 1
 187 83 l 1
 239 90 254 106 267 168 c 1
 288 286 l 1
 199 476 l 1
 153 570 138 585 81 597 c 0
 80 598 76 599 72 600 c 1
 87 681 l 1
 440 681 l 1
 425 600 l 1
 390 597 370 595 363 593 c 0
 350 590 341 582 341 573 c 0
 341 569 342 565 348 550 c 2
 425 369 l 1
 564 545 l 1
 583 567 583 568 583 576 c 0
 583 591 573 594 516 600 c 1
 531 681 l 1
 817 681 l 1
 802 600 l 1
 731 589 705 571 617 475 c 1
 459 286 l 1
EndSplineSet
KernsSLIF: 65 -48 0 0 225 -48 0 0 257 -48 0 0 259 -48 0 0 256 -48 0 0 258 -48 0 0 262 -48 0 0 261 -48 0 0 67 -19 0 0 71 -21 0 0 79 -20 0 0 287 -20 0 0 289 -20 0 0 286 -20 0 0 288 -20 0 0 233 -26 0 0 290 -20 0 0 83 3 0 0 84 23 0 0 97 -84 0 0 241 -67 0 0 58 -90 0 0 44 -90 0 0 101 -76 0 0 103 -81 0 0 171 -78 0 0 172 -78 0 0 45 -69 0 0 105 2 0 0 111 -72 0 0 249 -68 0 0 112 -49 0 0 46 -93 0 0 59 -88 0 0 117 -46 0 0 118 -32 0 0
EndChar
StartChar: Z
Encoding: 90 90 59
Width: 680
Flags: W
HStem: 0 80<326 616> 602 79<172 472>
DStem: 501 597 740 621 23 62 266 86
Fore
172 681 m 1
 720 681 l 1
 740 621 l 1
 266 86 l 1
 297 82 317 80 342 80 c 0
 480 80 574 136 643 258 c 1
 719 233 l 1
 616 0 l 1
 49 0 l 1
 23 62 l 1
 501 597 l 1
 480 601 469 602 450 602 c 0
 371 602 298 580 247 541 c 1
 220 522 197 496 158 445 c 1
 84 472 l 1
 172 681 l 1
EndSplineSet
KernsSLIF: 118 -6 0 0 121 -10 0 0
EndChar
StartChar: bracketleft
Encoding: 91 91 60
Width: 260
Flags: W
HStem: -145 78<184 219> 632 78<164 360>
DStem: 164 710 276 598 9 -145 165 -14
Fore
374 710 m 1
 360 632 l 1
 318 632 l 2
 284 632 282 630 276 598 c 1
 165 -14 l 2
 163 -25 161 -40 161 -45 c 0
 161 -62 169 -67 195 -67 c 2
 233 -67 l 1
 219 -145 l 1
 9 -145 l 1
 164 710 l 1
 374 710 l 1
EndSplineSet
EndChar
StartChar: backslash
Encoding: 92 92 61
Width: 580
Flags: W
HStem: 0 21G<439 575>
DStem: 73 741 211 741 439 0 575 0
Fore
575 0 m 1
 439 0 l 1
 73 741 l 1
 211 741 l 1
 575 0 l 1
EndSplineSet
EndChar
StartChar: bracketright
Encoding: 93 93 62
Width: 260
Flags: W
HStem: -145 78<-5 192>
DStem: 191 579 347 710 80 -33 192 -145
Fore
-18 -145 m 1
 -4 -67 l 1
 38 -67 l 2
 72 -67 74 -65 80 -33 c 1
 191 579 l 2
 193 590 195 605 195 610 c 0
 195 627 187 632 161 632 c 2
 123 632 l 1
 137 710 l 1
 347 710 l 1
 192 -145 l 1
 -18 -145 l 1
EndSplineSet
EndChar
StartChar: asciicircum
Encoding: 94 94 63
Width: 620
Flags: W
DStem: 301 722 344 568 92 318 211 318 344 568 386 722 475 318 594 318
Fore
594 318 m 1
 475 318 l 1
 344 568 l 1
 211 318 l 1
 92 318 l 1
 301 722 l 1
 386 722 l 1
 594 318 l 1
EndSplineSet
EndChar
StartChar: underscore
Encoding: 95 95 64
Width: 500
Flags: W
HStem: -155 60<0 500>
Fore
0 -95 m 1
 500 -95 l 1
 500 -155 l 1
 0 -155 l 1
 0 -95 l 1
EndSplineSet
EndChar
StartChar: quoteleft
Encoding: 96 8216 65
Width: 320
Flags: W
Fore
297 694 m 1
 332 662 l 1
 284 618 267 599 259 583 c 1
 271 583 l 2
 310 583 333 559 333 519 c 0
 333 465 281 416 225 416 c 0
 185 416 155 447 155 488 c 0
 155 556 212 638 297 694 c 1
EndSplineSet
KernsSLIF: 65 -95 1 0 225 -182 1 0 257 -96 1 0 256 -96 1 0 262 -96 1 0 84 -9 1 0 87 6 1 0 89 -4 1 0
EndChar
StartChar: a
Encoding: 97 97 66
Width: 680
Flags: W
HStem: -9 100<279 322> 432 88<382 409>
VStem: 84 169<180 204>
Fore
667 511 m 1
 609 189 l 1
 601 152 601 151 601 139 c 0
 601 116 617 99 639 99 c 0
 655 99 670 106 692 123 c 1
 735 70 l 1
 680 18 623 -9 567 -9 c 0
 503 -9 460 19 446 70 c 1
 403 19 343 -9 279 -9 c 0
 166 -9 84 80 84 204 c 0
 84 374 222 520 382 520 c 0
 432 520 482 503 518 473 c 1
 525 511 l 1
 667 511 l 1
494 400 m 1
 459 422 434 432 409 432 c 0
 373 432 338 411 311 373 c 0
 278 328 253 245 253 182 c 0
 253 126 280 91 322 91 c 0
 360 91 394 117 425 170 c 0
 450 213 465 264 494 400 c 1
EndSplineSet
KernsSLIF: 106 -16 0 0 39 -43 0 0 118 -2 0 0 119 -2 0 0 121 -7 0 0
EndChar
StartChar: b
Encoding: 98 98 67
Width: 600
Flags: W
HStem: -9 88<303 337> 424 96<395 427> 612 82<102 108>
VStem: 465 168<305 333>
Fore
328 732 m 1
 276 447 l 1
 310 494 364 520 427 520 c 0
 546 520 633 429 633 305 c 0
 633 143 490 -9 337 -9 c 0
 295 -9 250 6 201 35 c 1
 195 0 l 1
 57 0 l 1
 155 539 l 2
 158 556 160 571 160 577 c 0
 160 585 157 593 154 596 c 0
 145 604 119 612 102 612 c 2
 91 612 l 1
 106 694 l 1
 172 694 241 708 295 732 c 1
 328 732 l 1
235 110 m 1
 236 109 237 108 238 108 c 1
 254 91 280 79 303 79 c 0
 332 79 366 94 386 116 c 0
 433 165 465 255 465 333 c 0
 465 388 437 424 395 424 c 0
 365 424 337 406 315 374 c 0
 274 313 253 246 235 110 c 1
EndSplineSet
KernsSLIF: 118 -1 0 0 119 -1 0 0 121 -6 0 0
EndChar
StartChar: c
Encoding: 99 99 68
Width: 560
Flags: W
HStem: -9 96<292 329> 442 78<377 402>
VStem: 58 168<193 216> 433 164<391 406>
Fore
517 171 m 1
 570 113 l 1
 504 41 390 -9 292 -9 c 0
 153 -9 58 78 58 206 c 0
 58 372 220 520 402 520 c 0
 510 520 597 463 597 391 c 0
 597 342 552 301 499 301 c 0
 457 301 425 327 425 361 c 0
 425 367 426 373 429 385 c 0
 432 393 433 400 433 406 c 0
 433 427 413 442 386 442 c 0
 306 442 226 319 226 195 c 0
 226 126 263 87 329 87 c 0
 387 87 445 113 517 171 c 1
EndSplineSet
KernsSLIF: 104 -26 0 0 107 -28 0 0
EndChar
StartChar: d
Encoding: 100 100 69
Width: 680
Flags: W
HStem: -9 96<257 298> 432 88<359 382> 612 82<437 445>
VStem: 60 168<182 208>
Fore
671 129 m 1
 714 72 l 1
 665 22 599 -9 542 -9 c 0
 478 -9 435 20 422 72 c 1
 382 35 l 1
 349 8 301 -9 257 -9 c 0
 144 -9 60 83 60 206 c 0
 60 372 200 520 359 520 c 0
 398 520 444 507 480 486 c 1
 489 539 l 1
 492 555 494 570 494 577 c 0
 494 585 491 593 488 596 c 0
 479 604 453 612 437 612 c 2
 425 612 l 1
 440 694 l 1
 506 694 575 708 629 732 c 1
 686 732 l 1
 591 209 l 1
 586 179 583 156 583 141 c 0
 583 119 599 103 620 103 c 0
 636 103 638 104 666 125 c 2
 666 125 669 127 671 129 c 1
461 404 m 2
 459 406 l 2
 439 422 410 432 382 432 c 0
 340 432 306 411 278 366 c 0
 249 322 228 244 228 185 c 0
 228 123 254 87 298 87 c 0
 327 87 356 105 383 139 c 0
 418 184 437 247 464 402 c 1
 463 403 463 403 461 404 c 2
EndSplineSet
EndChar
StartChar: e
Encoding: 101 101 70
Width: 560
Flags: W
HStem: -9 96<295 328> 222 70<246 284> 442 78<391 420>
VStem: 59 170<180 203> 448 148<383 399>
Fore
516 174 m 1
 570 115 l 1
 552 95 531 79 499 58 c 0
 426 11 364 -9 295 -9 c 0
 155 -9 59 78 59 203 c 0
 59 376 223 520 420 520 c 0
 526 520 596 471 596 397 c 0
 596 337 557 289 485 261 c 0
 418 235 343 222 258 222 c 0
 254 222 243 222 232 223 c 1
 230 206 229 193 229 180 c 0
 229 124 268 87 328 87 c 0
 388 87 447 115 516 174 c 1
246 292 m 1
 258 292 l 2
 362 292 448 338 448 394 c 0
 448 422 425 442 392 442 c 0
 356 442 320 421 291 383 c 0
 268 354 252 321 246 292 c 1
EndSplineSet
KernsSLIF: 39 -18 0 0 116 -20 0 0 118 6 0 0 119 6 0 0 120 5 0 0
EndChar
StartChar: f
Encoding: 102 102 71
Width: 420
Flags: W
HStem: -208 156<-105 -63> 421 90<134 203 377 456> 600 145<509 566> 657 88<460 509>
DStem: 203 421 361 421 151 136 328 242
Fore
361 421 m 1xd0
 328 242 l 1
 296 66 288 36 261 -15 c 0
 196 -138 78 -208 -63 -208 c 0
 -145 -208 -192 -180 -192 -130 c 0
 -192 -87 -153 -52 -105 -52 c 0
 -81 -52 -61 -62 -41 -83 c 0
 -17 -108 -11 -112 10 -112 c 0
 46 -112 79 -87 103 -42 c 0
 120 -9 134 41 151 136 c 1
 203 421 l 1
 119 421 l 1
 135 511 l 1
 219 511 l 1
 244 658 351 745 509 745 c 0
 591 745 641 714 641 664 c 0
 641 627 609 600 566 600 c 0xe0
 532 600 515 609 493 639 c 0
 483 653 476 657 460 657 c 0
 419 657 398 626 384 547 c 1
 377 511 l 1
 473 511 l 1
 456 421 l 1
 361 421 l 1xd0
EndSplineSet
KernsSLIF: 97 -48 0 0 323 -49 0 0 322 -12 0 0 241 -19 0 0 328 -47 0 0 101 -40 0 0 335 -42 0 0 102 6 0 0 105 34 0 0 106 26 0 0 108 59 0 0 111 -36 0 0 352 -38 0 0 351 12 0 0 250 -31 0 0 249 -33 0 0 39 31 0 0 115 -28 0 0 116 -17 0 0
EndChar
StartChar: g
Encoding: 103 103 72
Width: 620
Flags: W
HStem: -208 92<237 262> -9 100<276 323> 438 82<373 406>
VStem: 79 173<184 209>
Fore
669 511 m 1
 594 99 l 2
 570 -32 546 -84 484 -131 c 0
 421 -180 331 -208 237 -208 c 0
 112 -208 21 -161 21 -97 c 0
 21 -56 59 -24 108 -24 c 0
 138 -24 162 -39 176 -68 c 0
 190 -94 191 -96 207 -104 c 0
 221 -112 239 -116 257 -116 c 0
 303 -116 348 -94 376 -57 c 0
 399 -28 412 4 434 81 c 1
 426 74 l 1
 385 32 377 24 360 14 c 0
 335 -2 309 -9 276 -9 c 0
 163 -9 79 81 79 204 c 0
 79 369 219 520 373 520 c 0
 420 520 449 511 497 483 c 2
 506 478 l 1
 512 511 l 1
 669 511 l 1
473 308 m 1
 492 401 l 1
 450 431 433 438 406 438 c 0
 368 438 333 417 309 382 c 0
 275 330 252 253 252 186 c 0
 252 126 278 91 323 91 c 0
 388 91 448 177 473 308 c 1
EndSplineSet
KernsSLIF: 97 -8 0 0 322 -9 0 0 241 5 0 0 328 -9 0 0 335 -1 0 0 108 -14 0 0 352 1 0 0 351 1 0 0 114 -4 0 0
EndChar
StartChar: h
Encoding: 104 104 73
Width: 700
Flags: W
HStem: 0 21G<93 251> 500 20G<472 545> 612 82<139 144>
VStem: 439 163<93 127>
DStem: 191 539 320 379 93 0 251 0
Fore
93 0 m 1
 191 539 l 2
 194 556 196 570 196 577 c 0
 196 585 193 593 190 596 c 0
 181 604 155 612 139 612 c 2
 127 612 l 1
 142 694 l 1
 208 694 277 708 331 732 c 1
 384 732 l 1
 336 468 l 1
 387 502 443 520 501 520 c 0
 589 520 649 473 649 404 c 0
 649 399 648 389 646 379 c 2
 609 177 l 1
 603 142 602 135 602 127 c 0
 602 111 616 99 635 99 c 0
 652 99 672 105 694 118 c 1
 736 61 l 1
 688 18 624 -9 567 -9 c 0
 490 -9 439 32 439 93 c 0
 439 110 439 110 448 160 c 2
 476 312 l 1
 480 337 483 356 483 364 c 0
 483 390 457 408 419 408 c 0
 387 408 346 396 320 379 c 1
 251 0 l 1
 93 0 l 1
EndSplineSet
KernsSLIF: 39 -65 0 0 121 -16 0 0
EndChar
StartChar: i
Encoding: 105 105 74
Width: 380
Flags: W
HStem: -9 108<241 314> 491 20G<290 342> 569 193<262 297>
DStem: 150 321 342 511 117 139 285 195
Fore
378 121 m 1
 420 65 l 1
 365 18 299 -9 241 -9 c 0
 163 -9 111 31 111 90 c 0
 111 104 112 116 117 139 c 1
 150 321 l 1
 152 334 154 351 154 358 c 0
 154 367 152 374 148 378 c 0
 139 385 112 394 95 394 c 2
 83 394 l 1
 98 476 l 1
 173 480 214 487 290 511 c 1
 342 511 l 1
 285 195 l 1
 282 181 281 172 280 168 c 0
 277 154 275 141 275 134 c 0
 275 115 293 99 314 99 c 0
 327 99 350 107 378 121 c 1
297 762 m 0
 345 762 377 729 377 682 c 0
 377 625 320 569 262 569 c 0
 216 569 184 602 184 649 c 0
 184 707 240 762 297 762 c 0
EndSplineSet
KernsSLIF: 84 -41 0 0 106 -21 0 0
EndChar
StartChar: j
Encoding: 106 106 75
Width: 320
Flags: W
HStem: -208 82<-5 26> 491 20G<305 357> 569 193<277 312>
VStem: 199 193<649 682>
DStem: 164 320 357 511 106 0 270 34
Fore
98 394 m 1
 113 476 l 1
 188 480 229 487 305 511 c 1
 357 511 l 1
 270 34 l 1
 252 -69 233 -108 184 -147 c 0
 136 -185 66 -208 -5 -208 c 0
 -95 -208 -160 -173 -160 -125 c 0
 -160 -88 -125 -54 -88 -54 c 0
 -61 -54 -35 -70 -12 -100 c 0
 2 -120 11 -126 26 -126 c 0
 51 -126 73 -111 83 -88 c 0
 89 -77 101 -28 106 0 c 2
 164 320 l 2
 167 336 169 351 169 358 c 0
 169 366 166 374 163 378 c 1
 154 385 127 394 110 394 c 2
 98 394 l 1
312 762 m 0
 360 762 392 729 392 682 c 0
 392 625 335 569 277 569 c 0
 231 569 199 602 199 649 c 0
 199 707 255 762 312 762 c 0
EndSplineSet
EndChar
StartChar: k
Encoding: 107 107 76
Width: 700
Flags: W
HStem: -9 117<540 620> 412 108<576 650> 612 82<143 148>
DStem: 195 539 388 732 97 0 303 261
Fore
97 0 m 1
 195 539 l 2
 198 556 200 570 200 577 c 0
 200 585 197 593 194 596 c 0
 185 604 159 612 143 612 c 2
 131 612 l 1
 146 694 l 1
 212 694 281 708 335 732 c 1
 388 732 l 1
 303 261 l 1
 356 345 400 395 457 438 c 0
 530 493 593 520 650 520 c 0
 698 520 732 493 732 456 c 0
 732 414 701 383 656 383 c 0
 632 383 619 388 595 404 c 0
 587 410 582 412 576 412 c 0
 555 412 533 397 497 360 c 1
 512 235 525 187 555 146 c 0
 575 119 594 108 620 108 c 0
 637 108 645 111 676 127 c 2
 685 132 l 1
 727 73 l 1
 691 32 597 -9 540 -9 c 0
 488 -9 441 17 405 65 c 0
 367 115 355 159 356 243 c 1
 340 224 329 210 319 194 c 0
 305 169 295 146 289 124 c 2
 258 11 l 1
 255 0 l 1
 97 0 l 1
EndSplineSet
KernsSLIF: 97 -28 0 0 323 -28 0 0 322 -28 0 0 241 8 0 0 328 -28 0 0 44 -9 0 0 101 -18 0 0 335 -18 0 0 103 -29 0 0 45 -35 0 0 111 -16 0 0 352 -16 0 0 351 -16 0 0 46 -12 0 0 115 11 0 0 117 -13 0 0 362 -13 0 0
EndChar
StartChar: l
Encoding: 108 108 77
Width: 380
Flags: W
HStem: -9 108<239 312> 612 82<137 142>
DStem: 189 539 383 732 113 117 279 160
Fore
370 117 m 1
 410 57 l 1
 355 14 296 -9 239 -9 c 0
 161 -9 109 28 109 84 c 0
 109 91 110 103 113 117 c 1
 189 539 l 1
 192 551 194 571 194 577 c 0
 194 585 191 593 188 596 c 0
 179 604 154 612 137 612 c 2
 126 612 l 1
 140 694 l 1
 206 694 276 708 329 732 c 1
 383 732 l 1
 279 160 l 2
 277 150 276 141 276 134 c 0
 276 114 292 99 312 99 c 0
 327 99 346 105 370 117 c 1
EndSplineSet
KernsSLIF: 118 -15 0 0 121 -20 0 0
EndChar
StartChar: m
Encoding: 109 109 78
Width: 960
Flags: W
HStem: 0 21G<91 249 389 547> 491 20G<290 342>
VStem: 749 166<365 411>
DStem: 150 321 320 389 91 0 249 0 445 305 617 385 389 0 547 0 743 317 911 370 710 136 873 162
Fore
91 0 m 1
 150 321 l 1
 152 334 154 351 154 358 c 0
 154 367 152 374 148 378 c 0
 139 385 112 394 95 394 c 2
 83 394 l 1
 98 476 l 1
 173 480 214 487 290 511 c 1
 342 511 l 1
 335 472 l 1
 373 502 429 520 481 520 c 0
 529 520 578 500 603 472 c 1
 656 502 715 520 766 520 c 0
 855 520 915 476 915 411 c 0
 915 401 913 384 911 370 c 1
 873 162 l 2
 871 152 870 144 870 137 c 0
 870 115 885 99 908 99 c 0
 922 99 936 103 954 113 c 1
 996 56 l 1
 951 15 891 -9 832 -9 c 0
 754 -9 705 29 705 90 c 0
 705 106 706 112 710 136 c 1
 743 317 l 1
 749 359 749 359 749 365 c 0
 749 389 722 408 686 408 c 0
 661 408 643 402 617 385 c 1
 547 0 l 1
 389 0 l 1
 445 305 l 1
 445 309 447 317 449 329 c 0
 452 340 453 351 453 358 c 0
 453 388 430 408 394 408 c 0
 369 408 343 401 320 389 c 1
 249 0 l 1
 91 0 l 1
EndSplineSet
KernsSLIF: 112 -19 0 0 118 -12 0 0 119 -12 0 0 121 -17 0 0
EndChar
StartChar: n
Encoding: 110 110 79
Width: 680
Flags: W
HStem: 0 21G<91 249> 491 20G<290 342>
VStem: 432 165<89 133>
DStem: 150 321 317 373 91 0 249 0 476 341 636 358 437 134 605 183
Fore
249 0 m 1
 91 0 l 1
 150 321 l 1
 152 334 154 351 154 358 c 0
 154 367 152 374 148 378 c 0
 139 385 112 394 95 394 c 2
 83 394 l 1
 98 476 l 1
 173 480 214 487 290 511 c 1
 342 511 l 1
 333 460 l 1
 376 496 442 520 499 520 c 0
 583 520 643 475 643 412 c 0
 643 398 642 387 636 358 c 1
 605 183 l 1
 597 142 597 142 597 133 c 0
 597 112 611 99 634 99 c 0
 647 99 655 102 676 115 c 1
 715 59 l 1
 658 12 609 -9 557 -9 c 0
 483 -9 432 31 432 89 c 0
 432 100 434 116 437 134 c 1
 476 341 l 2
 477 347 477 349 477 359 c 0
 477 390 454 408 416 408 c 0
 381 408 345 395 317 373 c 1
 249 0 l 1
EndSplineSet
KernsSLIF: 84 -47 0 0 112 -22 0 0 39 -55 0 0 118 -13 0 0 119 -13 0 0 121 -18 0 0
EndChar
StartChar: o
Encoding: 111 111 80
Width: 600
Flags: W
HStem: -9 88<298 316> 432 88<364.141 396>
VStem: 59 173<165 195> 459 168<308 337>
Fore
384 520 m 0
 540 520 627 444 627 308 c 0
 627 233 590 143 537 87 c 0
 479 25 395 -9 301 -9 c 0
 152 -9 59 70 59 195 c 0
 59 284 99 379 162 439 c 0
 217 491 296 520 384 520 c 0
380 432 m 0
 335 432 305 410 278 358 c 0
 254 312 232 220 232 165 c 0
 232 111 260 79 309 79 c 0
 353 79 388 104 413 153 c 0
 436 197 459 289 459 337 c 0
 459 403 435 432 380 432 c 0
EndSplineSet
KernsSLIF: 84 -39 0 0 39 -34 0 0 116 -23 0 0 118 -4 0 0 119 -4 0 0 120 -16 0 0 121 -9 0 0
EndChar
StartChar: p
Encoding: 112 112 81
Width: 660
Flags: W
HStem: -213 82<-10 312> -9 88<366 388> 424 96<447 491>
VStem: 513 169<306 332>
Fore
262 27 m 1
 244 -69 l 2
 243 -75 242 -82 242 -88 c 0
 241 -116 260 -131 300 -131 c 2
 327 -131 l 1
 312 -213 l 1
 -24 -213 l 1
 -9 -131 l 1
 8 -131 l 2
 29 -131 55 -123 66 -113 c 0
 75 -106 83 -87 86 -69 c 1
 157 321 l 2
 161 343 162 349 162 358 c 0
 162 366 159 374 156 378 c 1
 147 385 119 394 103 394 c 2
 90 394 l 1
 105 476 l 1
 180 480 222 487 297 511 c 1
 350 511 l 1
 339 451 l 1
 391 501 433 520 491 520 c 0
 603 520 682 432 682 308 c 0
 682 140 543 -9 388 -9 c 0
 345 -9 307 2 262 27 c 1
278 110 m 1
 304 91 337 79 368 79 c 0
 410 79 445 105 472 158 c 0
 496 203 513 272 513 323 c 0
 513 389 490 424 447 424 c 0
 404 424 361 382 332 312 c 0
 315 271 299 210 278 110 c 1
EndSplineSet
KernsSLIF: 116 -24 0 0 121 -10 0 0
EndChar
StartChar: q
Encoding: 113 113 82
Width: 620
Flags: W
HStem: -213 82<270 593> -9 96<255 301> 432 88<359 382>
VStem: 60 173<182 208>
Fore
640 511 m 1
 535 -69 l 2
 534 -75 533 -82 533 -88 c 0
 533 -106 539 -118 550 -123 c 0
 560 -127 578 -131 591 -131 c 2
 607 -131 l 1
 593 -213 l 1
 257 -213 l 1
 271 -131 l 1
 298 -131 l 2
 320 -131 346 -123 357 -113 c 0
 365 -106 373 -87 377 -69 c 1
 401 63 l 1
 360 12 318 -9 255 -9 c 0
 142 -9 60 81 60 206 c 0
 60 369 203 520 359 520 c 0
 412 520 464 502 495 473 c 1
 502 511 l 1
 640 511 l 1
463 405 m 1
 461 406 l 1
 460 407 l 2
 444 420 408 432 382 432 c 0
 346 432 314 413 287 374 c 0
 256 330 233 247 233 183 c 0
 233 122 258 87 301 87 c 0
 338 87 378 119 402 167 c 0
 431 225 446 284 463 405 c 1
EndSplineSet
KernsSLIF: 99 -12 0 0 117 -18 0 0
EndChar
StartChar: r
Encoding: 114 114 83
Width: 500
Flags: W
HStem: 0 21G<92 250> 359 161<482 501>
Fore
92 0 m 1
 151 321 l 1
 153 334 155 351 155 358 c 0
 155 367 153 374 149 378 c 0
 140 385 113 394 96 394 c 2
 84 394 l 1
 99 476 l 1
 174 480 215 487 291 511 c 1
 343 511 l 1
 329 435 l 1
 374 491 428 520 484 520 c 0
 541 520 582 487 582 442 c 0
 582 395 543 359 492 359 c 0
 468 359 452 365 428 383 c 0
 415 393 409 396 399 396 c 0
 380 396 357 379 341 355 c 0
 321 323 312 297 295 227 c 0
 287 193 276 139 271 112 c 2
 250 0 l 1
 92 0 l 1
EndSplineSet
KernsSLIF: 97 -20 0 0 323 -20 0 0 325 -20 0 0 322 -20 0 0 241 5 0 0 324 -20 0 0 328 -20 0 0 99 -12 0 0 332 -9 0 0 58 -27 0 0 44 -115 0 0 100 -9 0 0 101 -13 0 0 335 -13 0 0 337 -13 0 0 336 -13 0 0 102 -2 0 0 103 -15 0 0 104 -28 0 0 45 -22 0 0 105 13 0 0 106 5 0 0 107 -30 0 0 108 -27 0 0 109 12 0 0 110 12 0 0 111 -9 0 0 352 -9 0 0 354 -9 0 0 351 -9 0 0 250 -3 0 0 353 -9 0 0 249 -7 0 0 112 8 0 0 46 -118 0 0 113 -10 0 0 39 2 0 0 114 12 0 0 115 -1 0 0 59 -25 0 0 116 4 0 0 117 12 0 0 118 26 0 0 119 27 0 0 120 1 0 0 121 20 0 0 122 10 0 0
EndChar
StartChar: s
Encoding: 115 115 84
Width: 540
Flags: W
HStem: -9 82<255 273> 438 82<351 369>
VStem: 97 193<338 385> 357 197<138 183>
Fore
358 328 m 2
 437 303 l 2
 470 293 493 282 510 270 c 0
 536 251 554 216 554 183 c 0
 554 75 428 -9 265 -9 c 0
 191 -9 118 9 71 39 c 0
 46 55 32 78 32 103 c 0
 32 137 60 163 98 163 c 0
 134 163 154 151 192 108 c 0
 213 83 235 73 267 73 c 0
 318 73 357 100 357 138 c 0
 357 164 343 176 299 189 c 2
 228 209 l 2
 138 235 97 275 97 338 c 0
 97 444 206 520 357 520 c 0
 478 520 573 474 573 416 c 0
 573 385 546 361 512 361 c 0
 480 361 462 371 433 407 c 0
 414 430 395 438 360 438 c 0
 318 438 290 417 290 385 c 0
 290 372 295 359 304 352 c 1
 313 343 318 341 358 328 c 2
EndSplineSet
KernsSLIF: 39 -25 0 0 116 -19 0 0
EndChar
StartChar: t
Encoding: 116 116 85
Width: 440
Flags: W
HStem: -9 108<248 315> 421 90<350 472>
DStem: 175 421 333 421 126 147 284 152
Fore
333 421 m 1
 284 152 l 1
 283 144 282 135 282 130 c 0
 282 111 295 99 315 99 c 0
 336 99 387 122 421 147 c 1
 463 80 l 1
 406 25 324 -9 248 -9 c 0
 165 -9 118 27 118 90 c 0
 118 101 120 115 126 147 c 1
 175 421 l 1
 106 421 l 1
 118 487 l 1
 208 511 253 557 287 659 c 1
 377 659 l 1
 350 511 l 1
 488 511 l 1
 472 421 l 1
 333 421 l 1
EndSplineSet
KernsSLIF: 83 -9 0 0 97 -28 0 0 323 -28 0 0 322 -28 0 0 241 6 0 0 328 -28 0 0 58 -27 0 0 101 -18 0 0 335 -18 0 0 104 -26 0 0 111 -15 0 0 352 -15 0 0 351 -15 0 0 39 -30 0 0 59 -24 0 0
EndChar
StartChar: u
Encoding: 117 117 86
Width: 680
Flags: W
HStem: -9 108<561 636> 491 20G<290 342 508 666>
DStem: 150 321 342 511 117 142 287 205 508 511 666 511 441 142 609 195
Fore
666 511 m 1
 609 195 l 1
 602 159 601 151 601 139 c 0
 601 117 617 99 636 99 c 0
 649 99 658 104 681 122 c 1
 720 64 l 1
 679 19 618 -9 561 -9 c 0
 499 -9 461 13 443 57 c 1
 367 8 320 -9 260 -9 c 0
 174 -9 113 35 113 97 c 0
 113 107 115 132 117 142 c 2
 150 321 l 1
 152 334 154 351 154 358 c 0
 154 367 152 374 148 378 c 0
 139 385 112 394 95 394 c 2
 83 394 l 1
 98 476 l 1
 173 480 214 487 290 511 c 1
 342 511 l 1
 287 205 l 1
 281 162 281 160 281 151 c 0
 281 124 308 103 343 103 c 0
 376 103 409 116 441 142 c 1
 508 511 l 1
 666 511 l 1
EndSplineSet
KernsSLIF: 39 -43 0 0
EndChar
StartChar: v
Encoding: 118 118 87
Width: 540
Flags: W
HStem: -9 117<239 307> 491 20G<263 315>
VStem: 86 168<102 158> 393 179<394 431>
DStem: 123 321 315 511 89 136 259 203
Fore
56 394 m 1
 71 476 l 1
 146 480 187 487 263 511 c 1
 315 511 l 1
 259 203 l 2
 256 187 254 167 254 158 c 0
 254 129 277 108 307 108 c 0
 344 108 389 139 418 184 c 0
 439 218 450 255 450 295 c 0
 450 334 445 348 423 370 c 0
 401 392 393 408 393 431 c 0
 393 481 434 520 487 520 c 0
 538 520 572 469 572 394 c 0
 572 276 518 145 440 74 c 0
 382 21 309 -9 239 -9 c 0
 144 -9 86 33 86 102 c 0
 86 114 87 125 89 136 c 2
 123 321 l 1
 125 334 127 351 127 358 c 0
 127 367 125 374 121 378 c 0
 112 385 85 394 68 394 c 2
 56 394 l 1
EndSplineSet
KernsSLIF: 97 -15 0 0 323 -15 0 0 325 -15 0 0 322 -15 0 0 241 -5 0 0 324 -15 0 0 328 -15 0 0 327 -15 0 0 99 -6 0 0 58 -36 0 0 44 -40 0 0 101 -7 0 0 335 -7 0 0 337 -7 0 0 336 -7 0 0 103 -14 0 0 45 24 0 0 108 -23 0 0 111 -4 0 0 352 -4 0 0 351 -4 0 0 353 -4 0 0 249 -2 0 0 46 -43 0 0 115 -5 0 0 59 -34 0 0
EndChar
StartChar: w
Encoding: 119 119 88
Width: 860
Flags: W
HStem: -9 112<552 634> 491 20G<263 315 470 628>
VStem: 85 166<105 148> 696 195<377 429>
DStem: 123 321 315 511 87 123 256 186 470 511 628 511 400 123 570 190
Fore
400 123 m 1
 470 511 l 1
 628 511 l 1
 570 190 l 1
 567 175 566 167 566 161 c 0
 566 128 595 103 634 103 c 0
 704 103 764 188 764 286 c 0
 764 328 759 338 721 375 c 0
 705 391 696 411 696 429 c 0
 696 478 740 520 792 520 c 0
 852 520 891 464 891 377 c 0
 891 263 838 142 757 68 c 0
 704 21 625 -9 552 -9 c 0
 490 -9 450 7 412 48 c 1
 353 10 294 -9 232 -9 c 0
 148 -9 85 40 85 105 c 0
 85 111 86 117 87 123 c 2
 123 321 l 1
 125 334 127 351 127 358 c 0
 127 367 125 374 121 378 c 0
 112 385 85 394 68 394 c 2
 56 394 l 1
 71 476 l 1
 146 480 187 487 263 511 c 1
 315 511 l 1
 256 186 l 1
 252 161 251 155 251 148 c 0
 251 119 277 99 315 99 c 0
 342 99 377 109 400 123 c 1
EndSplineSet
KernsSLIF: 97 -14 0 0 323 -14 0 0 325 -14 0 0 322 -14 0 0 241 -4 0 0 324 -14 0 0 328 -14 0 0 327 -14 0 0 99 -4 0 0 58 -36 0 0 44 -37 0 0 101 -5 0 0 335 -5 0 0 337 -5 0 0 336 -5 0 0 103 -13 0 0 45 25 0 0 108 -22 0 0 111 -3 0 0 352 -3 0 0 351 -3 0 0 353 -3 0 0 249 -1 0 0 46 -40 0 0 115 -4 0 0 59 -33 0 0
EndChar
StartChar: x
Encoding: 120 120 89
Width: 620
Flags: W
HStem: -9 117<455 524> -9 134<73 104> 390 130<573 587>
Fore
105 395 m 1x60
 120 476 l 1
 190 479 217 485 279 511 c 1
 332 511 l 1
 356 420 367 387 381 353 c 1
 450 458 525 520 585 520 c 0
 625 520 654 495 654 460 c 0
 654 422 617 390 575 390 c 0
 570 390 564 390 558 391 c 0
 549 392 541 393 536 393 c 0
 502 393 455 347 407 269 c 1
 459 141 483 108 524 108 c 0
 544 108 560 116 591 140 c 1
 635 82 l 1
 564 18 511 -9 455 -9 c 0xa0
 401 -9 355 18 319 71 c 0
 304 94 291 120 270 173 c 1
 224 88 217 78 186 47 c 0
 149 11 110 -9 77 -9 c 0
 37 -9 10 17 10 58 c 0
 10 88 29 115 56 122 c 0
 66 125 72 125 104 125 c 1
 144 119 196 176 236 267 c 1
 184 390 183 391 105 395 c 1x60
EndSplineSet
KernsSLIF: 97 -32 0 0 99 -22 0 0 101 -22 0 0 335 -22 0 0 111 -20 0 0 113 -21 0 0
EndChar
StartChar: y
Encoding: 121 121 90
Width: 600
Flags: W
HStem: -204 88<224 250> -9 112<238 315> 491 20G<274 326 484 642>
VStem: 97 165<99 155>
DStem: 133 321 326 511 102 148 270 202 484 511 642 511 418 148 567 97
Fore
642 511 m 1
 567 97 l 2
 541 -47 515 -97 441 -144 c 0
 380 -184 306 -204 224 -204 c 0
 110 -204 25 -160 25 -101 c 0
 25 -61 59 -30 103 -30 c 0
 120 -30 137 -35 149 -44 c 0
 156 -49 156 -49 174 -80 c 0
 188 -104 213 -116 248 -116 c 0
 298 -116 346 -85 373 -34 c 0
 387 -9 394 12 400 48 c 1
 391 42 l 2
 332 5 289 -9 238 -9 c 0
 158 -9 97 38 97 99 c 0
 97 113 99 129 102 148 c 1
 133 321 l 1
 136 336 138 350 138 358 c 0
 138 366 135 374 132 378 c 1
 124 385 95 394 79 394 c 2
 67 394 l 1
 82 476 l 1
 157 480 198 487 274 511 c 1
 326 511 l 1
 270 202 l 1
 268 192 267 184 265 179 c 0
 263 169 262 160 262 155 c 0
 262 125 285 103 315 103 c 0
 350 103 394 122 418 148 c 1
 484 511 l 1
 642 511 l 1
EndSplineSet
KernsSLIF: 97 -9 0 0 323 -9 0 0 325 -9 0 0 322 -9 0 0 241 4 0 0 324 -9 0 0 328 -9 0 0 327 -9 0 0 58 -27 0 0 44 -16 0 0 103 -7 0 0 45 18 0 0 108 -16 0 0 111 2 0 0 352 2 0 0 351 2 0 0 353 2 0 0 249 5 0 0 46 -19 0 0 115 3 0 0 59 -24 0 0
EndChar
StartChar: z
Encoding: 122 122 91
Width: 560
Flags: W
HStem: -9 92<314 401> 432 88<273 310>
DStem: 371 422 586 431 36 79 253 91
Fore
586 431 m 1
 253 91 l 1
 274 85 289 83 314 83 c 0
 348 83 378 90 399 101 c 0
 414 109 415 112 423 134 c 0
 436 169 465 191 499 191 c 0
 539 191 570 160 570 120 c 0
 570 50 492 -9 401 -9 c 0
 387 -9 364 -8 337 -5 c 0
 278 1 193 5 143 5 c 0
 116 5 113 5 64 -1 c 1
 36 79 l 1
 371 422 l 1
 352 430 336 432 308 432 c 0
 262 432 244 421 229 383 c 0
 213 343 184 319 149 319 c 0
 112 319 87 348 87 390 c 0
 87 465 166 520 273 520 c 0
 308 520 341 518 423 509 c 0
 477 504 503 502 534 502 c 2
 563 502 l 1
 586 431 l 1
EndSplineSet
EndChar
StartChar: braceleft
Encoding: 123 123 92
Width: 300
Flags: W
VStem: 108 131<182 202>
DStem: 105 152 236 170 75 -20 204 -10 183 598 306 568 149 403 274 388
Fore
306 568 m 1
 274 388 l 1
 263 318 242 298 162 282 c 1
 216 270 239 245 239 202 c 0
 239 192 238 181 236 170 c 2
 204 -10 l 1
 204 -16 l 2
 204 -49 223 -65 268 -73 c 1
 256 -145 l 1
 154 -144 154 -144 132 -140 c 0
 92 -132 70 -104 70 -60 c 0
 70 -49 71 -40 75 -20 c 1
 105 152 l 2
 107 163 108 175 108 182 c 0
 108 212 88 234 53 243 c 1
 67 321 l 1
 110 332 140 361 149 403 c 1
 183 598 l 1
 194 649 213 676 251 694 c 0
 276 706 291 709 334 709 c 2
 368 710 l 1
 409 710 l 1
 396 638 l 1
 338 626 315 609 306 568 c 1
EndSplineSet
EndChar
StartChar: bar
Encoding: 124 124 93
Width: 620
Flags: W
HStem: 0 21G<303 422>
VStem: 303 119<0 722>
Fore
422 722 m 1
 422 0 l 1
 303 0 l 1
 303 722 l 1
 422 722 l 1
EndSplineSet
EndChar
StartChar: braceright
Encoding: 125 125 94
Width: 300
Flags: W
VStem: 166 131<363 383>
DStem: 131 177 256 162 99 -3 222 -33 201 575 330 585 169 395 300 413
Fore
99 -3 m 1
 131 177 l 1
 142 247 163 267 243 283 c 1
 189 295 166 320 166 363 c 0
 166 373 167 384 169 395 c 2
 201 575 l 1
 201 581 l 2
 201 614 182 630 137 638 c 1
 149 710 l 1
 251 710 251 710 273 705 c 0
 313 698 335 669 335 625 c 0
 335 614 334 605 330 585 c 1
 300 413 l 1
 298 403 297 390 297 383 c 0
 297 353 317 331 352 322 c 1
 338 244 l 1
 295 233 265 204 256 162 c 1
 222 -33 l 1
 211 -84 192 -111 154 -129 c 0
 129 -141 114 -144 71 -144 c 2
 -4 -145 l 1
 9 -73 l 1
 67 -61 90 -44 99 -3 c 1
EndSplineSet
EndChar
StartChar: asciitilde
Encoding: 126 126 95
Width: 620
Flags: W
Fore
163 251 m 1
 101 321 l 1
 149 409 189 441 247 441 c 0
 269 441 289 436 321 423 c 2
 386 395 l 2
 412 384 441 377 458 377 c 0
 485 377 512 399 541 443 c 1
 605 372 l 1
 571 303 516 260 463 260 c 0
 439 260 422 265 372 286 c 2
 317 308 l 2
 292 319 270 324 252 324 c 0
 218 324 199 308 163 251 c 1
EndSplineSet
EndChar
StartChar: exclamdown
Encoding: 161 161 96
Width: 320
Flags: W
HStem: 340 180<247 266>
Fore
191 288 m 1
 273 288 l 1
 258 144 258 144 258 90 c 0
 258 68 259 46 260 21 c 0
 262 -4 263 -21 263 -29 c 0
 263 -70 256 -108 245 -128 c 0
 226 -164 187 -187 148 -187 c 0
 98 -187 64 -153 64 -104 c 0
 64 -79 71 -51 88 -10 c 1
 140 120 l 2
 164 181 172 207 191 288 c 1
266 520 m 0
 310 520 344 485 344 439 c 0
 344 386 299 340 247 340 c 0
 204 340 171 374 171 421 c 0
 171 473 216 520 266 520 c 0
EndSplineSet
EndChar
StartChar: cent
Encoding: 162 162 97
Width: 680
Flags: W
HStem: 510 208<417 434>
VStem: 161 153<348 366> 467 149<482 490>
DStem: 317 171 400 171 291 25 374 25 417 718 500 718 394 595 477 595
Fore
557 326 m 1
 598 286 l 1
 559 231 478 183 400 171 c 1
 374 25 l 1
 291 25 l 1
 317 171 l 1
 221 192 161 261 161 349 c 0
 161 463 262 569 394 595 c 1
 417 718 l 1
 500 718 l 1
 477 595 l 1
 564 586 616 547 616 490 c 0
 616 444 577 403 532 403 c 0
 505 403 482 416 474 436 c 0
 468 450 467 456 467 484 c 0
 467 500 452 510 429 510 c 0
 372 510 314 437 314 364 c 0
 314 305 354 266 414 266 c 0
 458 266 512 289 557 326 c 1
EndSplineSet
EndChar
StartChar: sterling
Encoding: 163 163 98
Width: 680
Flags: W
HStem: -13 92<127 141> -13 117<543 561> 133 78<139 177> 168 70<546 575> 346 83<192 273 440 563> 616 78<586 608>
VStem: 0 93<94 107> 590 102<129 138> 636 151<508 554>
Fore
563 346 m 1xae80
 425 346 l 1
 412 277 389 189 377 163 c 1
 387 160 393 158 394 157 c 2
 448 136 l 1
 470 129 492 121 514 113 c 0
 529 107 543 104 552 104 c 0
 572 104 590 119 590 136 c 0
 590 154 571 168 546 168 c 0
 538 168 531 167 517 166 c 1
 504 219 l 1
 526 232 548 238 575 238 c 0
 645 238 692 195 692 131 c 0
 692 55 623 -13 546 -13 c 0x5f
 504 -13 480 -3 373 58 c 0
 356 68 346 73 329 82 c 1
 297 26 218 -13 139 -13 c 0
 54 -13 0 28 0 94 c 0
 0 161 66 211 154 211 c 0
 181 211 213 207 246 198 c 1
 273 346 l 1
 164 346 l 1
 193 429 l 1
 288 429 l 1
 301 494 318 537 348 576 c 0
 403 647 507 694 608 694 c 0
 716 694 787 639 787 554 c 0
 787 497 747 449 700 449 c 0
 664 449 636 475 636 508 c 0
 636 525 638 532 651 559 c 0
 654 564 655 569 655 573 c 0
 655 596 624 616 588 616 c 0
 520 616 470 553 440 429 c 1
 594 429 l 1
 563 346 l 1xae80
213 120 m 1
 194 130 181 133 157 133 c 0
 120 133 93 120 93 103 c 0
 93 90 110 79 131 79 c 0xae
 159 79 193 96 213 120 c 1
EndSplineSet
EndChar
StartChar: fraction
Encoding: 164 8260 99
Width: 120
Flags: W
HStem: 0 21G<-144 -60> 661 20G<299 382>
DStem: 299 681 382 681 -144 0 -60 0
Fore
382 681 m 1
 -60 0 l 1
 -144 0 l 1
 299 681 l 1
 382 681 l 1
EndSplineSet
EndChar
StartChar: yen
Encoding: 165 165 100
Width: 680
Flags: W
HStem: 0 79<170 504> 201 83<106 282 464 640> 359 83<135 278 573 668> 661 20G<129 442 536 782>
Fore
782 681 m 1
 767 601 l 1
 708 594 647 543 573 442 c 1
 683 442 l 1
 668 359 l 1
 508 359 l 1
 467 302 l 1
 464 284 l 1
 656 284 l 1
 640 201 l 1
 449 201 l 1
 442 164 l 1
 439 145 437 130 437 123 c 0
 437 96 463 79 504 79 c 2
 518 79 l 1
 504 0 l 1
 157 0 l 1
 171 79 l 1
 182 79 l 2
 198 79 220 84 234 91 c 0
 257 102 264 116 274 164 c 2
 282 201 l 1
 92 201 l 1
 107 284 l 1
 296 284 l 1
 300 305 l 1
 278 359 l 1
 121 359 l 1
 136 442 l 1
 241 442 l 1
 227 476 l 1
 195 559 162 595 115 601 c 1
 129 681 l 1
 442 681 l 1
 427 601 l 1
 383 596 368 589 368 576 c 0
 368 572 371 559 374 552 c 1
 434 381 l 1
 548 547 l 1
 564 569 564 569 564 578 c 0
 564 590 549 598 522 601 c 1
 536 681 l 1
 782 681 l 1
EndSplineSet
EndChar
StartChar: florin
Encoding: 166 402 101
Width: 680
Flags: W
HStem: -208 156<59 101> 421 90<236 305 479 558> 600 145<611 668> 657 88<562 611>
DStem: 305 421 463 421 235 36 392 32
Fore
463 421 m 1xd0
 392 32 l 1
 374 -65 352 -108 297 -150 c 0
 247 -188 181 -208 101 -208 c 0
 19 -208 -28 -179 -28 -130 c 0
 -28 -87 11 -52 59 -52 c 0
 83 -52 103 -62 123 -83 c 0
 146 -108 153 -112 172 -112 c 0
 204 -112 211 -97 235 36 c 2
 305 421 l 1
 221 421 l 1
 237 511 l 1
 321 511 l 1
 346 658 453 745 611 745 c 0
 693 745 743 714 743 664 c 0
 743 627 711 600 668 600 c 0xe0
 634 600 617 609 595 639 c 0
 585 653 578 657 562 657 c 0
 521 657 500 626 486 547 c 1
 479 511 l 1
 575 511 l 1
 558 421 l 1
 463 421 l 1xd0
EndSplineSet
EndChar
StartChar: section
Encoding: 167 167 102
Width: 620
Flags: W
HStem: -147 74<276 304> 612 82<396 431>
VStem: 46 132<-25 -2> 156 137<482 533> 450 128<16 61> 485 132<245 302> 492 146<523 551>
Fore
544 153 m 1xd4
 566 126 578 94 578 61 c 0
 578 18 554 -34 518 -68 c 0
 465 -118 379 -147 280 -147 c 0
 144 -147 46 -87 46 -2 c 0
 46 46 84 89 128 89 c 0
 161 89 190 62 190 32 c 0
 190 21 188 11 181 -10 c 0
 179 -16 178 -21 178 -25 c 0
 178 -52 233 -73 302 -73 c 0
 388 -73 450 -35 450 16 c 0xe8
 450 42 442 50 398 65 c 0
 378 73 348 83 271 108 c 0
 201 131 178 141 153 159 c 0
 124 179 104 216 104 250 c 0
 104 295 142 354 197 393 c 1
 166 426 156 447 156 482 c 0
 156 601 272 694 421 694 c 0
 544 694 638 632 638 551 c 0
 638 505 601 468 555 468 c 0
 521 468 492 494 492 523 c 0xd2
 492 531 492 535 495 564 c 0
 496 568 496 572 496 575 c 0
 496 596 461 612 414 612 c 0
 346 612 293 577 293 533 c 0
 293 504 314 490 398 468 c 0
 470 448 515 432 545 416 c 0
 589 393 617 348 617 302 c 0
 617 250 593 200 544 153 c 1xd4
401 311 m 2
 277 350 l 1
 257 335 246 316 246 296 c 0
 246 281 255 271 278 262 c 0
 282 260 346 238 471 196 c 1
 479 208 485 227 485 245 c 0xc4
 485 275 464 292 401 311 c 2
EndSplineSet
EndChar
StartChar: currency
Encoding: 168 164 103
Width: 680
Flags: W
HStem: 112 101<393 405> 488 101<387 405>
VStem: 154 102<334.798 366> 530 102<334.349 366>
Fore
148 173 m 1
 194 220 l 1
 164 269 154 301 154 351 c 0
 154 403 165 440 195 483 c 1
 148 529 l 1
 212 595 l 1
 259 548 l 1
 300 575 346 589 394 589 c 0
 441 589 485 576 526 549 c 1
 573 595 l 1
 636 529 l 1
 590 484 l 1
 620 441 632 402 632 351 c 0
 632 300 620 261 591 220 c 1
 637 173 l 1
 574 109 l 1
 527 155 l 1
 482 124 443 112 393 112 c 0
 343 112 303 125 259 155 c 1
 212 109 l 1
 148 173 l 1
395 488 m 0
 318 488 256 427 256 352 c 0
 256 275 317 213 393 213 c 0
 468 213 530 275 530 351 c 0
 530 425 468 488 395 488 c 0
EndSplineSet
EndChar
StartChar: quotesingle
Encoding: 169 39 104
Width: 180
Flags: W
HStem: 661 20G<185 233.5>
Fore
170 352 m 1
 126 365 l 1
 138 592 l 1
 139 601 139 608 139 613 c 0
 141 660 163 681 207 681 c 0
 260 681 295 651 295 606 c 0
 295 590 291 576 283 561 c 2
 170 352 l 1
EndSplineSet
EndChar
StartChar: quotedblleft
Encoding: 170 8220 105
Width: 520
Flags: W
Fore
510 694 m 1
 544 662 l 1
 507 628 479 598 472 583 c 1
 479 584 483 584 487 584 c 0
 522 584 545 558 545 520 c 0
 545 466 494 416 437 416 c 0
 396 416 367 446 367 489 c 0
 367 556 423 637 510 694 c 1
299 694 m 1
 333 662 l 1
 296 628 268 598 261 583 c 1
 268 584 272 584 276 584 c 0
 311 584 334 558 334 520 c 0
 334 466 283 416 226 416 c 0
 185 416 156 446 156 489 c 0
 156 556 212 637 299 694 c 1
EndSplineSet
KernsSLIF: 65 -89 1 0 225 -176 1 0 257 -90 1 0 256 -90 1 0 262 -90 1 0 84 -3 1 0 86 6 1 0 87 12 1 0 89 1 1 0
EndChar
StartChar: guillemotleft
Encoding: 171 171 106
Width: 380
Flags: W
Fore
150 57 m 1
 62 258 l 1
 206 477 l 1
 249 442 l 1
 165 252 l 1
 206 93 l 1
 150 57 l 1
307 57 m 1
 219 258 l 1
 363 477 l 1
 406 442 l 1
 322 252 l 1
 363 93 l 1
 307 57 l 1
EndSplineSet
EndChar
StartChar: guilsinglleft
Encoding: 172 8249 107
Width: 220
Flags: W
Fore
150 57 m 1
 62 258 l 1
 206 477 l 1
 249 442 l 1
 165 252 l 1
 206 93 l 1
 150 57 l 1
EndSplineSet
EndChar
StartChar: guilsinglright
Encoding: 173 8250 108
Width: 220
Flags: W
Fore
161 477 m 1
 249 275 l 1
 105 57 l 1
 62 91 l 1
 146 282 l 1
 105 440 l 1
 161 477 l 1
EndSplineSet
KernsSLIF: 65 -26 1 0 225 -26 1 0 257 -26 1 0 256 -26 1 0 262 -26 1 0 84 -50 1 0 86 -57 1 0 87 -40 1 0 89 -73 1 0
EndChar
StartChar: fi
Encoding: 174 64257 109
Width: 820
Flags: W
HStem: -208 156<-107 -63> -13 112<680 758> 421 90<138 206 381 535> 675 70<533 579>
VStem: 552 166<81 134>
DStem: 206 421 364 421 162 178 320 178 595 336 785 511 563 160 721 160
Fore
381 511 m 1
 785 511 l 1
 721 160 l 2
 719 149 718 140 718 134 c 0
 718 113 734 99 758 99 c 0
 775 99 788 104 810 117 c 1
 850 61 l 1
 786 7 739 -13 680 -13 c 0
 605 -13 552 26 552 81 c 0
 552 101 552 101 563 160 c 1
 595 336 l 2
 598 352 600 370 600 379 c 0
 600 397 593 408 580 413 c 0
 572 416 535 421 517 421 c 2
 364 421 l 1
 320 178 l 2
 301 74 293 42 274 2 c 0
 209 -132 87 -208 -63 -208 c 0
 -145 -208 -191 -180 -191 -130 c 0
 -191 -87 -153 -52 -107 -52 c 0
 -78 -52 -66 -59 -34 -91 c 0
 -18 -107 -8 -112 9 -112 c 0
 44 -112 75 -93 98 -56 c 0
 126 -9 132 12 162 178 c 2
 206 421 l 1
 122 421 l 1
 139 511 l 1
 223 511 l 1
 242 590 266 633 310 672 c 0
 366 720 457 745 579 745 c 0
 714 745 792 706 792 638 c 0
 792 591 753 556 702 556 c 0
 677 556 654 564 639 578 c 0
 631 586 627 592 615 621 c 0
 600 659 576 675 533 675 c 0
 486 675 445 658 420 627 c 0
 401 605 394 584 381 511 c 1
EndSplineSet
Ligature: 0 0 'liga' f i
EndChar
StartChar: fl
Encoding: 175 64258 110
Width: 820
Flags: W
HStem: -208 156<-108 -75> -13 109<679 755> 421 90<138 207 382 465> 675 70<528 569>
VStem: 553 166<84 137>
DStem: 207 421 365 421 163 179 321 179 634 545 825 726 564 163 722 163
Fore
382 511 m 1
 481 511 l 1
 465 421 l 1
 365 421 l 1
 321 179 l 1
 301 73 293 44 273 2 c 0
 231 -83 169 -144 93 -174 c 0
 40 -196 -20 -208 -75 -208 c 0
 -145 -208 -191 -177 -191 -130 c 0
 -191 -88 -152 -52 -108 -52 c 0
 -78 -52 -67 -58 -35 -91 c 0
 -20 -107 -8 -112 10 -112 c 0
 45 -112 73 -94 97 -55 c 0
 125 -10 134 21 163 179 c 2
 207 421 l 1
 123 421 l 1
 139 511 l 1
 224 511 l 1
 239 591 260 631 307 671 c 0
 369 724 444 745 569 745 c 0
 648 745 704 741 825 726 c 1
 722 163 l 2
 720 153 719 144 719 137 c 0
 719 112 733 96 755 96 c 0
 773 96 787 102 809 119 c 1
 850 62 l 1
 785 8 738 -13 679 -13 c 0
 604 -13 553 26 553 84 c 0
 553 104 553 104 564 163 c 2
 634 545 l 1
 637 563 640 590 640 602 c 0
 640 650 602 675 531 675 c 0
 486 675 447 658 421 627 c 0
 403 605 397 590 382 511 c 1
EndSplineSet
Ligature: 0 0 'liga' f l
EndChar
StartChar: endash
Encoding: 177 8211 111
Width: 500
Flags: W
HStem: 224 90<72 540>
Fore
73 314 m 1
 573 314 l 1
 540 224 l 1
 40 224 l 1
 73 314 l 1
EndSplineSet
EndChar
StartChar: dagger
Encoding: 178 8224 112
Width: 420
Flags: W
HStem: 365 109<131 152 409 427> 674 20G<299 343>
VStem: 248 137<626 655>
Fore
224 -134 m 1
 167 -134 l 1
 192 -4 200 65 200 140 c 0
 200 190 194 240 181 289 c 1
 214 319 246 368 248 391 c 1
 186 375 l 2
 145 365 145 365 131 365 c 0
 106 365 89 381 89 407 c 0
 89 446 115 474 152 474 c 0
 162 474 175 472 190 467 c 2
 260 447 l 1
 260 452 l 2
 260 456 258 476 256 506 c 1
 250 591 l 2
 249 606 248 619 248 626 c 0
 248 671 274 694 324 694 c 0
 362 694 385 679 385 655 c 0
 385 641 383 635 372 607 c 2
 340 523 l 2
 336 512 326 489 312 452 c 2
 310 447 l 1
 374 465 l 2
 393 470 415 474 427 474 c 0
 450 474 466 459 466 436 c 0
 466 393 444 365 409 365 c 0
 397 365 379 368 368 371 c 2
 298 391 l 1
 297 384 297 379 297 376 c 0
 297 348 309 321 337 289 c 1
 290 227 256 100 224 -134 c 1
EndSplineSet
EndChar
StartChar: daggerdbl
Encoding: 179 8225 113
Width: 420
Flags: W
HStem: 97 110<117 136 395 412> 351 109<153 173 430 448> 674 20G<322 366>
VStem: 156 137<-108 -79> 271 137<623 655>
Fore
176 200 m 2xf0
 246 180 l 1
 247 185 247 187 247 189 c 0
 247 209 232 238 198 280 c 1
 238 318 266 355 269 377 c 1
 207 361 l 2
 167 351 167 351 153 351 c 0
 127 351 111 368 111 393 c 0
 111 433 137 460 173 460 c 0
 184 460 196 458 212 453 c 2
 281 433 l 1
 279 477 277 528 272 588 c 1
 271 623 l 1
 271 670 297 694 347 694 c 0
 385 694 408 679 408 655 c 0xe8
 408 640 406 632 387 585 c 1
 331 433 l 1
 396 451 l 2
 415 456 436 460 448 460 c 0
 471 460 486 445 486 422 c 0
 486 378 464 351 430 351 c 0
 419 351 400 354 389 357 c 2
 319 377 l 1
 318 372 318 368 318 366 c 0
 318 342 332 318 368 280 c 1
 327 237 301 201 296 180 c 1
 359 196 l 2
 399 207 399 207 412 207 c 0
 438 207 455 190 455 165 c 0
 455 126 429 97 395 97 c 0
 384 97 368 100 354 104 c 2
 284 124 l 1
 284 120 l 1
 285 41 l 1
 284 35 287 -5 291 -44 c 0
 292 -57 293 -70 293 -79 c 0
 293 -123 266 -147 218 -147 c 0
 179 -147 156 -132 156 -108 c 0
 156 -93 159 -82 177 -38 c 0
 192 3 212 57 234 124 c 1
 170 106 l 2
 151 101 129 97 117 97 c 0
 94 97 79 112 79 135 c 0
 79 180 101 207 136 207 c 0
 147 207 161 205 176 200 c 2xf0
EndSplineSet
EndChar
StartChar: periodcentered
Encoding: 180 183 114
Width: 340
Flags: W
Fore
241 358 m 0
 284 358 316 325 316 280 c 0
 316 225 262 173 204 173 c 0
 160 173 126 205 126 246 c 0
 126 306 180 358 241 358 c 0
EndSplineSet
EndChar
StartChar: paragraph
Encoding: 182 182 115
Width: 680
Flags: W
HStem: -201 90<401 652> 163 101<325 340> 592 89<373 412 397 594>
VStem: 70 173<358 386>
DStem: 334 163 529 591 298 -33 401 -111 412 591 529 591 353 264 401 -111 594 591 726 681 466 -111 593 -46
Fore
726 681 m 1
 593 -46 l 1
 592 -55 589 -79 589 -84 c 0
 589 -104 602 -110 650 -114 c 2
 667 -115 l 1
 652 -201 l 1
 184 -201 l 1
 199 -115 l 1
 214 -114 l 2
 275 -111 288 -98 298 -33 c 1
 334 163 l 1
 250 163 209 169 174 187 c 0
 108 220 70 293 70 384 c 0
 70 506 144 623 248 663 c 0
 288 678 312 681 397 681 c 2
 726 681 l 1
353 264 m 1
 412 591 l 1
 402 592 391 592 385 592 c 0
 346 592 316 578 296 551 c 0
 263 508 243 435 243 361 c 0
 243 290 269 264 340 264 c 2
 353 264 l 1
594 591 m 1
 529 591 l 1
 401 -111 l 1
 466 -111 l 1
 594 591 l 1
EndSplineSet
EndChar
StartChar: bullet
Encoding: 183 8226 116
Width: 360
Flags: W
Fore
232 557 m 0
 327 557 404 480 404 386 c 0
 404 289 327 213 230 213 c 0
 137 213 60 291 60 385 c 0
 60 480 137 557 232 557 c 0
EndSplineSet
EndChar
StartChar: quotesinglbase
Encoding: 184 8218 117
Width: 300
Flags: W
HStem: -7 21G<147.5 168>
Fore
141 -117 m 1
 107 -85 l 1
 144 -52 172 -21 179 -6 c 1
 173 -7 170 -7 166 -7 c 0
 129 -7 106 18 106 57 c 0
 106 111 157 161 214 161 c 0
 255 161 284 131 284 88 c 0
 284 21 227 -61 141 -117 c 1
EndSplineSet
EndChar
StartChar: quotedblbase
Encoding: 185 8222 118
Width: 520
Flags: W
HStem: -7 21G<146.5 166 357.5 376.5>
Fore
141 -117 m 1
 107 -85 l 1
 144 -52 172 -21 179 -6 c 1
 171 -7 168 -7 164 -7 c 0
 129 -7 106 19 106 57 c 0
 106 111 157 161 214 161 c 0
 255 161 284 131 284 88 c 0
 284 21 228 -61 141 -117 c 1
352 -117 m 1
 318 -85 l 1
 355 -52 383 -21 390 -6 c 1
 382 -7 378 -7 375 -7 c 0
 340 -7 317 19 317 57 c 0
 317 111 368 161 425 161 c 0
 466 161 495 131 495 88 c 0
 495 21 439 -61 352 -117 c 1
EndSplineSet
KernsSLIF: 65 29 1 0 225 18 1 0 84 -64 1 0 86 -74 1 0 87 -52 1 0 89 -57 1 0
EndChar
StartChar: quotedblright
Encoding: 186 8221 119
Width: 520
Flags: W
HStem: 526 21G<212.5 233 423.5 444> 674 20G<250.5 299.5 461.5 510.5>
Fore
206 416 m 1
 172 448 l 1
 209 481 237 512 244 527 c 1
 238 526 235 526 231 526 c 0
 194 526 171 551 171 590 c 0
 171 644 222 694 279 694 c 0
 320 694 349 664 349 621 c 0
 349 554 293 472 206 416 c 1
417 416 m 1
 383 448 l 1
 420 481 448 512 455 527 c 1
 449 526 446 526 442 526 c 0
 405 526 382 551 382 590 c 0
 382 644 433 694 490 694 c 0
 531 694 560 664 560 621 c 0
 560 554 504 472 417 416 c 1
EndSplineSet
KernsSLIF: 65 -91 1 0 225 -183 1 0 257 -92 1 0 256 -92 1 0 262 -92 1 0 84 -7 1 0 86 5 1 0 87 12 1 0 89 1 1 0
EndChar
StartChar: guillemotright
Encoding: 187 187 120
Width: 380
Flags: W
Fore
161 477 m 1
 249 275 l 1
 105 57 l 1
 62 91 l 1
 146 282 l 1
 105 440 l 1
 161 477 l 1
318 477 m 1
 406 275 l 1
 262 57 l 1
 219 91 l 1
 303 282 l 1
 262 440 l 1
 318 477 l 1
EndSplineSet
KernsSLIF: 65 -27 1 0 225 -28 1 0 257 -27 1 0 256 -27 1 0 262 -27 1 0 84 -52 1 0 86 -58 1 0 87 -41 1 0 89 -75 1 0
EndChar
StartChar: ellipsis
Encoding: 188 8230 121
Width: 1000
Flags: W
HStem: -13 21G<142 193 475 526 808 859>
VStem: 86 190<60 94> 419 190<60 94> 752 190<60 94>
CounterMasks: 1 00
Fore
201 172 m 0
 244 172 276 139 276 94 c 0
 276 39 222 -13 164 -13 c 0
 120 -13 86 19 86 60 c 0
 86 119 140 172 201 172 c 0
534 172 m 0
 577 172 609 139 609 94 c 0
 609 39 555 -13 497 -13 c 0
 453 -13 419 19 419 60 c 0
 419 120 473 172 534 172 c 0
867 172 m 0
 910 172 942 139 942 94 c 0
 942 39 888 -13 830 -13 c 0
 786 -13 752 19 752 60 c 0
 752 119 806 172 867 172 c 0
EndSplineSet
Ligature: 0 1 'liga' period period period
EndChar
StartChar: perthousand
Encoding: 189 8240 122
Width: 1360
Flags: W
HStem: -8 82<681 699 1115 1131> 276 78<728 745 1161 1179> 327 82<260 276> 611 78<307 324>
VStem: 106 117<457.81 489> 361 117<535 553> 527 117<122.659 153> 782 117<199 218> 961 117<122.659 153> 1216 117<199 218>
DStem: 684 681 767 681 242 0 326 0
Fore
324 689 m 0xbfc0
 418 689 478 631 478 538 c 0
 478 425 377 327 260 327 c 0
 168 327 106 385 106 473 c 0
 106 590 205 689 324 689 c 0xbfc0
309 611 m 0
 261 611 223 551 223 474 c 0
 223 432 241 409 274 409 c 0
 294 409 313 419 325 435 c 0
 346 464 361 513 361 551 c 0
 361 590 343 611 309 611 c 0
767 681 m 1
 326 0 l 1
 242 0 l 1
 684 681 l 1
 767 681 l 1
745 354 m 0xdfc0
 839 354 899 296 899 203 c 0
 899 90 798 -8 681 -8 c 0
 589 -8 527 50 527 138 c 0
 527 255 626 354 745 354 c 0xdfc0
730 276 m 0
 682 276 644 216 644 139 c 0
 644 97 662 74 695 74 c 0
 715 74 734 84 746 100 c 0
 767 129 782 178 782 216 c 0
 782 255 764 276 730 276 c 0
1179 354 m 0
 1273 354 1333 296 1333 203 c 0
 1333 90 1232 -8 1115 -8 c 0
 1023 -8 961 50 961 138 c 0
 961 256 1060 354 1179 354 c 0
1164 276 m 0
 1116 276 1078 216 1078 139 c 0
 1078 97 1096 74 1129 74 c 0
 1149 74 1168 84 1180 100 c 0
 1201 129 1216 178 1216 216 c 0
 1216 255 1198 276 1164 276 c 0
EndSplineSet
EndChar
StartChar: questiondown
Encoding: 191 191 123
Width: 620
Flags: W
HStem: -183 78<323 351> 346 178<383 403>
VStem: 83 173<-22 9> 306 171<422 444> 446 160<-8 9>
Fore
334 295 m 1xe8
 425 295 l 1
 420 201 403 170 328 114 c 0
 294 89 284 79 273 58 c 0
 262 37 256 15 256 -6 c 0
 256 -64 295 -105 351 -105 c 0
 406 -105 458 -78 458 -50 c 0
 458 -45 455 -35 451 -23 c 0
 448 -15 446 -7 446 0 c 0
 446 41 487 81 531 81 c 0
 577 81 606 52 606 7 c 0
 606 -97 478 -183 323 -183 c 0
 181 -183 83 -114 83 -12 c 0
 83 78 142 156 241 197 c 1
 308 222 326 241 334 295 c 1xe8
403 524 m 0
 445 524 477 490 477 444 c 0
 477 392 433 346 383 346 c 0
 339 346 306 379 306 422 c 0xf0
 306 478 349 524 403 524 c 0
EndSplineSet
EndChar
StartChar: grave
Encoding: 193 96 124
Width: 380
Flags: W
Fore
424 605 m 1
 383 561 l 1
 314 585 274 600 248 615 c 0
 211 636 193 660 193 688 c 0
 193 722 223 748 262 748 c 0
 286 748 303 739 328 715 c 0
 356 689 390 650 424 605 c 1
EndSplineSet
EndChar
StartChar: acute
Encoding: 194 180 125
Width: 340
Flags: W
Fore
217 561 m 1
 176 605 l 1
 210 650 244 689 272 715 c 0
 297 739 314 748 338 748 c 0
 377 748 407 722 407 688 c 0
 407 657 386 632 340 609 c 0
 316 596 276 581 217 561 c 1
EndSplineSet
Ligature: 0 1 'liga' space acutecomb
EndChar
StartChar: circumflex
Encoding: 195 710 126
Width: 480
Flags: W
Fore
183 631 m 1
 367 734 l 1
 523 626 l 1
 481 564 l 1
 351 620 l 1
 214 564 l 1
 183 631 l 1
EndSplineSet
EndChar
StartChar: tilde
Encoding: 196 732 127
Width: 480
Flags: W
Fore
487 699 m 1
 533 662 l 1
 492 595 471 580 417 580 c 0
 393 580 382 583 332 600 c 0
 306 609 294 612 279 612 c 0
 254 612 239 604 224 583 c 1
 178 619 l 1
 209 679 242 703 296 703 c 0
 323 703 342 699 378 686 c 0
 406 675 419 672 434 672 c 0
 459 672 465 675 487 699 c 1
EndSplineSet
Ligature: 0 1 'liga' space tildecomb
EndChar
StartChar: macron
Encoding: 197 175 128
Width: 480
Flags: W
HStem: 603 88<202 505>
Fore
505 603 m 1
 177 603 l 1
 203 691 l 1
 531 691 l 1
 505 603 l 1
EndSplineSet
Ligature: 0 1 'liga' space uni0304
EndChar
StartChar: breve
Encoding: 198 728 129
Width: 460
Flags: W
Fore
443 710 m 1
 516 710 l 1
 504 654 493 631 468 609 c 0
 440 583 395 570 339 570 c 0
 234 570 189 609 177 710 c 1
 250 710 l 1
 264 667 287 653 343 653 c 0
 398 653 425 669 443 710 c 1
EndSplineSet
Ligature: 0 1 'liga' space uni0306
EndChar
StartChar: dotaccent
Encoding: 199 729 130
Width: 380
Flags: W
Fore
278 732 m 0
 318 732 345 705 345 665 c 0
 345 616 295 566 246 566 c 0
 208 566 180 595 180 634 c 0
 180 685 227 732 278 732 c 0
EndSplineSet
Ligature: 0 1 'liga' space uni0307
EndChar
StartChar: dieresis
Encoding: 200 168 131
Width: 520
Flags: W
Fore
275 729 m 0
 314 729 340 703 340 664 c 0
 340 617 291 569 244 569 c 0
 207 569 180 597 180 634 c 0
 180 683 226 729 275 729 c 0
504 729 m 0
 543 729 569 703 569 664 c 0
 569 617 520 569 473 569 c 0
 436 569 409 597 409 634 c 0
 409 683 455 729 504 729 c 0
EndSplineSet
Ligature: 0 1 'liga' space uni0308
EndChar
StartChar: ring
Encoding: 202 730 132
Width: 360
Flags: W
HStem: 553 58<285.351 298> 711 58<285.425 298>
VStem: 185 62<658 666> 343 63<658 665>
Fore
296 769 m 0
 357 769 406 721 406 660 c 0
 406 602 356 553 295 553 c 0
 235 553 185 601 185 660 c 0
 185 720 235 769 296 769 c 0
295 711 m 0
 269 711 247 689 247 662 c 0
 247 634 268 611 295 611 c 0
 321 611 343 634 343 661 c 0
 343 689 321 711 295 711 c 0
EndSplineSet
Ligature: 0 1 'liga' space uni030A
EndChar
StartChar: cedilla
Encoding: 203 184 133
Width: 360
Flags: W
HStem: -215 47<157 168> -86 33<182 224> -86 86<165 186>
VStem: 211 78<-125 -112>
DStem: 165 0 213 0 134 -69 186 -60
Fore
165 0 m 1xb0
 213 0 l 1xb0
 186 -60 l 1
 204 -55 213 -53 224 -53 c 0
 263 -53 289 -77 289 -114 c 0
 289 -173 238 -215 165 -215 c 0
 107 -215 68 -194 68 -162 c 0
 68 -141 85 -123 105 -123 c 0
 120 -123 126 -128 136 -150 c 0
 141 -161 152 -168 166 -168 c 0
 191 -168 211 -146 211 -119 c 0
 211 -99 199 -86 182 -86 c 0xd0
 175 -86 169 -88 158 -93 c 1
 134 -69 l 1
 165 0 l 1xb0
EndSplineSet
Ligature: 0 1 'liga' space uni0327
EndChar
StartChar: hungarumlaut
Encoding: 205 733 134
Width: 560
Flags: W
Fore
443 560 m 1
 398 600 l 1
 501 737 516 751 554 751 c 0
 589 751 616 725 616 692 c 0
 616 648 581 621 443 560 c 1
226 560 m 1
 181 600 l 1
 283 736 298 751 337 751 c 0
 372 751 399 725 399 692 c 0
 399 647 365 621 226 560 c 1
EndSplineSet
Ligature: 0 1 'liga' space uni030B
EndChar
StartChar: ogonek
Encoding: 206 731 135
Width: 320
Flags: W
HStem: -179 70<164 210> -20 20G<157 210>
Fore
157 0 m 1
 210 0 l 1
 172 -34 161 -49 161 -70 c 0
 161 -93 181 -109 210 -109 c 0
 222 -109 234 -106 253 -100 c 1
 240 -161 l 1
 213 -174 191 -179 164 -179 c 0
 106 -179 68 -148 68 -101 c 0
 68 -58 87 -37 157 0 c 1
EndSplineSet
Ligature: 0 1 'liga' space uni0328
EndChar
StartChar: caron
Encoding: 207 711 136
Width: 480
Flags: W
Fore
523 667 m 1
 339 564 l 1
 183 672 l 1
 225 734 l 1
 355 678 l 1
 492 734 l 1
 523 667 l 1
EndSplineSet
EndChar
StartChar: emdash
Encoding: 208 8212 137
Width: 1000
Flags: W
HStem: 224 90<72 1040>
Fore
73 314 m 1
 1073 314 l 1
 1040 224 l 1
 40 224 l 1
 73 314 l 1
EndSplineSet
EndChar
StartChar: AE
Encoding: 225 198 138
Width: 1140
Flags: W
HStem: 0 84<788 1076> 253 78<425 580> 491 20G<927 996> 600 81<658 934>
DStem: 658 681 633 545 194 208 425 331 658 681 353 253 194 208 274 167
Fore
1189 226 m 1
 1076 0 l 1
 457 0 l 1
 472 81 l 1
 488 83 l 2
 537 91 552 107 565 168 c 1
 580 253 l 1
 353 253 l 1
 274 167 l 1
 241 134 236 127 236 114 c 0
 236 106 243 96 253 92 c 0
 266 86 268 86 313 82 c 2
 322 81 l 1
 307 0 l 1
 -27 0 l 1
 -12 81 l 1
 75 93 93 104 194 208 c 2
 658 681 l 1
 1152 681 l 1
 1207 460 l 1
 1137 438 l 1
 1102 536 1012 600 912 600 c 0
 827 600 803 586 794 532 c 1
 771 406 l 1
 816 406 l 2
 883 406 901 423 927 511 c 1
 996 511 l 1
 941 208 l 1
 872 208 l 1
 872 220 l 1
 873 233 873 243 873 247 c 0
 873 303 845 331 790 331 c 2
 757 331 l 1
 727 167 l 1
 722 134 720 117 720 116 c 0
 720 96 752 84 801 84 c 0
 878 84 964 114 1026 162 c 0
 1057 186 1081 209 1122 253 c 1
 1189 226 l 1
594 331 m 1
 633 545 l 1
 425 331 l 1
 594 331 l 1
EndSplineSet
EndChar
StartChar: ordfeminine
Encoding: 227 170 139
Width: 440
Flags: W
HStem: 300 62<65 484> 393 57<220 248> 651 47<280 300>
VStem: 107 102<502 525>
Fore
444 693 m 1
 410 507 l 1
 406 487 406 487 406 481 c 0
 406 468 416 458 429 458 c 0
 438 458 445 461 458 469 c 1
 483 439 l 1
 452 409 419 393 386 393 c 0
 349 393 325 409 316 439 c 1
 284 405 258 393 220 393 c 0
 154 393 107 445 107 516 c 0
 107 614 187 698 280 698 c 0
 308 698 341 687 358 671 c 1
 362 693 l 1
 444 693 l 1
350 629 m 1
 330 644 315 651 300 651 c 0
 252 651 209 581 209 504 c 0
 209 471 224 450 248 450 c 0
 270 450 289 465 305 496 c 0
 315 515 322 536 350 629 c 1
66 362 m 1
 495 362 l 1
 484 300 l 1
 55 300 l 1
 66 362 l 1
EndSplineSet
EndChar
StartChar: Lslash
Encoding: 232 321 140
Width: 640
Flags: W
HStem: 0 89<333 606> 661 20G<137 498>
DStem: 564 490 548 404 347 398 332 312
Fore
162 338 m 1
 194 513 l 2
 196 524 198 544 198 553 c 0
 198 580 181 595 145 598 c 2
 123 600 l 1
 137 681 l 1
 498 681 l 1
 483 600 l 1
 448 598 l 1
 396 591 380 575 368 513 c 1
 347 398 l 1
 564 490 l 1
 548 404 l 1
 332 312 l 1
 305 167 l 1
 297 120 297 120 297 115 c 0
 297 98 316 89 353 89 c 0
 423 89 475 105 533 144 c 0
 579 176 582 179 650 264 c 0
 651 266 653 268 655 271 c 1
 724 234 l 1
 606 0 l 1
 14 0 l 1
 29 81 l 1
 51 83 l 2
 104 90 119 106 131 168 c 2
 147 251 l 1
 52 211 l 1
 68 298 l 1
 162 338 l 1
EndSplineSet
EndChar
StartChar: Oslash
Encoding: 233 216 141
Width: 760
Flags: W
HStem: -13 96<388 406> 602 92<468 490>
VStem: 80 188<263 293> 615 193<389 418>
DStem: 143 97 191 50 21 -29 114 -29 583 548 609 480 270 227 291 152 754 725 847 725 676 644 728 602
Fore
847 725 m 1
 728 602 l 1
 780 547 808 474 808 391 c 0
 808 297 769 194 706 123 c 0
 632 38 516 -13 397 -13 c 0
 317 -13 249 8 191 50 c 1
 114 -29 l 1
 21 -29 l 1
 143 97 l 1
 101 152 80 216 80 291 c 0
 80 395 124 503 195 575 c 0
 268 650 378 694 488 694 c 0
 559 694 620 678 676 644 c 1
 754 725 l 1
 847 725 l 1
609 480 m 1
 291 152 l 1
 315 106 351 83 402 83 c 0
 463 83 518 120 558 187 c 0
 590 240 615 340 615 416 c 0
 615 438 613 455 609 480 c 1
270 227 m 1
 583 548 l 1
 557 584 522 602 476 602 c 0
 362 602 268 448 268 264 c 0
 268 250 268 242 270 227 c 1
EndSplineSet
KernsSLIF: 65 -20 0 0
EndChar
StartChar: OE
Encoding: 234 338 142
Width: 1180
Flags: W
HStem: 0 84<814 1118> 319 87<807 850> 491 20G<967 1037> 599 82<706 975> 602 92<490 495>
VStem: 94 187<263 292>
Fore
706 681 m 1xf4
 1192 681 l 1
 1245 464 l 1
 1179 440 l 1
 1132 547 1056 599 949 599 c 0xf4
 903 599 870 591 855 575 c 0
 843 563 841 559 833 511 c 1
 814 407 l 1
 830 406 843 406 850 406 c 0
 925 406 948 427 967 511 c 1
 1037 511 l 1
 981 206 l 1
 911 206 l 1
 912 228 912 228 912 231 c 0
 912 272 901 298 879 309 c 0
 868 314 833 319 807 319 c 2
 798 319 l 1
 767 150 l 1
 762 119 762 119 762 114 c 0
 762 93 787 84 844 84 c 0
 960 84 1057 136 1165 256 c 1
 1229 221 l 1
 1118 0 l 1
 582 0 l 1
 591 51 l 1
 535 8 473 -13 403 -13 c 0
 222 -13 94 112 94 290 c 0
 94 394 138 504 208 576 c 0
 279 647 390 694 490 694 c 0xec
 562 694 641 669 696 629 c 1
 706 681 l 1xf4
490 602 m 0xec
 438 602 392 574 352 517 c 0
 310 457 281 355 281 264 c 0
 281 151 332 83 416 83 c 0
 478 83 534 119 575 186 c 0
 607 239 632 338 632 412 c 0
 632 534 581 602 490 602 c 0xec
EndSplineSet
EndChar
StartChar: ordmasculine
Encoding: 235 186 143
Width: 440
Flags: W
HStem: 300 62<57 456> 393 47<270 278> 651 47<303.733 322>
VStem: 132 102<491 511> 358 102<576 594>
Fore
319 698 m 0
 410 698 460 654 460 576 c 0
 460 533 439 480 408 448 c 0
 375 413 326 393 272 393 c 0
 186 393 132 439 132 511 c 0
 132 562 155 617 191 651 c 0
 223 681 269 698 319 698 c 0
315 651 m 0
 290 651 274 638 259 607 c 0
 245 578 234 525 234 491 c 0
 234 459 250 440 276 440 c 0
 300 440 319 455 333 484 c 0
 346 512 358 565 358 594 c 0
 358 634 345 651 315 651 c 0
58 362 m 1
 467 362 l 1
 456 300 l 1
 47 300 l 1
 58 362 l 1
EndSplineSet
EndChar
StartChar: ae
Encoding: 241 230 144
Width: 880
Flags: W
HStem: -9 92<603 637> 222 70<563 600> 442 78<707 733>
VStem: 39 164<108 135> 765 148<383 399>
Fore
831 172 m 1
 879 121 l 1
 861 98 836 77 799 54 c 0
 729 11 668 -9 603 -9 c 0
 543 -9 486 10 451 40 c 0
 440 49 432 58 412 84 c 1
 382 61 369 51 353 40 c 0
 307 10 244 -9 189 -9 c 0
 96 -9 39 36 39 108 c 0
 39 173 82 225 163 258 c 0
 230 285 276 294 406 302 c 1
 412 331 416 360 416 374 c 0
 416 416 383 446 337 446 c 0
 316 446 290 439 276 430 c 0
 262 422 254 411 238 383 c 0
 218 347 191 329 158 329 c 0
 126 329 99 356 99 388 c 0
 99 460 206 520 335 520 c 0
 419 520 483 499 526 456 c 1
 613 507 656 520 733 520 c 0
 843 520 913 472 913 397 c 0
 913 337 874 289 802 261 c 0
 734 235 657 222 572 222 c 0
 569 222 558 222 546 223 c 1
 545 209 544 195 544 188 c 0
 544 126 582 83 637 83 c 0
 679 83 732 101 777 130 c 0
 788 138 800 147 831 172 c 1
391 231 m 1
 385 231 l 1
 383 231 l 2
 343 231 281 218 254 204 c 0
 222 188 203 162 203 135 c 0
 203 109 222 91 250 91 c 0
 313 91 370 147 391 231 c 1
563 292 m 1
 575 292 l 2
 679 292 765 338 765 394 c 0
 765 423 742 442 709 442 c 0
 672 442 638 422 608 383 c 0
 584 353 569 323 563 292 c 1
EndSplineSet
KernsSLIF: 118 4 0 0 119 4 0 0 121 -1 0 0
EndChar
StartChar: dotlessi
Encoding: 245 305 145
Width: 380
Flags: W
HStem: -9 108<241 314> 491 20G<290 342>
DStem: 150 321 342 511 117 139 285 195
Fore
378 121 m 1
 420 65 l 1
 365 18 299 -9 241 -9 c 0
 163 -9 111 31 111 90 c 0
 111 104 112 116 117 139 c 1
 150 321 l 1
 152 334 154 351 154 358 c 0
 154 367 152 374 148 378 c 0
 139 385 112 394 95 394 c 2
 83 394 l 1
 98 476 l 1
 173 480 214 487 290 511 c 1
 342 511 l 1
 285 195 l 1
 282 181 281 172 280 168 c 0
 277 154 275 141 275 134 c 0
 275 115 293 99 314 99 c 0
 327 99 350 107 378 121 c 1
EndSplineSet
EndChar
StartChar: lslash
Encoding: 248 322 146
Width: 380
Flags: W
HStem: -9 108<230 303> 612 82<128 133>
DStem: 143 331 310 383 104 117 270 160
Fore
310 383 m 1
 270 160 l 1
 268 151 267 142 267 134 c 0
 267 114 282 99 303 99 c 0
 318 99 337 105 361 117 c 1
 401 57 l 1
 346 14 287 -9 230 -9 c 0
 152 -9 100 28 100 83 c 0
 100 91 102 104 104 117 c 1
 143 331 l 1
 63 301 l 1
 76 374 l 1
 156 404 l 1
 180 539 l 1
 183 551 185 571 185 577 c 0
 185 585 182 593 179 596 c 0
 170 604 145 612 128 612 c 2
 116 612 l 1
 131 694 l 1
 197 694 267 708 320 732 c 1
 374 732 l 1
 323 455 l 1
 412 489 l 1
 400 417 l 1
 310 383 l 1
EndSplineSet
EndChar
StartChar: oslash
Encoding: 249 248 147
Width: 600
Flags: W
HStem: -9 88<295 307> 432 88<368 386>
VStem: 455 168<314 346>
DStem: 112 52 162 19 17 -54 96 -54 434 412 455 346 229 182 242 109 581 576 661 576 509 496 561 464
Fore
661 576 m 1
 561 464 l 1
 602 427 623 377 623 314 c 0
 623 233 588 144 533 87 c 0
 475 25 391 -9 297 -9 c 0
 246 -9 203 0 162 19 c 1
 96 -54 l 1
 17 -54 l 1
 112 52 l 1
 75 89 55 139 55 196 c 0
 55 284 96 381 158 439 c 0
 214 492 291 520 379 520 c 0
 427 520 472 512 509 496 c 1
 581 576 l 1
 661 576 l 1
455 346 m 1
 242 109 l 1
 259 87 277 79 305 79 c 0
 356 79 397 114 422 182 c 0
 443 238 454 294 455 346 c 1
229 182 m 1
 434 412 l 1
 418 426 401 432 375 432 c 0
 323 432 286 398 260 327 c 0
 243 280 232 228 229 182 c 1
EndSplineSet
EndChar
StartChar: oe
Encoding: 250 339 148
Width: 920
Flags: W
HStem: -9 88<286 305> 222 70<611 641> 442 78<751 781>
VStem: 48 173<164 195> 445 149<183 335> 813 148<383 399>
Fore
881 177 m 1
 930 119 l 1
 850 37 750 -9 654 -9 c 0
 593 -9 545 9 490 53 c 1
 406 5 361 -9 288 -9 c 0
 141 -9 48 70 48 195 c 0
 48 284 89 381 150 439 c 0
 206 491 284 520 369 520 c 0
 450 520 506 499 562 449 c 1
 636 500 699 520 781 520 c 0
 891 520 961 472 961 397 c 0
 961 337 921 288 850 261 c 0
 783 236 703 222 622 222 c 0
 618 222 608 222 597 223 c 1
 595 207 594 193 594 183 c 0
 594 124 634 83 691 83 c 0
 728 83 774 98 811 123 c 0
 829 136 843 146 881 177 c 1
611 292 m 1
 623 292 l 2
 727 292 813 338 813 394 c 0
 813 423 790 442 757 442 c 0
 721 442 686 422 656 383 c 0
 633 353 618 323 611 292 c 1
367 432 m 0
 322 432 293 411 266 358 c 0
 242 311 221 221 221 164 c 0
 221 111 249 79 296 79 c 0
 340 79 375 104 400 153 c 0
 424 199 445 285 445 335 c 0
 445 402 421 432 367 432 c 0
EndSplineSet
EndChar
StartChar: germandbls
Encoding: 251 223 149
Width: 660
Flags: W
HStem: -208 161<-148 -105> -8 88<358 394> 491 20G<121 196> 667 74<449 475>
VStem: 374 187<398 417> 515 187<213 239> 539 132<575 593>
DStem: 176 421 362 515 112 141 297 246
Fore
196 511 m 1xf2
 204 551 l 1
 217 609 249 657 296 688 c 0
 346 722 412 741 475 741 c 0
 589 741 671 674 671 580 c 0xf2
 671 523 648 485 592 449 c 0
 566 432 561 427 561 417 c 0xf8
 561 407 571 400 599 389 c 0
 662 365 702 306 702 239 c 0
 702 103 563 -8 394 -8 c 0
 363 -8 340 -5 291 5 c 1
 317 83 l 1
 341 81 349 80 358 80 c 0
 442 80 515 142 515 213 c 0xf4
 515 252 493 283 448 309 c 0
 404 335 395 342 386 356 c 0
 378 369 374 383 374 398 c 0xf8
 374 426 387 450 409 468 c 0
 417 474 417 474 488 503 c 0
 523 517 539 542 539 582 c 0
 539 631 507 667 463 667 c 0
 412 667 392 637 362 515 c 1
 297 246 l 1
 248 37 248 37 223 -11 c 0
 181 -93 121 -148 37 -181 c 0
 -8 -199 -56 -208 -105 -208 c 0
 -186 -208 -231 -179 -231 -126 c 0
 -231 -82 -194 -47 -148 -47 c 0
 -124 -47 -104 -57 -84 -78 c 0
 -61 -104 -54 -108 -32 -108 c 0
 7 -108 42 -82 65 -38 c 0
 76 -17 76 -17 112 141 c 2
 176 421 l 1
 99 421 l 1
 121 511 l 1
 196 511 l 1xf2
EndSplineSet
EndChar
StartChar: Aogonek
Encoding: 263 260 157
Width: 720
Flags: W
HStem: -179 70<708 754> -20 20G<402 701> 242 78<305 484> 661 20G<413 564>
VStem: 612 93<-101 -70>
DStem: 413 681 428 538 135 210 305 320 413 681 262 242 135 210 216 155
Fore
769 81 m 1
 754 0 l 1
 716 -34 705 -49 705 -70 c 0
 705 -93 725 -109 754 -109 c 0
 766 -109 778 -106 797 -100 c 1
 784 -161 l 1
 757 -174 735 -179 708 -179 c 0
 650 -179 612 -148 612 -101 c 0
 612 -58 630 -38 701 0 c 1
 402 0 l 1
 417 81 l 1
 431 83 l 1
 450 85 l 2
 493 91 507 99 507 119 c 0
 507 128 504 146 500 165 c 2
 484 242 l 1
 262 242 l 1
 216 155 l 2
 201 126 200 125 200 113 c 0
 200 96 217 88 258 83 c 2
 277 81 l 1
 262 0 l 1
 -27 0 l 1
 -12 81 l 1
 55 97 86 120 116 177 c 0
 124 190 130 202 135 210 c 2
 413 681 l 1
 564 681 l 1
 680 178 l 1
 691 134 696 119 701 112 c 0
 712 95 715 94 757 84 c 0
 759 84 764 82 769 81 c 1
469 320 m 1
 428 538 l 1
 305 320 l 1
 469 320 l 1
EndSplineSet
Ligature: 0 0 'liga' A uni0328
EndChar
StartChar: Ccedilla
Encoding: 264 199 158
Width: 700
Flags: W
HStem: -215 47<347 358> -86 33<372 414> -13 92<397 436> 602 92<466 495>
VStem: 78 192<264 298> 401 78<-125 -112>
DStem: 351 -10 397 -13 324 -69 376 -59
Fore
397 -13 m 1
 376 -59 l 1
 394 -55 403 -53 414 -53 c 0
 453 -53 479 -77 479 -114 c 0
 479 -173 428 -215 355 -215 c 0
 297 -215 258 -194 258 -162 c 0
 258 -141 275 -123 295 -123 c 0
 310 -123 316 -128 326 -150 c 0
 331 -161 342 -168 356 -168 c 0
 381 -168 401 -146 401 -119 c 0
 401 -99 389 -86 372 -86 c 0
 365 -86 359 -88 348 -93 c 1
 324 -69 l 1
 351 -10 l 1
 287 -2 242 15 198 45 c 0
 125 96 78 188 78 282 c 0
 78 374 114 473 175 552 c 0
 246 644 349 694 468 694 c 0
 523 694 569 682 636 651 c 1
 648 681 l 1
 704 681 l 1
 754 419 l 1
 680 403 l 1
 674 437 651 485 620 527 c 0
 585 574 535 602 483 602 c 0
 426 602 377 571 336 509 c 0
 295 446 270 356 270 270 c 0
 270 150 332 79 436 79 c 0
 519 79 611 136 669 224 c 1
 738 179 l 1
 659 54 540 -12 397 -13 c 1
EndSplineSet
KernsSLIF: 65 -2 0 0
Ligature: 0 0 'liga' C uni0327
EndChar
StartChar: Eogonek
Encoding: 274 280 168
Width: 720
Flags: W
HStem: -179 70<602 648> 0 84<365 595> 321 87<333 389> 491 20G<501 572> 600 81<138 503>
VStem: 506 93<-101 -70>
Fore
572 511 m 1
 517 209 l 1
 446 209 l 1
 448 225 448 232 448 239 c 0
 448 304 424 322 333 321 c 1
 303 156 l 2
 298 128 298 128 298 119 c 0
 298 95 322 84 376 84 c 0
 495 84 571 126 695 260 c 1
 761 225 l 1
 648 0 l 1
 610 -34 599 -49 599 -70 c 0
 599 -93 619 -109 648 -109 c 0
 660 -109 672 -106 691 -100 c 1
 677 -161 l 1
 651 -174 628 -179 602 -179 c 0
 544 -179 506 -148 506 -101 c 0
 506 -58 523 -39 595 0 c 1
 14 0 l 1
 29 81 l 1
 51 83 l 2
 104 90 119 106 131 168 c 1
 194 513 l 2
 196 524 198 543 198 552 c 0
 198 580 181 595 145 598 c 2
 123 600 l 1
 138 681 l 1
 722 681 l 1
 777 460 l 1
 707 438 l 1
 658 545 582 600 480 600 c 0
 441 600 407 592 394 579 c 1
 381 568 375 553 368 511 c 1
 349 410 l 1
 365 408 372 408 389 408 c 0
 462 408 478 423 501 511 c 1
 572 511 l 1
EndSplineSet
Ligature: 0 0 'liga' E uni0328
EndChar
StartChar: Lcaron
Encoding: 282 317 176
Width: 640
Flags: W
HStem: 0 89<333.82 383> 526 168<662 710>
VStem: 602 178<590 620>
DStem: 194 513 368 513 131 168 305 167
Fore
637 416 m 1
 603 448 l 1
 640 481 668 512 675 527 c 1
 669 526 666 526 662 526 c 0
 625 526 602 551 602 590 c 0
 602 644 653 694 710 694 c 0
 751 694 780 664 780 620 c 0
 780 554 723 472 637 416 c 1
725 234 m 1
 607 0 l 1
 14 0 l 1
 29 81 l 1
 51 83 l 2
 104 90 119 106 131 168 c 1
 194 513 l 1
 196 525 198 542 198 552 c 0
 198 580 181 595 145 598 c 2
 123 600 l 1
 137 681 l 1
 498 681 l 1
 483 600 l 1
 448 598 l 1
 396 591 381 575 368 513 c 1
 305 167 l 1
 300 135 297 118 297 115 c 0
 297 98 316 89 354 89 c 0
 424 89 476 105 534 144 c 0
 580 176 583 179 651 264 c 0
 652 266 654 268 656 271 c 1
 725 234 l 1
EndSplineSet
Ligature: 0 0 'liga' L uni030C
EndChar
StartChar: Scedilla
Encoding: 296 350 190
Width: 700
Flags: W
HStem: -215 47<327 338> -13 88<377 411> 606 88<414 446>
VStem: 381 78<-125 -112> 534 197<172 228>
DStem: 332 -6 377 -12 304 -69 356 -59
Fore
377 -12 m 1
 356 -59 l 1
 374 -55 383 -53 393 -53 c 0
 433 -53 459 -77 459 -114 c 0
 459 -173 408 -215 335 -215 c 0
 277 -215 238 -194 238 -162 c 0
 238 -141 255 -123 275 -123 c 0
 290 -123 296 -128 306 -150 c 0
 311 -161 322 -168 336 -168 c 0
 361 -168 381 -146 381 -119 c 0
 381 -99 369 -86 352 -86 c 0
 345 -86 339 -88 328 -93 c 1
 304 -69 l 1
 332 -6 l 1
 277 3 235 18 191 45 c 1
 169 0 l 1
 103 0 l 1
 59 256 l 1
 136 269 l 1
 182 140 267 75 390 75 c 0
 474 75 534 116 534 172 c 0
 534 194 524 216 508 230 c 0
 493 242 482 247 444 256 c 2
 314 287 l 2
 246 304 205 322 175 350 c 0
 142 380 122 428 122 477 c 0
 122 604 243 694 414 694 c 0
 492 694 565 676 631 638 c 1
 652 681 l 1
 715 681 l 1
 723 452 l 1
 647 452 l 1
 631 501 616 526 589 550 c 0
 549 586 494 606 436 606 c 0
 364 606 309 571 309 526 c 0
 309 508 318 492 334 480 c 0
 344 473 367 465 415 452 c 2
 541 419 l 2
 606 402 648 382 675 357 c 0
 712 323 731 278 731 228 c 0
 731 93 589 -13 409 -13 c 0
 398 -13 391 -13 377 -12 c 1
EndSplineSet
Ligature: 0 0 'liga' S uni0327
EndChar
StartChar: Tcommaaccent
Encoding: 309 354 203
Width: 700
Flags: W
HStem: -221 168<306 354> 0 21G<148 536> 661 20G<171 753>
VStem: 246 178<-157 -127>
DStem: 364 600 538 600 285 168 459 168
Fore
281 -331 m 1
 247 -299 l 1
 284 -266 312 -235 319 -220 c 1
 313 -221 310 -221 306 -221 c 0
 269 -221 246 -196 246 -157 c 0
 246 -103 297 -53 354 -53 c 0
 395 -53 424 -83 424 -127 c 0
 424 -193 367 -275 281 -331 c 1
538 600 m 1
 459 168 l 1
 458 161 456 139 456 129 c 0
 456 98 472 86 518 83 c 2
 550 81 l 1
 536 0 l 1
 148 0 l 1
 162 81 l 1
 195 83 l 2
 255 87 272 102 285 168 c 1
 364 600 l 1
 260 592 208 558 129 448 c 1
 70 477 l 1
 171 681 l 1
 753 681 l 1
 802 464 l 1
 730 448 l 1
 692 546 631 594 538 600 c 1
EndSplineSet
Ligature: 0 0 'liga' T uni0327
EndChar
StartChar: Iogonek
Encoding: 313 302 207
Width: 380
Flags: W
HStem: -179 70<315 361> -20 20G<14 309> 661 20G<137 485>
VStem: 219 93<-101 -70>
DStem: 194 513 368 513 131 168 305 168
Fore
376 81 m 1
 361 0 l 1
 323 -34 312 -49 312 -70 c 0
 312 -93 332 -109 361 -109 c 0
 373 -109 385 -106 404 -100 c 1
 391 -161 l 1
 365 -174 342 -179 315 -179 c 0
 257 -179 219 -148 219 -101 c 0
 219 -58 237 -38 309 0 c 1
 14 0 l 1
 29 81 l 1
 51 83 l 2
 104 90 118 106 131 168 c 1
 194 513 l 1
 195 521 197 543 197 552 c 0
 197 580 180 595 144 598 c 2
 123 600 l 1
 137 681 l 1
 485 681 l 1
 470 600 l 1
 448 598 l 2
 395 591 381 575 368 513 c 1
 305 168 l 1
 304 161 302 137 302 128 c 0
 302 101 319 86 355 83 c 2
 376 81 l 1
EndSplineSet
Ligature: 0 0 'liga' I uni0328
EndChar
StartChar: Kcommaaccent
Encoding: 314 310 208
Width: 780
Flags: W
HStem: -221 168<346 394> 0 21G<14 362 440 798> 661 20G<137 486 540 879>
VStem: 286 178<-157 -127>
DStem: 421 335 559 438 510 164 694 191 550 540 667 517 344 378 559 438
Fore
321 -331 m 1
 287 -299 l 1
 324 -266 352 -235 359 -220 c 1
 353 -221 350 -221 346 -221 c 0
 309 -221 286 -196 286 -157 c 0
 286 -103 337 -53 394 -53 c 0
 435 -53 464 -83 464 -127 c 0
 464 -193 407 -275 321 -331 c 1
559 438 m 1
 694 191 l 2
 739 109 751 98 813 81 c 1
 798 0 l 1
 440 0 l 1
 454 81 l 1
 465 83 l 2
 518 90 528 96 528 116 c 0
 528 124 522 141 510 164 c 2
 421 335 l 1
 322 260 l 1
 305 168 l 1
 304 159 302 138 302 129 c 0
 302 101 319 86 355 83 c 2
 377 81 l 1
 362 0 l 1
 14 0 l 1
 29 81 l 1
 51 83 l 2
 104 90 119 106 131 168 c 1
 194 513 l 1
 196 525 198 542 198 552 c 0
 198 580 181 595 145 598 c 2
 123 600 l 1
 137 681 l 1
 486 681 l 1
 471 600 l 1
 448 598 l 2
 396 591 381 576 368 513 c 1
 344 378 l 1
 550 540 l 2
 580 564 589 572 589 579 c 0
 589 588 577 593 554 596 c 2
 526 600 l 1
 540 681 l 1
 879 681 l 1
 864 600 l 1
 785 588 736 567 667 517 c 2
 559 438 l 1
EndSplineSet
Ligature: 0 0 'liga' K uni0327
EndChar
StartChar: Lcommaaccent
Encoding: 315 315 209
Width: 640
Flags: W
HStem: -221 168<276 324> 0 89<333.82 383> 661 20G<137 498>
VStem: 216 178<-157 -127>
DStem: 194 513 368 513 131 168 305 167
Fore
251 -331 m 1
 217 -299 l 1
 254 -266 282 -235 289 -220 c 1
 283 -221 280 -221 276 -221 c 0
 239 -221 216 -196 216 -157 c 0
 216 -103 267 -53 324 -53 c 0
 365 -53 394 -83 394 -127 c 0
 394 -193 337 -275 251 -331 c 1
725 234 m 1
 607 0 l 1
 14 0 l 1
 29 81 l 1
 51 83 l 2
 104 90 119 106 131 168 c 1
 194 513 l 1
 196 525 198 542 198 552 c 0
 198 580 181 595 145 598 c 2
 123 600 l 1
 137 681 l 1
 498 681 l 1
 483 600 l 1
 448 598 l 1
 396 591 381 575 368 513 c 1
 305 167 l 1
 300 135 297 118 297 115 c 0
 297 98 316 89 354 89 c 0
 424 89 476 105 534 144 c 0
 580 176 583 179 651 264 c 0
 652 266 654 268 656 271 c 1
 725 234 l 1
EndSplineSet
Ligature: 0 0 'liga' L uni0327
EndChar
StartChar: Ncommaaccent
Encoding: 316 325 210
Width: 735
Flags: W
HStem: -221 168<326 374> 0 21G<14 283 510 634> 661 20G<138 427 576 845>
VStem: 266 178<-157 -127>
DStem: 194 513 296 549 132 168 227 168 296 549 427 681 510 0 586 256 632 513 727 513 586 256 634 0
Fore
301 -331 m 1
 267 -299 l 1
 304 -266 332 -235 339 -220 c 1
 333 -221 330 -221 326 -221 c 0
 289 -221 266 -196 266 -157 c 0
 266 -103 317 -53 374 -53 c 0
 415 -53 444 -83 444 -127 c 0
 444 -193 387 -275 301 -331 c 1
634 0 m 1
 510 0 l 1
 296 549 l 1
 227 168 l 1
 225 159 223 138 223 129 c 0
 223 101 240 86 276 83 c 2
 298 81 l 1
 283 0 l 1
 14 0 l 1
 29 81 l 1
 51 83 l 2
 104 90 119 105 132 168 c 1
 194 513 l 2
 196 524 198 543 198 552 c 0
 198 580 181 595 145 598 c 2
 123 600 l 1
 138 681 l 1
 427 681 l 1
 586 256 l 1
 632 513 l 1
 634 523 636 543 636 552 c 0
 636 580 619 595 583 598 c 2
 561 600 l 1
 576 681 l 1
 845 681 l 1
 830 600 l 1
 808 598 l 2
 755 591 740 576 727 513 c 1
 634 0 l 1
EndSplineSet
Ligature: 0 0 'liga' N uni0327
EndChar
StartChar: Rcommaaccent
Encoding: 318 342 212
Width: 740
Flags: W
HStem: -221 168<326 374> 0 21G<14 362 547 750> 299 91<346 404> 600 81<137 479>
VStem: 266 178<-157 -127> 576 186<511 528>
Fore
301 -331 m 1
 267 -299 l 1
 304 -266 332 -235 339 -220 c 1
 333 -221 330 -221 326 -221 c 0
 289 -221 266 -196 266 -157 c 0
 266 -103 317 -53 374 -53 c 0
 415 -53 444 -83 444 -127 c 0
 444 -193 387 -275 301 -331 c 1
329 299 m 1
 305 168 l 1
 304 160 302 137 302 128 c 0
 302 101 319 86 355 83 c 2
 377 81 l 1
 362 0 l 1
 14 0 l 1
 29 81 l 1
 51 83 l 2
 104 90 119 106 131 168 c 1
 194 513 l 1
 196 525 198 542 198 552 c 0
 198 580 181 595 145 598 c 2
 123 600 l 1
 137 681 l 1
 512 681 l 2
 607 681 661 671 699 647 c 0
 738 622 762 577 762 526 c 0
 762 470 734 410 689 374 c 0
 658 349 627 334 582 324 c 1
 655 173 l 1
 693 102 701 95 765 81 c 1
 750 0 l 1
 547 0 l 1
 404 299 l 1
 329 299 l 1
372 537 m 1
 346 391 l 1
 354 390 358 390 363 390 c 0
 446 390 488 397 517 415 c 0
 553 437 576 478 576 517 c 0
 576 572 535 600 457 600 c 0
 422 600 397 594 387 582 c 1
 381 577 381 577 372 537 c 1
EndSplineSet
Ligature: 0 0 'liga' R uni0327
EndChar
StartChar: Gcommaaccent
Encoding: 319 290 213
Width: 760
Flags: W
HStem: -221 168<336 384> -13 96<364 409> 598 96<465 494>
VStem: 77 187<252 294> 276 178<-157 -127>
Fore
311 -331 m 1
 277 -299 l 1
 314 -266 342 -235 349 -220 c 1
 343 -221 340 -221 336 -221 c 0
 299 -221 276 -196 276 -157 c 0
 276 -103 327 -53 384 -53 c 0
 425 -53 454 -83 454 -127 c 0
 454 -193 397 -275 311 -331 c 1
726 681 m 1
 768 436 l 1
 694 423 l 1
 690 431 l 2
 646 514 629 536 586 565 c 0
 553 586 518 598 484 598 c 0
 364 598 264 449 264 269 c 0
 264 154 319 83 409 83 c 0
 492 83 567 145 567 212 c 0
 567 231 560 246 547 254 c 0
 537 260 535 260 503 266 c 2
 492 268 l 1
 506 349 l 1
 828 349 l 1
 813 268 l 1
 794 264 l 2
 743 252 732 240 724 192 c 1
 689 0 l 1
 580 0 l 1
 569 51 l 1
 512 9 441 -13 364 -13 c 0
 192 -13 77 104 77 278 c 0
 77 505 253 694 465 694 c 0
 531 694 582 680 652 641 c 1
 671 681 l 1
 726 681 l 1
EndSplineSet
Ligature: 0 0 'liga' G uni0327
EndChar
StartChar: Uogonek
Encoding: 321 370 215
Width: 740
Flags: W
HStem: -179 70<467 513> -13 100<362 426> 661 20G<127 475 586 855>
VStem: 122 185<147 188> 371 93<-101 -70>
DStem: 183 513 357 513 130 220 315 278 642 513 738 513 598 270 687 232
Fore
586 681 m 1
 855 681 l 1
 840 600 l 1
 818 598 l 2
 765 591 750 576 738 513 c 1
 687 232 l 1
 665 122 638 81 544 20 c 0
 487 -17 464 -43 464 -70 c 0
 464 -93 484 -109 513 -109 c 0
 525 -109 537 -106 556 -100 c 1
 543 -161 l 1
 517 -174 494 -179 467 -179 c 0
 409 -179 371 -148 371 -101 c 0
 371 -60 389 -39 451 -5 c 1
 419 -11 394 -13 362 -13 c 0
 218 -13 122 51 122 147 c 0
 122 162 126 195 130 220 c 1
 183 513 l 2
 185 524 187 543 187 552 c 0
 187 580 170 595 134 598 c 2
 112 600 l 1
 127 681 l 1
 475 681 l 1
 460 600 l 1
 438 598 l 2
 385 591 370 576 357 513 c 1
 315 278 l 1
 311 260 307 209 307 188 c 0
 307 124 350 87 426 87 c 0
 478 87 529 107 554 138 c 0
 574 162 585 196 598 270 c 1
 642 513 l 1
 644 522 646 543 646 552 c 0
 646 580 629 595 593 598 c 2
 571 600 l 1
 586 681 l 1
EndSplineSet
Ligature: 0 0 'liga' U uni0328
EndChar
StartChar: aogonek
Encoding: 329 261 223
Width: 680
Flags: W
HStem: -179 70<624 670> -179 278<624 639> -9 100<279 322> 432 88<382 409>
VStem: 84 169<180 204> 528 93<-101 -70>
Fore
692 123 m 1x5c
 735 70 l 1
 640 -19 621 -43 621 -70 c 0
 621 -93 641 -109 670 -109 c 0
 682 -109 694 -106 713 -100 c 1
 700 -161 l 1
 673 -174 651 -179 624 -179 c 0
 566 -179 528 -148 528 -101 c 0
 528 -60 548 -36 611 -3 c 1
 592 -8 581 -9 567 -9 c 0
 503 -9 460 19 446 70 c 1
 403 19 343 -9 279 -9 c 0xbc
 166 -9 84 80 84 204 c 0
 84 374 222 520 382 520 c 0
 432 520 482 503 518 473 c 1
 525 511 l 1
 667 511 l 1
 609 189 l 1
 601 152 601 151 601 139 c 0
 601 116 617 99 639 99 c 0
 655 99 670 106 692 123 c 1x5c
494 400 m 1
 459 422 434 432 409 432 c 0
 373 432 338 411 311 373 c 0
 278 328 253 245 253 182 c 0
 253 126 280 91 322 91 c 0
 360 91 394 117 425 170 c 0
 450 213 465 264 494 400 c 1
EndSplineSet
Ligature: 0 0 'liga' a uni0328
EndChar
StartChar: ccedilla
Encoding: 332 231 226
Width: 560
Flags: W
HStem: -215 47<249 267> -86 33<274 316> -9 96<301 329> 442 78<377 402>
VStem: 58 168<184 218> 303 78<-125 -112> 433 164<391 406>
DStem: 254 -7 301 -9 226 -69 278 -59
Fore
301 -9 m 1
 278 -59 l 1
 296 -55 305 -53 316 -53 c 0
 355 -53 381 -77 381 -114 c 0
 381 -173 330 -215 257 -215 c 0
 199 -215 160 -194 160 -162 c 0
 160 -141 177 -123 197 -123 c 0
 212 -123 218 -128 228 -150 c 0
 233 -161 244 -168 258 -168 c 0
 283 -168 303 -146 303 -119 c 0
 303 -99 291 -86 274 -86 c 0
 267 -86 261 -88 250 -93 c 1
 226 -69 l 1
 254 -7 l 1
 130 11 58 90 58 206 c 0
 58 372 220 520 402 520 c 0
 510 520 597 463 597 391 c 0
 597 342 552 301 499 301 c 0
 457 301 425 327 425 361 c 0
 425 367 426 373 429 385 c 0
 432 393 433 400 433 406 c 0
 433 427 413 442 386 442 c 0
 306 442 226 319 226 195 c 0
 226 126 263 87 329 87 c 0
 387 87 445 113 517 171 c 1
 570 113 l 1
 501 41 395 -7 301 -9 c 1
EndSplineSet
Ligature: 0 0 'liga' c uni0327
EndChar
StartChar: dcaron
Encoding: 333 271 227
Width: 680
Flags: W
HStem: -9 96<257 298> 432 88<359 382> 612 82<437 445>
VStem: 60 168<182 208> 692 178<636 666>
Fore
727 462 m 1
 693 494 l 1
 730 527 758 558 765 573 c 1
 759 572 756 572 752 572 c 0
 715 572 692 597 692 636 c 0
 692 690 743 740 800 740 c 0
 841 740 870 710 870 666 c 0
 870 600 813 518 727 462 c 1
671 129 m 1
 714 72 l 1
 665 22 599 -9 542 -9 c 0
 478 -9 435 20 422 72 c 1
 382 35 l 1
 349 8 301 -9 257 -9 c 0
 144 -9 60 83 60 206 c 0
 60 372 200 520 359 520 c 0
 398 520 444 507 480 486 c 1
 489 539 l 1
 492 555 494 570 494 577 c 0
 494 585 491 593 488 596 c 0
 479 604 453 612 437 612 c 2
 425 612 l 1
 440 694 l 1
 506 694 575 708 629 732 c 1
 686 732 l 1
 591 209 l 1
 586 179 583 156 583 141 c 0
 583 119 599 103 620 103 c 0
 636 103 638 104 666 125 c 2
 666 125 669 127 671 129 c 1
461 404 m 2
 459 406 l 2
 439 422 410 432 382 432 c 0
 340 432 306 411 278 366 c 0
 249 322 228 244 228 185 c 0
 228 123 254 87 298 87 c 0
 327 87 356 105 383 139 c 0
 418 184 437 247 464 402 c 1
 463 403 463 403 461 404 c 2
EndSplineSet
Ligature: 0 0 'liga' d uni030C
EndChar
StartChar: eogonek
Encoding: 340 281 234
Width: 560
Flags: W
HStem: -179 70<364 410> -9 96<295 328> 222 70<246 284> 442 78<391 420>
VStem: 59 170<180 203> 268 93<-101 -70> 448 148<383 399>
Fore
516 174 m 1
 570 115 l 1
 545 89 534 80 441 20 c 0
 386 -15 361 -43 361 -70 c 0
 361 -93 381 -109 410 -109 c 0
 422 -109 434 -106 453 -100 c 1
 440 -161 l 1
 413 -174 391 -179 364 -179 c 0
 307 -179 268 -148 268 -101 c 0
 268 -60 286 -39 348 -5 c 1
 326 -8 313 -9 295 -9 c 0
 155 -9 59 78 59 203 c 0
 59 376 223 520 420 520 c 0
 526 520 596 471 596 397 c 0
 596 337 557 289 485 261 c 0
 418 235 343 222 258 222 c 0
 254 222 243 222 232 223 c 1
 230 206 229 193 229 180 c 0
 229 124 268 87 328 87 c 0
 388 87 447 115 516 174 c 1
246 292 m 1
 258 292 l 2
 362 292 448 338 448 394 c 0
 448 422 425 442 392 442 c 0
 356 442 320 421 291 383 c 0
 268 354 252 321 246 292 c 1
EndSplineSet
Ligature: 0 0 'liga' e uni0328
EndChar
StartChar: lcaron
Encoding: 347 318 241
Width: 380
Flags: W
HStem: -9 108<239 312> 612 82<137 142>
VStem: 391 178<636 666>
DStem: 189 539 383 732 113 117 279 160
Fore
426 462 m 1
 392 494 l 1
 429 527 457 558 464 573 c 1
 458 572 455 572 451 572 c 0
 414 572 391 597 391 636 c 0
 391 690 442 740 499 740 c 0
 540 740 569 710 569 666 c 0
 569 600 512 518 426 462 c 1
370 117 m 1
 410 57 l 1
 355 14 296 -9 239 -9 c 0
 161 -9 109 28 109 84 c 0
 109 91 110 103 113 117 c 1
 189 539 l 1
 192 551 194 571 194 577 c 0
 194 585 191 593 188 596 c 0
 179 604 154 612 137 612 c 2
 126 612 l 1
 140 694 l 1
 206 694 276 708 329 732 c 1
 383 732 l 1
 279 160 l 2
 277 150 276 141 276 134 c 0
 276 114 292 99 312 99 c 0
 327 99 346 105 370 117 c 1
EndSplineSet
Ligature: 0 0 'liga' l uni030C
EndChar
StartChar: scommaaccent
Encoding: 360 537 254
Width: 540
Flags: W
HStem: -218 168<226 274> -9 82<255 277> 438 82<344 369>
VStem: 166 178<-154 -124> 357 197<138 183>
Fore
201 -328 m 1
 167 -296 l 1
 204 -263 232 -232 239 -217 c 1
 233 -218 230 -218 226 -218 c 0
 189 -218 166 -193 166 -154 c 0
 166 -100 217 -50 274 -50 c 0
 315 -50 344 -80 344 -124 c 0
 344 -190 287 -272 201 -328 c 1
358 328 m 2
 437 303 l 2
 470 293 493 282 510 270 c 0
 536 251 554 216 554 183 c 0
 554 75 428 -9 265 -9 c 0
 191 -9 118 9 71 39 c 0
 46 55 32 78 32 103 c 0
 32 137 60 163 98 163 c 0
 134 163 154 151 192 108 c 0
 213 83 235 73 267 73 c 0
 318 73 357 100 357 138 c 0
 357 164 343 176 299 189 c 2
 228 209 l 2
 138 235 97 275 97 338 c 0
 97 444 206 520 357 520 c 0
 478 520 573 474 573 416 c 0
 573 385 546 361 512 361 c 0
 480 361 462 371 433 407 c 0
 414 430 395 438 360 438 c 0
 318 438 290 417 290 385 c 0
 290 372 295 359 304 352 c 1
 313 343 318 341 358 328 c 2
EndSplineSet
Ligature: 0 0 'liga' s uni0326
EndChar
StartChar: tcaron
Encoding: 361 357 255
Width: 440
Flags: W
HStem: -9 108<248 315> 421 90<350 472> 572 168<462 510>
VStem: 118 164<90 130> 402 178<636 666>
DStem: 175 421 333 421 126 147 284 152
Fore
350 511 m 1
 422 511 l 1
 451 540 469 560 475 573 c 1
 469 572 466 572 462 572 c 0
 425 572 402 597 402 636 c 0
 402 690 453 740 510 740 c 0
 551 740 580 710 580 666 c 0
 580 614 546 554 486 499 c 1
 472 421 l 1
 333 421 l 1
 284 152 l 1
 283 144 282 135 282 130 c 0
 282 111 295 99 315 99 c 0
 336 99 387 122 421 147 c 1
 463 80 l 1
 406 25 324 -9 248 -9 c 0
 165 -9 118 27 118 90 c 0
 118 101 120 115 126 147 c 1
 175 421 l 1
 106 421 l 1
 118 487 l 1
 208 511 253 557 287 659 c 1
 377 659 l 1
 350 511 l 1
EndSplineSet
Ligature: 0 0 'liga' t uni030C
EndChar
StartChar: tcommaaccent
Encoding: 373 355 267
Width: 440
Flags: W
HStem: -218 168<176 224> -9 108<248 315> 421 90<350 472>
DStem: 175 421 333 421 126 147 284 152
Fore
151 -328 m 1
 117 -296 l 1
 154 -263 182 -232 189 -217 c 1
 183 -218 180 -218 176 -218 c 0
 139 -218 116 -193 116 -154 c 0
 116 -100 167 -50 224 -50 c 0
 265 -50 294 -80 294 -124 c 0
 294 -190 237 -272 151 -328 c 1
333 421 m 1
 284 152 l 1
 283 144 282 135 282 130 c 0
 282 111 295 99 315 99 c 0
 336 99 387 122 421 147 c 1
 463 80 l 1
 406 25 324 -9 248 -9 c 0
 165 -9 118 27 118 90 c 0
 118 101 120 115 126 147 c 1
 175 421 l 1
 106 421 l 1
 118 487 l 1
 208 511 253 557 287 659 c 1
 377 659 l 1
 350 511 l 1
 488 511 l 1
 472 421 l 1
 333 421 l 1
EndSplineSet
Ligature: 0 0 'liga' t uni0327
EndChar
StartChar: kcommaaccent
Encoding: 377 311 271
Width: 700
Flags: W
HStem: -218 168<306 354> -9 117<540 620> 412 108<576 650> 612 82<143 148>
VStem: 246 178<-154 -124>
DStem: 195 539 388 732 97 0 303 261
Fore
281 -328 m 1
 247 -296 l 1
 284 -263 312 -232 319 -217 c 1
 313 -218 310 -218 306 -218 c 0
 269 -218 246 -193 246 -154 c 0
 246 -100 297 -50 354 -50 c 0
 395 -50 424 -80 424 -124 c 0
 424 -190 367 -272 281 -328 c 1
97 0 m 1
 195 539 l 2
 198 556 200 570 200 577 c 0
 200 585 197 593 194 596 c 0
 185 604 159 612 143 612 c 2
 131 612 l 1
 146 694 l 1
 212 694 281 708 335 732 c 1
 388 732 l 1
 303 261 l 1
 356 345 400 395 457 438 c 0
 530 493 593 520 650 520 c 0
 698 520 732 493 732 456 c 0
 732 414 701 383 656 383 c 0
 632 383 619 388 595 404 c 0
 587 410 582 412 576 412 c 0
 555 412 533 397 497 360 c 1
 512 235 525 187 555 146 c 0
 575 119 594 108 620 108 c 0
 637 108 645 111 676 127 c 2
 685 132 l 1
 727 73 l 1
 691 32 597 -9 540 -9 c 0
 488 -9 441 17 405 65 c 0
 367 115 355 159 356 243 c 1
 340 224 329 210 319 194 c 0
 305 169 295 146 289 124 c 2
 258 11 l 1
 255 0 l 1
 97 0 l 1
EndSplineSet
Ligature: 0 0 'liga' k uni0327
EndChar
StartChar: lcommaaccent
Encoding: 378 316 272
Width: 380
Flags: W
HStem: -218 168<146 194> -9 108<239 312> 612 82<137 148>
DStem: 189 539 383 732 113 117 279 160
Fore
121 -328 m 1
 87 -296 l 1
 124 -263 152 -232 159 -217 c 1
 153 -218 150 -218 146 -218 c 0
 109 -218 86 -193 86 -154 c 0
 86 -100 137 -50 194 -50 c 0
 235 -50 264 -80 264 -124 c 0
 264 -190 207 -272 121 -328 c 1
370 117 m 1
 410 57 l 1
 355 14 296 -9 239 -9 c 0
 161 -9 109 28 109 84 c 0
 109 91 110 103 113 117 c 1
 189 539 l 1
 192 551 194 571 194 577 c 0
 194 585 191 593 188 596 c 0
 179 604 154 612 137 612 c 2
 126 612 l 1
 140 694 l 1
 206 694 276 708 329 732 c 1
 383 732 l 1
 279 160 l 2
 277 150 276 141 276 134 c 0
 276 114 292 99 312 99 c 0
 327 99 346 105 370 117 c 1
EndSplineSet
Ligature: 0 0 'liga' l uni0327
EndChar
StartChar: ncommaaccent
Encoding: 379 326 273
Width: 680
Flags: W
HStem: -218 168<296 344> 0 21G<91 249> 491 20G<290 342>
VStem: 236 178<-154 -124> 432 165<89 133>
DStem: 150 321 317 373 91 0 249 0 476 341 636 358 437 134 605 183
Fore
271 -328 m 1
 237 -296 l 1
 274 -263 302 -232 309 -217 c 1
 303 -218 300 -218 296 -218 c 0
 259 -218 236 -193 236 -154 c 0
 236 -100 287 -50 344 -50 c 0
 385 -50 414 -80 414 -124 c 0
 414 -190 357 -272 271 -328 c 1
249 0 m 1
 91 0 l 1
 150 321 l 1
 152 334 154 351 154 358 c 0
 154 367 152 374 148 378 c 0
 139 385 112 394 95 394 c 2
 83 394 l 1
 98 476 l 1
 173 480 214 487 290 511 c 1
 342 511 l 1
 333 460 l 1
 376 496 442 520 499 520 c 0
 583 520 643 475 643 412 c 0
 643 398 642 387 636 358 c 1
 605 183 l 1
 597 142 597 142 597 133 c 0
 597 112 611 99 634 99 c 0
 647 99 655 102 676 115 c 1
 715 59 l 1
 658 12 609 -9 557 -9 c 0
 483 -9 432 31 432 89 c 0
 432 100 434 116 437 134 c 1
 476 341 l 2
 477 347 477 349 477 359 c 0
 477 390 454 408 416 408 c 0
 381 408 345 395 317 373 c 1
 249 0 l 1
EndSplineSet
Ligature: 0 0 'liga' n uni0327
EndChar
StartChar: rcommaaccent
Encoding: 381 343 275
Width: 500
Flags: W
HStem: -218 168<136 184> 0 21G<92 250> 359 161<482 494>
VStem: 76 178<-154 -124>
Fore
111 -328 m 1
 77 -296 l 1
 114 -263 142 -232 149 -217 c 1
 143 -218 140 -218 136 -218 c 0
 99 -218 76 -193 76 -154 c 0
 76 -100 127 -50 184 -50 c 0
 225 -50 254 -80 254 -124 c 0
 254 -190 197 -272 111 -328 c 1
92 0 m 1
 151 321 l 1
 153 334 155 351 155 358 c 0
 155 367 153 374 149 378 c 0
 140 385 113 394 96 394 c 2
 84 394 l 1
 99 476 l 1
 174 480 215 487 291 511 c 1
 343 511 l 1
 329 435 l 1
 374 491 428 520 484 520 c 0
 541 520 582 487 582 442 c 0
 582 395 543 359 492 359 c 0
 468 359 452 365 428 383 c 0
 415 393 409 396 399 396 c 0
 380 396 357 379 341 355 c 0
 321 323 312 297 295 227 c 0
 287 193 276 139 271 112 c 2
 250 0 l 1
 92 0 l 1
EndSplineSet
Ligature: 0 0 'liga' r uni0327
EndChar
StartChar: uogonek
Encoding: 383 371 277
Width: 680
Flags: W
HStem: -179 70<611 657> -9 21G<217 290 530.5 566.5> 491 20G<290 342 508 666>
VStem: 515 93<-101 -70>
DStem: 150 321 342 511 117 142 287 205 508 511 666 511 441 142 609 195
Fore
508 511 m 1
 666 511 l 1
 609 195 l 1
 602 159 601 151 601 139 c 0
 601 117 617 99 636 99 c 0
 649 99 658 104 681 122 c 1
 720 64 l 1
 717 61 714 58 714 57 c 1
 711 55 701 47 686 34 c 0
 668 18 662 12 629 -27 c 0
 612 -47 608 -55 608 -70 c 0
 608 -93 628 -109 657 -109 c 0
 669 -109 680 -106 700 -100 c 1
 686 -161 l 1
 660 -174 637 -179 611 -179 c 0
 553 -179 515 -148 515 -101 c 0
 515 -61 532 -40 592 -7 c 1
 578 -8 571 -9 562 -9 c 0
 499 -9 461 12 443 57 c 1
 367 8 320 -9 260 -9 c 0
 174 -9 113 35 113 97 c 0
 113 107 115 132 117 142 c 2
 150 321 l 1
 152 334 154 351 154 358 c 0
 154 367 152 374 148 378 c 0
 139 385 112 394 95 394 c 2
 83 394 l 1
 98 476 l 1
 173 480 214 487 290 511 c 1
 342 511 l 1
 287 205 l 1
 281 162 281 160 281 151 c 0
 281 124 308 103 343 103 c 0
 376 103 409 116 441 142 c 1
 508 511 l 1
EndSplineSet
Ligature: 0 0 'liga' u uni0328
EndChar
StartChar: scedilla
Encoding: 385 351 279
Width: 540
Flags: W
HStem: -215 47<247 258> -86 159<265 276> 438 82<351 379>
VStem: 97 193<338 385> 301 78<-125 -112> 357 197<138 183>
DStem: 251 -9 299 -8 224 -69 276 -59
Fore
299 -8 m 1xf4
 276 -59 l 1
 294 -55 303 -53 314 -53 c 0
 353 -53 379 -77 379 -114 c 0
 379 -173 328 -215 255 -215 c 0
 197 -215 158 -194 158 -162 c 0
 158 -141 175 -123 195 -123 c 0
 210 -123 216 -128 226 -150 c 0
 231 -161 242 -168 256 -168 c 0
 281 -168 301 -146 301 -119 c 0xf8
 301 -99 289 -86 272 -86 c 0
 265 -86 259 -88 248 -93 c 1
 224 -69 l 1
 251 -9 l 1
 121 -3 32 42 32 103 c 0
 32 137 60 163 98 163 c 0
 134 163 154 151 192 108 c 0
 213 83 235 73 267 73 c 0
 318 73 357 100 357 138 c 0
 357 164 343 176 299 189 c 2
 228 209 l 2
 138 235 97 275 97 338 c 0
 97 444 206 520 357 520 c 0
 478 520 573 474 573 416 c 0
 573 385 546 361 512 361 c 0
 480 361 462 371 433 407 c 0
 414 430 395 438 360 438 c 0
 318 438 290 417 290 385 c 0
 290 372 295 359 304 352 c 1
 313 343 318 341 358 328 c 2
 437 303 l 2
 470 293 493 282 510 270 c 0
 536 251 554 216 554 183 c 0
 554 114 500 50 414 17 c 0
 379 4 344 -4 299 -8 c 1xf4
EndSplineSet
Ligature: 0 0 'liga' s uni0327
EndChar
StartChar: gcommaaccent
Encoding: 386 291 280
Width: 620
Flags: W
HStem: -218 194<108 136> -208 92<237 262> -9 100<276 323> 438 82<373 406>
VStem: 79 173<183 206>
Fore
111 -328 m 1xb8
 77 -296 l 1
 114 -263 142 -232 149 -217 c 1
 143 -218 140 -218 136 -218 c 0
 99 -218 76 -193 76 -154 c 0
 76 -100 127 -50 184 -50 c 0
 225 -50 254 -80 254 -124 c 0
 254 -190 197 -272 111 -328 c 1xb8
669 511 m 1
 594 99 l 2
 570 -32 546 -84 484 -131 c 0
 421 -180 331 -208 237 -208 c 0x78
 112 -208 21 -161 21 -97 c 0
 21 -56 59 -24 108 -24 c 0xb8
 138 -24 162 -39 176 -68 c 0
 190 -94 191 -96 207 -104 c 0
 221 -112 239 -116 257 -116 c 0x78
 303 -116 348 -94 376 -57 c 0
 399 -28 412 4 434 81 c 1
 426 74 l 1
 385 32 377 24 360 14 c 0
 335 -2 309 -9 276 -9 c 0
 163 -9 79 81 79 204 c 0
 79 369 219 520 373 520 c 0
 420 520 449 511 497 483 c 2
 506 478 l 1
 512 511 l 1
 669 511 l 1
473 308 m 1
 492 401 l 1
 450 431 433 438 406 438 c 0
 368 438 333 417 309 382 c 0
 275 330 252 253 252 186 c 0
 252 126 278 91 323 91 c 0
 388 91 448 177 473 308 c 1
EndSplineSet
Ligature: 0 0 'liga' g uni0327
EndChar
StartChar: iogonek
Encoding: 387 303 281
Width: 380
Flags: W
HStem: -179 70<274 320> -29 20G<240 251> 491 20G<290 342> 569 193<262 297>
VStem: 178 93<-101 -70>
DStem: 150 321 342 511 117 139 285 195
Fore
378 121 m 1
 420 65 l 1
 404 52 392 43 371 30 c 0
 314 -4 314 -4 299 -19 c 0
 278 -41 271 -53 271 -70 c 0
 271 -93 291 -109 320 -109 c 0
 332 -109 344 -106 363 -100 c 1
 350 -161 l 1
 323 -174 301 -179 274 -179 c 0
 217 -179 178 -148 178 -101 c 0
 178 -61 195 -40 251 -9 c 1
 240 -9 l 2
 163 -9 111 31 111 90 c 0
 111 104 112 116 117 139 c 1
 150 321 l 1
 152 334 154 351 154 358 c 0
 154 367 152 374 148 378 c 0
 139 385 112 394 95 394 c 2
 83 394 l 1
 98 476 l 1
 173 480 214 487 290 511 c 1
 342 511 l 1
 285 195 l 1
 282 181 281 172 280 168 c 0
 277 154 275 141 275 134 c 0
 275 115 293 99 314 99 c 0
 327 99 350 107 378 121 c 1
297 762 m 0
 345 762 377 729 377 682 c 0
 377 625 320 569 262 569 c 0
 216 569 184 602 184 649 c 0
 184 707 240 762 297 762 c 0
EndSplineSet
Ligature: 0 0 'liga' i uni0328
EndChar
StartChar: Scommaaccent
Encoding: 388 536 282
Width: 700
Flags: W
HStem: -221 168<346 394> -13 88<378 412> 606 88<414 446>
VStem: 286 178<-157 -127> 534 197<172 228>
Fore
321 -331 m 1
 287 -299 l 1
 324 -266 352 -235 359 -220 c 1
 353 -221 350 -221 346 -221 c 0
 309 -221 286 -196 286 -157 c 0
 286 -103 337 -53 394 -53 c 0
 435 -53 464 -83 464 -127 c 0
 464 -193 407 -275 321 -331 c 1
715 681 m 1
 723 452 l 1
 647 452 l 1
 631 501 616 526 589 550 c 0
 549 586 494 606 436 606 c 0
 364 606 309 571 309 526 c 0
 309 508 318 492 334 480 c 0
 344 473 367 465 415 452 c 2
 541 419 l 2
 606 402 648 382 675 357 c 0
 712 323 731 278 731 228 c 0
 731 94 589 -13 410 -13 c 0
 327 -13 254 6 191 45 c 1
 169 0 l 1
 103 0 l 1
 59 256 l 1
 136 269 l 1
 182 140 267 75 390 75 c 0
 474 75 534 116 534 172 c 0
 534 194 524 216 508 230 c 0
 493 242 482 247 444 256 c 2
 314 287 l 2
 246 304 205 322 175 350 c 0
 142 380 122 428 122 477 c 0
 122 604 243 694 414 694 c 0
 492 694 565 676 631 638 c 1
 652 681 l 1
 715 681 l 1
EndSplineSet
Ligature: 0 0 'liga' S uni0326
EndChar
StartChar: Eth
Encoding: 389 208 283
Width: 760
Flags: W
HStem: 0 87<310 376> 323 80<86 160 348 490> 599 82<137 492>
VStem: 632 173<399 433>
Fore
160 323 m 1
 72 323 l 1
 87 403 l 1
 174 403 l 1
 194 512 l 1
 196 526 198 541 198 551 c 0
 198 579 181 594 145 598 c 2
 123 600 l 1
 137 681 l 1
 457 681 l 2
 605 681 662 667 721 616 c 0
 775 569 805 495 805 407 c 0
 805 250 725 109 602 46 c 0
 537 13 453 0 310 0 c 2
 14 0 l 1
 29 81 l 1
 51 83 l 2
 104 90 119 106 131 168 c 1
 160 323 l 1
348 403 m 1
 504 403 l 1
 490 323 l 1
 334 323 l 1
 304 157 l 1
 299 126 299 126 299 120 c 0
 299 97 323 87 376 87 c 0
 516 87 632 237 632 419 c 0
 632 535 574 599 469 599 c 0
 432 599 401 591 389 579 c 0
 379 569 377 563 367 508 c 2
 348 403 l 1
EndSplineSet
EndChar
StartChar: Dcroat
Encoding: 390 272 284
Width: 760
Flags: W
HStem: 0 87<310 376> 323 80<86 160 348 490> 599 82<137 492>
VStem: 632 173<399 433>
Fore
160 323 m 1
 72 323 l 1
 87 403 l 1
 174 403 l 1
 194 512 l 1
 196 526 198 541 198 551 c 0
 198 579 181 594 145 598 c 2
 123 600 l 1
 137 681 l 1
 457 681 l 2
 605 681 662 667 721 616 c 0
 775 569 805 495 805 407 c 0
 805 250 725 109 602 46 c 0
 537 13 453 0 310 0 c 2
 14 0 l 1
 29 81 l 1
 51 83 l 2
 104 90 119 106 131 168 c 1
 160 323 l 1
348 403 m 1
 504 403 l 1
 490 323 l 1
 334 323 l 1
 304 157 l 1
 299 126 299 126 299 120 c 0
 299 97 323 87 376 87 c 0
 516 87 632 237 632 419 c 0
 632 535 574 599 469 599 c 0
 432 599 401 591 389 579 c 0
 379 569 377 563 367 508 c 2
 348 403 l 1
EndSplineSet
EndChar
StartChar: Thorn
Encoding: 391 222 285
Width: 640
Flags: W
HStem: 0 21G<-6 345> 449 232<114 379>
VStem: 506 195<361 390>
DStem: 172 512 336 449 112 168 300 243
Fore
383 153 m 2
 285 153 l 1
 283 143 282 132 282 125 c 0
 282 101 300 88 340 84 c 2
 359 82 l 1
 345 0 l 1
 -6 0 l 1
 8 82 l 1
 29 84 l 2
 88 92 101 105 112 168 c 2
 172 512 l 1
 176 530 178 547 178 554 c 0
 178 578 159 592 119 596 c 2
 100 598 l 1
 114 681 l 1
 470 681 l 1
 456 598 l 1
 432 596 l 2
 380 589 363 576 356 539 c 1
 452 539 l 2
 553 539 608 528 647 499 c 0
 685 472 701 439 701 390 c 0
 701 235 590 153 383 153 c 2
300 243 m 1
 343 243 l 2
 395 243 439 254 465 273 c 0
 490 291 506 325 506 361 c 0
 506 418 462 449 379 449 c 2
 336 449 l 1
 300 243 l 1
EndSplineSet
EndChar
StartChar: dcroat
Encoding: 392 273 286
Width: 680
Flags: W
HStem: -9 96<257 298> 406 88<353 377> 532 47<320 488 659 734> 627 66<440 451.419>
VStem: 60 168<182 211>
Fore
650 532 m 1
 591 209 l 1
 586 179 583 156 583 141 c 0
 583 119 599 103 620 103 c 0
 636 103 638 104 666 125 c 2
 671 129 l 1
 714 72 l 1
 665 22 599 -9 542 -9 c 0
 478 -9 435 20 422 72 c 1
 382 35 l 1
 349 8 301 -9 257 -9 c 0
 144 -9 60 83 60 205 c 0
 60 360 195 494 353 494 c 0
 393 494 439 481 475 460 c 1
 488 532 l 1
 313 532 l 1
 321 579 l 1
 496 579 l 1
 497 585 497 588 497 591 c 0
 497 599 494 608 491 611 c 0
 483 619 456 627 440 627 c 2
 428 627 l 1
 440 693 l 1
 508 694 574 708 629 732 c 1
 686 732 l 1
 659 579 l 1
 742 579 l 1
 734 532 l 1
 650 532 l 1
459 376 m 1
 431 398 408 406 377 406 c 0
 297 406 228 305 228 189 c 0
 228 123 253 87 298 87 c 0
 327 87 356 105 383 139 c 0
 417 183 435 240 459 376 c 1
EndSplineSet
EndChar
StartChar: eth
Encoding: 393 240 287
Width: 600
Flags: W
HStem: -9 88<295 316> 432 88<373 396>
VStem: 59 173<165 195> 459 175<337 382>
Fore
418 580 m 1
 285 549 l 1
 272 613 l 1
 361 633 l 1
 336 651 321 660 297 670 c 1
 343 735 l 1
 407 722 466 698 506 667 c 1
 649 701 l 1
 662 636 l 1
 563 613 l 1
 615 546 634 483 634 382 c 0
 634 257 607 164 552 100 c 0
 491 30 403 -9 302 -9 c 0
 152 -9 59 69 59 195 c 0
 59 284 100 381 162 439 c 0
 216 490 295 520 375 520 c 0
 404 520 425 517 457 508 c 1
 447 538 439 553 418 580 c 1
380 432 m 0
 335 432 305 410 278 358 c 0
 254 312 232 220 232 165 c 0
 232 111 260 79 309 79 c 0
 353 79 388 104 413 153 c 0
 436 197 459 289 459 337 c 0
 459 403 435 432 380 432 c 0
EndSplineSet
EndChar
StartChar: thorn
Encoding: 394 254 288
Width: 660
Flags: W
HStem: -213 82<-10 312> -9 88<366 388> 424 96<447 491>
VStem: 513 169<306 332>
Fore
262 27 m 1
 244 -69 l 2
 243 -75 242 -82 242 -88 c 0
 241 -116 260 -131 300 -131 c 2
 327 -131 l 1
 312 -213 l 1
 -24 -213 l 1
 -9 -131 l 1
 8 -131 l 2
 29 -131 55 -123 66 -113 c 0
 75 -106 83 -87 86 -69 c 1
 197 542 l 2
 201 564 202 570 202 579 c 0
 202 588 199 595 196 599 c 1
 187 606 159 615 143 615 c 2
 131 615 l 1
 145 697 l 1
 220 701 262 708 337 732 c 1
 390 732 l 1
 339 451 l 1
 391 501 434 520 491 520 c 0
 603 520 682 432 682 308 c 0
 682 140 543 -9 388 -9 c 0
 346 -9 330 -5 272 22 c 0
 271 23 267 24 262 27 c 1
278 110 m 1
 304 91 337 79 368 79 c 0
 410 79 445 105 472 158 c 0
 496 203 513 273 513 323 c 0
 513 389 490 424 447 424 c 0
 404 424 361 382 332 312 c 0
 315 270 299 210 278 110 c 1
EndSplineSet
EndChar
StartChar: Euro
Encoding: 395 8364 289
Width: 680
Flags: W
HStem: -13 92<395 431> 213 80<100 137 304 450> 358 80<126 145 336 530> 612 82<504 532>
Fore
450 213 m 1
 304 213 l 1
 312 134 364 79 431 79 c 0
 491 79 554 114 609 177 c 1
 585 46 l 1
 503 0 461 -13 395 -13 c 0
 254 -13 154 74 137 213 c 1
 57 213 l 1
 101 293 l 1
 136 293 l 1
 137 313 141 338 145 358 c 1
 83 358 l 1
 127 438 l 1
 170 438 l 1
 237 603 357 694 507 694 c 0
 559 694 609 681 647 658 c 1
 658 681 l 1
 719 681 l 1
 736 506 l 1
 664 478 l 1
 641 527 631 545 615 563 c 0
 586 595 553 612 516 612 c 0
 440 612 378 553 336 438 c 1
 574 438 l 1
 530 358 l 1
 314 358 l 1
 309 335 307 318 304 293 c 1
 496 293 l 1
 450 213 l 1
EndSplineSet
EndChar
StartChar: onesuperior
Encoding: 396 185 290
Width: 408
Flags: W
HStem: 661 20G<350 390>
DStem: 250 565 390 681 213 362 334 369
Fore
390 681 m 1
 334 369 l 1
 332 359 331 352 331 349 c 0
 331 337 341 333 369 332 c 2
 406 331 l 1
 395 273 l 1
 118 273 l 1
 129 331 l 1
 167 332 l 2
 199 333 209 339 213 362 c 2
 250 565 l 2
 252 575 253 583 253 586 c 0
 253 597 239 603 215 603 c 2
 179 603 l 1
 189 662 l 1
 195 662 l 2
 201 661 205 661 206 661 c 0
 298 666 311 668 350 681 c 1
 390 681 l 1
EndSplineSet
EndChar
StartChar: twosuperior
Encoding: 397 178 291
Width: 408
Flags: W
HStem: 273 90<256 421> 630 59<296 321>
VStem: 135 102<562 599> 135 115<560 567> 353 132<576 589>
Fore
482 404 m 1xe8
 421 273 l 1
 98 273 l 1
 91 342 l 1
 139 362 199 397 248 433 c 0
 315 484 353 538 353 582 c 0
 353 610 331 630 300 630 c 0
 268 630 237 615 237 599 c 0xe8
 237 597 239 593 242 587 c 0
 249 576 250 572 250 565 c 0xd8
 250 536 220 509 188 509 c 0
 157 509 135 530 135 562 c 0
 135 588 148 615 174 639 c 0
 211 672 260 689 321 689 c 0
 421 689 485 645 485 578 c 0
 485 512 440 466 298 387 c 2
 256 363 l 1
 315 363 l 2
 385 363 396 368 427 417 c 2
 430 421 l 1
 482 404 l 1xe8
EndSplineSet
EndChar
StartChar: threesuperior
Encoding: 398 179 292
Width: 408
Flags: W
HStem: 265 65<239 267> 503 20G<238 265> 529 21G<172.5 205> 624 65<293 316>
VStem: 86 107<353 361> 136 115<573 587> 338 132<405 411> 356 127<573 587>
Fore
227 463 m 1xfa
 238 523 l 1
 265 523 l 2
 327 523 356 542 356 582 c 0
 356 609 337 624 300 624 c 0
 276 624 248 613 248 603 c 2
 248 600 l 1
 250 593 251 587 251 579 c 0
 251 552 222 529 188 529 c 0
 157 529 136 547 136 575 c 0
 136 638 216 689 314 689 c 0
 413 689 483 646 483 585 c 0xf5
 483 549 464 522 422 497 c 2
 410 491 l 1
 423 485 l 1
 456 466 470 443 470 409 c 0
 470 327 375 265 249 265 c 0
 154 265 86 305 86 361 c 0
 86 398 116 428 151 428 c 0
 180 428 202 410 202 386 c 0
 202 381 201 376 199 372 c 0
 195 363 193 357 193 355 c 0
 193 343 224 330 254 330 c 0
 305 330 338 360 338 407 c 0
 338 447 313 463 248 463 c 2
 227 463 l 1xfa
EndSplineSet
EndChar
StartChar: degree
Encoding: 399 176 293
Width: 400
Flags: W
HStem: 380 57<280 291> 629 57<273 291>
VStem: 130 56<523 541> 373 57<533 541>
Fore
283 686 m 0
 366 686 430 619 430 533 c 0
 430 447 364 380 280 380 c 0
 196 380 130 448 130 534 c 0
 130 619 198 686 283 686 c 0
282 629 m 0
 228 629 186 586 186 533 c 0
 186 480 229 437 280 437 c 0
 332 437 373 479 373 533 c 0
 373 586 332 629 282 629 c 0
EndSplineSet
EndChar
StartChar: minus
Encoding: 400 8722 294
Width: 600
Flags: W
HStem: 293 114<91 595>
Fore
595 293 m 1
 91 293 l 1
 91 407 l 1
 595 407 l 1
 595 293 l 1
EndSplineSet
EndChar
StartChar: multiply
Encoding: 401 215 295
Width: 600
Flags: W
DStem: 91 521 174 604 260 352 343 435 260 352 343 269 91 183 174 100 343 269 426 352 512 100 595 183 512 604 595 521 343 435 426 352
Fore
595 521 m 1
 426 352 l 1
 595 183 l 1
 512 100 l 1
 343 269 l 1
 174 100 l 1
 91 183 l 1
 260 352 l 1
 91 521 l 1
 174 604 l 1
 343 435 l 1
 512 604 l 1
 595 521 l 1
EndSplineSet
EndChar
StartChar: divide
Encoding: 402 247 296
Width: 600
Flags: W
HStem: 69 162<330.955 348> 293 114<91 595> 469 162<330.955 348>
VStem: 262 162<137.955 153 537.955 553>
CounterMasks: 1 00
Fore
595 293 m 1
 91 293 l 1
 91 407 l 1
 595 407 l 1
 595 293 l 1
344 231 m 0
 388 231 424 194 424 150 c 0
 424 105 387 69 343 69 c 0
 298 69 262 106 262 151 c 0
 262 195 299 231 344 231 c 0
344 631 m 0
 388 631 424 594 424 550 c 0
 424 505 388 469 343 469 c 0
 298 469 262 506 262 551 c 0
 262 595 299 631 344 631 c 0
EndSplineSet
EndChar
StartChar: trademark
Encoding: 403 8482 297
Width: 940
Flags: W
HStem: 625 56<87 315>
VStem: 194 105<354.732 610> 509 59<353.783 590> 824 105<353.783 586>
DStem: 568 590 643 681 671 273 718 436 794 681 824 586 718 436 720 273
Fore
406 681 m 1
 454 557 l 1
 410 540 l 1
 390 573 384 581 371 593 c 0
 352 612 325 626 308 626 c 0
 299 626 299 626 299 605 c 2
 299 374 l 2
 299 336 307 326 340 323 c 2
 358 322 l 1
 358 273 l 1
 136 273 l 1
 136 322 l 1
 154 323 l 2
 186 326 194 336 194 374 c 2
 194 604 l 2
 194 621 193 625 186 625 c 0
 168 625 136 608 118 589 c 0
 104 574 97 562 87 540 c 1
 42 557 l 1
 87 681 l 1
 406 681 l 1
643 681 m 1
 718 436 l 1
 794 681 l 1
 982 681 l 1
 982 632 l 1
 970 631 l 2
 936 627 929 619 929 580 c 2
 929 374 l 2
 929 335 936 327 970 323 c 2
 982 322 l 1
 982 273 l 1
 772 273 l 1
 772 322 l 1
 784 323 l 2
 817 327 824 335 824 374 c 2
 824 586 l 1
 720 273 l 1
 671 273 l 1
 568 590 l 1
 568 374 l 2
 568 335 575 327 609 323 c 2
 621 322 l 1
 621 273 l 1
 456 273 l 1
 456 322 l 1
 468 323 l 2
 502 327 509 335 509 374 c 2
 509 580 l 2
 509 619 502 627 468 631 c 2
 456 632 l 1
 456 681 l 1
 643 681 l 1
EndSplineSet
Ligature: 0 1 'liga' T M
EndChar
StartChar: plusminus
Encoding: 404 177 298
Width: 600
Flags: W
HStem: 0 114<91 595> 328 114<91 285 401 595>
VStem: 285 116<160 328 442 628>
Fore
595 328 m 1
 401 328 l 1
 401 160 l 1
 285 160 l 1
 285 328 l 1
 91 328 l 1
 91 442 l 1
 285 442 l 1
 285 628 l 1
 401 628 l 1
 401 442 l 1
 595 442 l 1
 595 328 l 1
595 0 m 1
 91 0 l 1
 91 114 l 1
 595 114 l 1
 595 0 l 1
EndSplineSet
EndChar
StartChar: onehalf
Encoding: 405 189 299
Width: 1020
Flags: W
HStem: 0 90<807 972> 357 59<847 872> 661 20G<350 390 745 828>
VStem: 686 102<289 326> 686 115<287 294> 904 132<303 316>
DStem: 250 565 390 681 213 362 334 369 745 681 828 681 302 0 386 0
Fore
390 681 m 1xe4
 334 369 l 1
 332 359 331 352 331 349 c 0
 331 337 341 333 369 332 c 2
 406 331 l 1
 395 273 l 1
 118 273 l 1
 129 331 l 1
 167 332 l 2
 199 333 209 339 213 362 c 2
 250 565 l 2
 252 575 253 583 253 586 c 0
 253 597 239 603 215 603 c 2
 179 603 l 1
 189 662 l 1
 195 662 l 2
 201 661 205 661 206 661 c 0
 298 666 311 668 350 681 c 1
 390 681 l 1xe4
828 681 m 1
 386 0 l 1
 302 0 l 1
 745 681 l 1
 828 681 l 1
1033 131 m 1
 972 0 l 1
 649 0 l 1
 642 69 l 1
 690 89 750 124 799 160 c 0
 866 211 904 265 904 309 c 0
 904 337 882 357 851 357 c 0
 819 357 788 342 788 326 c 0xf4
 788 324 790 320 793 314 c 0
 800 303 801 299 801 292 c 0xec
 801 263 771 236 739 236 c 0
 708 236 686 257 686 289 c 0xf4
 686 315 699 342 725 366 c 0
 762 399 811 416 872 416 c 0
 972 416 1036 372 1036 305 c 0
 1036 239 991 193 849 114 c 2
 807 90 l 1
 866 90 l 2
 936 90 947 95 978 144 c 2
 981 148 l 1
 1033 131 l 1
EndSplineSet
Ligature: 0 1 'frac' one slash two
Ligature: 0 1 'frac' one fraction two
EndChar
StartChar: onequarter
Encoding: 406 188 300
Width: 1020
Flags: W
HStem: 0 177<743 987> 107 70<743 837 962 1018> 661 20G<350 390 757 840>
DStem: 250 565 390 681 213 362 334 369 757 681 840 681 314 0 398 0 874 310 1004 408 849 177 962 177
Fore
390 681 m 1x20
 334 369 l 1
 332 359 331 352 331 349 c 0
 331 337 341 333 369 332 c 2
 406 331 l 1
 395 273 l 1
 118 273 l 1
 129 331 l 1
 167 332 l 2
 199 333 209 339 213 362 c 2
 250 565 l 2
 252 575 253 583 253 586 c 0
 253 597 239 603 215 603 c 2
 179 603 l 1
 189 662 l 1
 195 662 l 2
 201 661 205 661 206 661 c 0
 298 666 311 668 350 681 c 1
 390 681 l 1x20
840 681 m 1
 398 0 l 1
 314 0 l 1xa0
 757 681 l 1
 840 681 l 1
1004 408 m 1
 962 177 l 1xa0
 1054 177 l 1
 1018 107 l 1
 949 107 l 1x60
 946 91 l 1
 945 89 945 86 945 84 c 0
 945 70 957 61 977 59 c 2
 998 58 l 1
 987 0 l 1
 760 0 l 1xa0
 770 58 l 1
 793 59 l 2
 823 62 830 70 837 107 c 1
 653 107 l 1x60
 637 161 l 1
 894 408 l 1
 1004 408 l 1
849 177 m 1
 874 310 l 1
 816 248 806 239 743 177 c 1
 849 177 l 1
EndSplineSet
Ligature: 0 1 'frac' one slash four
Ligature: 0 1 'frac' one fraction four
EndChar
StartChar: threequarters
Encoding: 407 190 301
Width: 1020
Flags: W
HStem: 0 177<743 987> 107 70<743 837 962 1018> 265 65<239 267> 503 20G<238 265> 529 21G<172.5 205> 624 65<293 316>
VStem: 86 107<351 361> 136 115<573 587> 338 132<399 417> 356 127<573 593>
DStem: 767 681 850 681 324 0 408 0 874 310 1004 408 849 177 962 177
Fore
227 463 m 1x3e80
 238 523 l 1
 265 523 l 2
 327 523 356 542 356 582 c 0
 356 609 337 624 300 624 c 0
 276 624 248 613 248 603 c 2
 248 600 l 1
 250 593 251 587 251 579 c 0
 251 552 222 529 188 529 c 0
 157 529 136 547 136 575 c 0
 136 638 216 689 314 689 c 0
 413 689 483 646 483 585 c 0x3d40
 483 549 464 522 422 497 c 2
 410 491 l 1
 423 485 l 1
 456 466 470 443 470 409 c 0
 470 327 375 265 249 265 c 0
 154 265 86 305 86 361 c 0
 86 398 116 428 151 428 c 0
 180 428 202 410 202 386 c 0
 202 381 201 376 199 372 c 0
 195 363 193 357 193 355 c 0
 193 343 224 330 254 330 c 0
 305 330 338 360 338 407 c 0
 338 447 313 463 248 463 c 2
 227 463 l 1x3e80
850 681 m 1
 408 0 l 1
 324 0 l 1xbc
 767 681 l 1
 850 681 l 1
1004 408 m 1
 962 177 l 1xbc
 1054 177 l 1
 1018 107 l 1
 949 107 l 1x7c
 946 91 l 1
 945 89 945 86 945 84 c 0
 945 70 957 61 977 59 c 2
 998 58 l 1
 987 0 l 1
 760 0 l 1xbc
 770 58 l 1
 793 59 l 2
 823 62 830 70 837 107 c 1
 653 107 l 1x7c
 637 161 l 1
 894 408 l 1
 1004 408 l 1
849 177 m 1
 874 310 l 1
 816 248 806 239 743 177 c 1
 849 177 l 1
EndSplineSet
Ligature: 0 1 'frac' three slash four
Ligature: 0 1 'frac' three fraction four
EndChar
StartChar: commaaccent
Encoding: 408 63171 302
Width: 360
Flags: W
Fore
111 -328 m 1
 77 -296 l 1
 114 -263 142 -232 149 -217 c 1
 143 -218 140 -218 136 -218 c 0
 99 -218 76 -193 76 -154 c 0
 76 -100 127 -50 184 -50 c 0
 225 -50 254 -80 254 -124 c 0
 254 -190 197 -272 111 -328 c 1
EndSplineSet
EndChar
StartChar: copyright
Encoding: 409 169 303
Width: 780
Flags: W
HStem: 0 47<433 454> 147 52<437 454> 492 47<429 445> 653 47<432 454>
VStem: 83 51<350 369> 239 106<335 352> 732 51<346 369>
Fore
575 288 m 1
 621 264 l 1
 595 194 522 147 438 147 c 0
 322 147 239 229 239 343 c 0
 239 459 316 539 429 539 c 0
 462 539 495 532 521 519 c 1
 525 532 l 1
 564 532 l 1
 610 401 l 1
 568 385 l 1
 541 430 535 439 521 453 c 0
 496 479 470 492 443 492 c 0
 383 492 345 434 345 344 c 0
 345 256 387 199 452 199 c 0
 501 199 539 227 575 288 c 1
432 700 m 0
 627 700 783 543 783 346 c 0
 783 158 623 0 433 0 c 0
 241 0 83 158 83 350 c 0
 83 541 241 700 432 700 c 0
432 653 m 0
 268 653 134 517 134 350 c 0
 134 183 268 47 433 47 c 0
 596 47 732 183 732 346 c 0
 732 518 600 653 432 653 c 0
EndSplineSet
EndChar
StartChar: registered
Encoding: 410 174 304
Width: 780
Flags: W
HStem: 0 47<433 456> 506 52<237 452> 653 47<432 456>
VStem: 83 51<350 369> 286 98<272 342 272 483> 508 112<447 459> 732 51<346 369>
DStem: 413 342 527 354 533 178 597 263
Fore
527 354 m 1
 597 263 l 1
 619 233 631 227 663 224 c 1
 663 178 l 1
 533 178 l 1
 413 342 l 1
 384 342 l 1
 384 272 l 2
 384 236 391 228 422 225 c 2
 433 224 l 1
 433 178 l 1
 237 178 l 1
 237 224 l 1
 248 225 l 2
 279 228 286 236 286 272 c 2
 286 465 l 2
 286 500 279 508 248 511 c 2
 237 512 l 1
 237 558 l 1
 454 558 l 2
 507 558 541 553 569 539 c 0
 599 525 620 492 620 457 c 0
 620 406 586 368 527 354 c 1
384 395 m 1
 423 395 l 2
 479 395 508 414 508 451 c 0
 508 488 482 506 432 506 c 0
 391 506 384 502 384 481 c 2
 384 395 l 1
432 700 m 0
 627 700 783 543 783 346 c 0
 783 158 623 0 433 0 c 0
 241 0 83 158 83 350 c 0
 83 541 241 700 432 700 c 0
432 653 m 0
 268 653 134 517 134 350 c 0
 134 183 268 47 433 47 c 0
 596 47 732 183 732 346 c 0
 732 518 600 653 432 653 c 0
EndSplineSet
EndChar
StartChar: lozenge
Encoding: 411 9674 305
Width: 494
Flags: W
HStem: 0 21G<274 334>
DStem: 83 377 205 376 274 0 305 175 279 740 309 569 83 377 205 376 309 569 342 740 408 374 531 374 408 374 531 374 305 175 334 0
Fore
274 0 m 1
 83 377 l 1
 279 740 l 1
 342 740 l 1
 531 374 l 1
 334 0 l 1
 274 0 l 1
305 175 m 1
 408 374 l 1
 309 569 l 1
 205 376 l 1
 305 175 l 1
EndSplineSet
EndChar
StartChar: Delta
Encoding: 412 8710 306
Width: 612
Flags: W
HStem: 0 51<77 608>
DStem: 290 509 327 688 479 51 608 0 327 688 290 509 6 0 77 51
Fore
6 0 m 1
 327 688 l 1
 608 0 l 1
 6 0 l 1
77 51 m 1
 479 51 l 1
 290 509 l 1
 77 51 l 1
EndSplineSet
EndChar
StartChar: notequal
Encoding: 413 8800 307
Width: 600
Flags: W
HStem: 198 114<91 192 378 595> 388 114<91 285 470 595>
Fore
415 388 m 1
 378 312 l 1
 595 312 l 1
 595 198 l 1
 322 198 l 1
 257 63 l 1
 152 114 l 1
 192 198 l 1
 91 198 l 1
 91 312 l 1
 248 312 l 1
 285 388 l 1
 91 388 l 1
 91 502 l 1
 340 502 l 1
 410 646 l 1
 515 594 l 1
 470 502 l 1
 595 502 l 1
 595 388 l 1
 415 388 l 1
EndSplineSet
Ligature: 0 1 'liga' equal uni0338
EndChar
StartChar: radical
Encoding: 414 8730 308
Width: 549
Flags: W
DStem: 136 416 202 564 356 -35 365 234 475 918 578 903 365 234 427 -35
Fore
356 -35 m 1
 136 416 l 1
 40 369 l 1
 -4 464 l 1
 202 564 l 1
 365 234 l 1
 475 918 l 1
 578 903 l 1
 427 -35 l 1
 356 -35 l 1
EndSplineSet
EndChar
StartChar: lessequal
Encoding: 415 8804 309
Width: 600
Flags: W
HStem: 0 117<85 589>
DStem: 85 375 243 430 589 139 589 268 589 722 589 592 85 485 243 430
Fore
243 430 m 1
 589 268 l 1
 589 139 l 1
 85 375 l 1
 85 485 l 1
 589 722 l 1
 589 592 l 1
 243 430 l 1
589 0 m 1
 85 0 l 1
 85 117 l 1
 589 117 l 1
 589 0 l 1
EndSplineSet
EndChar
StartChar: greaterequal
Encoding: 416 8805 310
Width: 600
Flags: W
HStem: 0 117<91 595>
DStem: 91 592 91 722 437 430 595 485 437 430 595 375 91 268 91 139
Fore
437 430 m 1
 91 592 l 1
 91 722 l 1
 595 485 l 1
 595 375 l 1
 91 139 l 1
 91 268 l 1
 437 430 l 1
91 0 m 1
 91 117 l 1
 595 117 l 1
 595 0 l 1
 91 0 l 1
EndSplineSet
EndChar
StartChar: logicalnot
Encoding: 417 172 311
Width: 620
Flags: W
HStem: 267 100<81 485>
VStem: 485 100<80 367>
Fore
81 367 m 1
 585 367 l 1
 585 80 l 1
 485 80 l 1
 485 267 l 1
 81 267 l 1
 81 367 l 1
EndSplineSet
EndChar
StartChar: summation
Encoding: 418 8721 312
Width: 713
Flags: W
HStem: -123 112<163 641> 587 165<23 632> 711 41<23 479>
DStem: 23 752 176 711 256 285 364 341 256 285 364 341 14 -123 163 -11
Fore
176 711 m 1xa0
 364 341 l 1
 163 -11 l 1
 491 -11 l 2
 607 -11 637 6 669 87 c 1
 695 87 l 1
 641 -123 l 1
 14 -123 l 1
 256 285 l 1
 23 752 l 1
 622 752 l 1
 632 587 l 1
 606 587 l 1xc0
 589 688 559 711 444 711 c 2
 176 711 l 1xa0
EndSplineSet
EndChar
StartChar: partialdiff
Encoding: 419 8706 313
Width: 494
Flags: W
HStem: -10 63<192 213> 352 76<220 260> 676 79<194 219>
VStem: 9 120<169 193> 362 116<405 446>
Fore
102 641 m 1
 37 719 l 1
 122 749 148 755 194 755 c 0
 355 755 478 603 478 405 c 0
 478 287 444 155 395 87 c 0
 350 24 287 -10 213 -10 c 0
 99 -10 9 80 9 193 c 0
 9 257 36 321 83 369 c 0
 122 409 167 428 220 428 c 0
 270 428 305 415 358 379 c 1
 361 411 362 426 362 446 c 0
 362 525 342 598 311 636 c 0
 289 662 257 676 219 676 c 0
 183 676 158 668 102 641 c 1
348 309 m 1
 312 343 292 352 260 352 c 0
 189 352 129 268 129 169 c 0
 129 97 156 53 201 53 c 0
 238 53 276 81 299 126 c 0
 323 172 333 210 348 309 c 1
EndSplineSet
EndChar
StartChar: brokenbar
Encoding: 420 166 314
Width: 620
Flags: W
HStem: 0 21G<303 422>
VStem: 303 119<0 293 429 722>
Fore
422 293 m 1
 422 0 l 1
 303 0 l 1
 303 293 l 1
 422 293 l 1
422 722 m 1
 422 429 l 1
 303 429 l 1
 303 722 l 1
 422 722 l 1
EndSplineSet
EndChar
StartChar: mu
Encoding: 421 181 315
Width: 680
Flags: W
HStem: -9 108<561 636> 491 20G<290 342 508 666>
VStem: 54 120<-139 -104>
DStem: 508 511 666 511 441 142 609 195
Fore
508 511 m 1
 666 511 l 1
 609 195 l 1
 602 159 601 151 601 139 c 0
 601 117 617 99 636 99 c 0
 649 99 658 104 681 122 c 1
 720 64 l 1
 679 19 618 -9 561 -9 c 0
 499 -9 461 13 443 57 c 1
 368 9 320 -9 263 -9 c 0
 218 -9 182 6 156 36 c 1
 155 27 154 22 154 18 c 0
 154 7 156 -9 161 -28 c 0
 170 -66 174 -90 174 -104 c 0
 174 -155 144 -195 106 -195 c 0
 76 -195 54 -172 54 -139 c 0
 54 -113 57 -99 81 -31 c 0
 87 -14 91 0 93 10 c 2
 100 45 l 1
 150 321 l 1
 152 334 154 351 154 358 c 0
 154 367 152 374 148 378 c 0
 139 385 112 394 95 394 c 2
 83 394 l 1
 98 476 l 1
 173 480 214 487 290 511 c 1
 342 511 l 1
 287 205 l 1
 281 162 281 160 281 151 c 0
 281 124 308 103 343 103 c 0
 376 103 409 116 441 142 c 1
 508 511 l 1
EndSplineSet
EndChar
StartChar: afii10017
Encoding: 422 1040 316
Width: 720
Flags: W
HStem: 0 21G<-27 262 402 754> 242 78<305 484> 661 20G<413 564>
DStem: 413 681 428 538 135 210 305 320 413 681 262 242 135 210 216 155
Fore
564 681 m 1
 680 178 l 1
 691 134 696 119 701 112 c 0
 712 95 715 94 757 84 c 0
 759 84 764 82 769 81 c 1
 754 0 l 1
 402 0 l 1
 417 81 l 1
 431 83 l 1
 450 85 l 2
 493 91 507 99 507 119 c 0
 507 128 504 146 500 165 c 2
 484 242 l 1
 262 242 l 1
 216 155 l 2
 201 126 200 125 200 113 c 0
 200 96 217 88 258 83 c 2
 277 81 l 1
 262 0 l 1
 -27 0 l 1
 -12 81 l 1
 55 97 86 120 116 177 c 0
 124 190 130 202 135 210 c 2
 413 681 l 1
 564 681 l 1
469 320 m 1
 428 538 l 1
 305 320 l 1
 469 320 l 1
EndSplineSet
EndChar
StartChar: afii10018
Encoding: 423 1041 317
Width: 731
Flags: W
HStem: 0 84<365 435> 342 83<413 437> 593 88<137 479>
VStem: 545 194<225.239 257>
Fore
137 681 m 1
 709 681 l 1
 763 445 l 1
 694 427 l 1
 664 493 622 532 605 546 c 0
 565 578 521 593 463 593 c 0
 394 593 380 582 368 511 c 1
 351 417 l 1
 351 417 394 425 423 425 c 0
 720 425 739 320 739 242 c 0
 739 182 707 108 657 66 c 0
 604 22 530 0 435 0 c 2
 14 0 l 1
 29 81 l 1
 51 83 l 2
 104 88 119 106 131 168 c 1
 194 513 l 1
 196 525 198 542 198 552 c 0
 198 580 181 595 145 598 c 2
 123 600 l 1
 137 681 l 1
336 334 m 1
 311 201 l 1
 304 151 301 124 301 121 c 0
 301 96 326 84 378 84 c 0
 430 84 463 95 495 125 c 0
 528 155 545 202 545 243 c 0
 545 308 512 342 417 342 c 0
 384 342 336 334 336 334 c 1
EndSplineSet
EndChar
StartChar: afii10019
Encoding: 424 1042 318
Width: 720
Flags: W
HStem: 0 84<365 435> 322 83<348 437> 600 81<137 479>
VStem: 545 194<223 241> 585 177<517 538>
Fore
137 681 m 1xf0
 514 681 l 2
 614 681 660 674 696 654 c 0
 737 631 762 587 762 538 c 0xe8
 762 449 688 379 581 366 c 1
 675 364 739 310 739 232 c 0
 739 172 707 108 657 66 c 0
 604 22 530 0 435 0 c 2
 14 0 l 1
 29 81 l 1
 51 83 l 2
 104 90 119 106 131 168 c 1
 194 513 l 1
 196 525 198 542 198 552 c 0
 198 580 181 595 145 598 c 2
 123 600 l 1
 137 681 l 1xf0
333 322 m 1
 311 201 l 1
 304 151 301 124 301 121 c 0
 301 96 326 84 378 84 c 0
 430 84 463 95 495 125 c 0
 528 155 545 192 545 233 c 0xf0
 545 298 510 322 417 322 c 2
 333 322 l 1
348 405 m 1
 410 405 l 2
 523 405 585 444 585 517 c 0xe8
 585 572 544 600 465 600 c 0
 434 600 413 597 398 589 c 0
 385 583 378 567 370 525 c 1
 348 405 l 1
EndSplineSet
EndChar
StartChar: afii10020
Encoding: 425 1043 319
Width: 660
Flags: W
HStem: 0 21G<14 374> 593 88<137 479>
DStem: 194 513 368 511 131 168 306 168
Fore
695 681 m 1
 749 445 l 1
 680 427 l 1
 648 490 611 534 591 546 c 1
 551 578 517 593 459 593 c 0
 390 593 380 582 368 511 c 1
 306 168 l 1
 305 160 302 138 302 129 c 0
 302 99 318 86 361 83 c 2
 389 81 l 1
 374 0 l 1
 14 0 l 1
 29 81 l 1
 51 83 l 2
 104 88 119 106 131 168 c 1
 194 513 l 1
 196 525 198 542 198 552 c 0
 198 580 181 595 145 598 c 2
 123 600 l 1
 137 681 l 1
 695 681 l 1
EndSplineSet
EndChar
StartChar: afii10021
Encoding: 426 1044 320
Width: 848
Flags: W
HStem: 0 85<71 242> 0 92<354 622> 585 96<293 624>
DStem: 636 483 803 486 585 193 751 189
Fore
366 92 m 2x60
 535 92 l 2
 565 92 567 93 585 193 c 1
 636 483 l 2
 651 569 648 585 615 585 c 2
 526 585 l 2
 503 585 496 565 485 525 c 0
 437 332 438 319 357 155 c 1
 326 99 340 92 366 92 c 2x60
622 0 m 2
 242 0 l 2
 121 0 139 -18 62 -135 c 1
 0 -128 l 1
 71 85 l 1
 159 86 195 83 229 144 c 0
 302 274 303 309 349 486 c 1
 364 567 354 590 303 596 c 2
 278 599 l 1
 293 681 l 1
 927 681 l 1
 912 599 l 1
 887 596 l 2
 834 590 817 568 803 486 c 1
 751 189 l 1
 734 94 754 83 822 85 c 1xa0
 805 -128 l 1
 741 -128 l 1
 745 -30 743 0 622 0 c 2
EndSplineSet
EndChar
StartChar: afii10022
Encoding: 427 1045 321
Width: 720
Flags: W
HStem: 0 84<365 648> 321 87<333 389> 491 20G<501 572> 600 81<138 503>
Fore
761 225 m 1
 648 0 l 1
 14 0 l 1
 29 81 l 1
 51 83 l 2
 104 90 119 106 131 168 c 1
 194 513 l 2
 196 524 198 543 198 552 c 0
 198 580 181 595 145 598 c 2
 123 600 l 1
 138 681 l 1
 722 681 l 1
 777 460 l 1
 707 438 l 1
 658 545 582 600 480 600 c 0
 441 600 407 592 394 579 c 1
 381 568 375 553 368 511 c 1
 349 410 l 1
 365 408 372 408 389 408 c 0
 462 408 478 423 501 511 c 1
 572 511 l 1
 517 209 l 1
 446 209 l 1
 448 225 448 232 448 239 c 0
 448 304 424 322 333 321 c 1
 303 156 l 2
 298 128 298 128 298 119 c 0
 298 95 322 84 376 84 c 0
 495 84 571 126 695 260 c 1
 761 225 l 1
EndSplineSet
EndChar
StartChar: afii10023
Encoding: 428 1025 322
Width: 720
Flags: W
HStem: 0 84<365 648> 321 87<333 389> 491 20G<501 572> 600 81<138 503> 735 160<347 378 576 607>
VStem: 283 160<800 830> 512 160<800 830>
Fore
761 225 m 1
 648 0 l 1
 14 0 l 1
 29 81 l 1
 51 83 l 2
 104 90 119 106 131 168 c 1
 194 513 l 2
 196 524 198 543 198 552 c 0
 198 580 181 595 145 598 c 2
 123 600 l 1
 138 681 l 1
 722 681 l 1
 777 460 l 1
 707 438 l 1
 658 545 582 600 480 600 c 0
 441 600 407 592 394 579 c 1
 381 568 375 553 368 511 c 1
 349 410 l 1
 365 408 372 408 389 408 c 0
 462 408 478 423 501 511 c 1
 572 511 l 1
 517 209 l 1
 446 209 l 1
 448 225 448 232 448 239 c 0
 448 304 424 322 333 321 c 1
 303 156 l 2
 298 128 298 128 298 119 c 0
 298 95 322 84 376 84 c 0
 495 84 571 126 695 260 c 1
 761 225 l 1
378 895 m 0
 417 895 443 869 443 830 c 0
 443 783 394 735 347 735 c 0
 310 735 283 762 283 800 c 0
 283 849 329 895 378 895 c 0
607 895 m 0
 646 895 672 869 672 830 c 0
 672 783 623 735 576 735 c 0
 539 735 512 762 512 800 c 0
 512 849 558 895 607 895 c 0
EndSplineSet
Ligature: 0 1 'liga' afii10022 uni0308
EndChar
StartChar: afii10024
Encoding: 429 1046 323
Width: 1067
Flags: W
HStem: -16 109<136 173> 325 76<471 537 725 745> 513 183<1072 1096> 595 101<308 325>
VStem: 50 52<126 141> 334 86<457 572> 343 77<563 577> 1034 133<563 617>
Back
567 489 m 1xd0
 571.34 511.243 573.62 528.925 573.62 543.002 c 0
 573.62 580.82 557.166 592.628 520 597 c 2
 496 600 l 1
 510 681 l 1
 856 681 l 1
 841 597 l 1
 812 594 l 2
 761 589 754 565 739 484 c 1
 725 401 l 1
 805 401 l 2
 873 401 880 472 916 572 c 0
 942 644 1009 696 1072 696 c 0
 1144.54 696 1166.83 665.407 1166.83 617.276 c 0
 1166.83 609.013 1166.17 600.232 1165 591 c 0
 1160 549 1141 514 1101 513 c 0xe0
 1099.16 512.964 1097.37 512.946 1095.63 512.946 c 0
 1049.35 512.946 1040.82 525.65 1036 543 c 0
 1034.24 549.455 1034.03 556.599 1034.03 563.471 c 0
 1034.03 565.636 1034.05 567.774 1034.05 569.856 c 0
 1034.05 583.684 1033.13 595 1019 595 c 0
 1003 595 995 585 989 563 c 0
 966 476 959 399 882 363 c 1
 993 350 993 226 997 150 c 0
 999 122 996 94 1029 93 c 0
 1073 92 1083 150 1083 150 c 1
 1134 140 l 1
 1134 140 1087 -16 955 -16 c 0
 860 -16 835 25 826 76 c 0
 806 200 823 255 803 293 c 0
 789 318 778 324 745 325 c 2
 711 325 l 1
 689 196 l 1
 683.529 166.459 679.921 144.5 679.921 128.278 c 0
 679.921 100.021 690.87 89.1765 722 86 c 2
 751 83 l 1
 736 0 l 1
 390 0 l 1
 404 80 l 1
 430 83 l 2
 483 89 501 109 515 191 c 1
 537 325 l 1
 503 325 l 2
 470 324 457 318 435 293 c 0
 401 255 398 200 334 76 c 0
 308 25 268 -16 173 -16 c 0
 56.84 -16 49.8704 104.806 49.8704 133.8 c 0
 49.8704 137.754 50 140 50 140 c 1
 103 150 l 1
 103 150 102.023 144.336 102.023 136.578 c 0
 102.023 119.724 106.633 92.9872 135.884 92.9872 c 0
 136.252 92.9872 136.624 92.9914 137 93 c 0
 172 94 178 122 189 150 c 0
 221 226 265 350 380 363 c 1
 343.557 383.184 334.147 416.256 334.147 456.753 c 0
 334.147 488.486 339.925 524.778 343 563 c 0
 345 585 341 595 325 595 c 0xd0
 302 595 304 565 290 543 c 0
 278 525 264 512 214 513 c 0xe0
 184.75 513.75 173.5 533.625 173.5 561.234 c 0
 173.5 570.438 174.75 580.5 177 591 c 0
 191 654 223 696 308 696 c 0
 371 696 420 644 420 572 c 0
 420 472 403 401 471 401 c 2
 551 401 l 1
 567 489 l 1xd0
EndSplineSet
Fore
567 489 m 1xdd
 571 511 574 529 574 543 c 0
 574 581 557 593 520 597 c 2
 496 600 l 1
 510 681 l 1
 856 681 l 1
 841 597 l 1
 812 594 l 2
 761 589 754 565 739 484 c 1
 725 401 l 1
 805 401 l 2
 873 401 880 472 916 572 c 0
 942 644 1009 696 1072 696 c 0
 1145 696 1167 665 1167 617 c 0
 1167 566 1151 513 1096 513 c 0xed
 1042 513 1034 532 1034 563 c 0
 1034 579 1036 595 1019 595 c 0
 1003 595 995 585 989 563 c 0
 966 476 959 399 882 363 c 1
 993 350 993 226 997 150 c 0
 999 122 995 93 1029 93 c 0
 1073 93 1083 150 1083 150 c 1
 1134 140 l 1
 1134 140 1087 -16 955 -16 c 0
 860 -16 835 25 826 76 c 0
 806 200 823 255 803 293 c 0
 789 318 778 324 745 325 c 2
 711 325 l 1
 689 196 l 1
 684 166 680 144 680 128 c 0
 680 100 691 89 722 86 c 2
 751 83 l 1
 736 0 l 1
 390 0 l 1
 404 80 l 1
 430 83 l 2
 483 89 501 109 515 191 c 1
 537 325 l 1
 503 325 l 2
 470 324 457 318 435 293 c 0
 401 255 398 200 334 76 c 0
 308 25 268 -16 173 -16 c 0
 57 -16 50 105 50 134 c 0
 50 138 50 140 50 140 c 1
 103 150 l 1
 103 150 102 144 102 137 c 0
 102 120 107 93 136 93 c 0
 170 93 178 122 189 150 c 0
 221 226 265 350 380 363 c 1
 344 383 334 416 334 457 c 0xdd
 334 488 343 526 343 563 c 0
 343 585 341 595 325 595 c 0xdb
 302 595 304 565 290 543 c 0
 278 525 268 513 214 513 c 0xeb
 185 513 174 534 174 561 c 0
 174 631 217 696 308 696 c 0
 371 696 420 644 420 572 c 0
 420 472 403 401 471 401 c 2
 551 401 l 1
 567 489 l 1xdd
EndSplineSet
EndChar
StartChar: afii10025
Encoding: 430 1047 324
Width: 664
Flags: W
HStem: -13 97<336 359> 314 114<269 413> 597 97<419 444>
VStem: 503 163<219 264> 519 148<511 531>
Back
269 428 m 1
 413 429 l 1
 413.606 428.993 414.209 428.989 414.808 428.989 c 0
 495.251 428.989 512.044 495.237 518 527 c 0
 518.521 530.049 518.776 533.031 518.776 535.94 c 0
 518.776 572.152 479.241 597 420 597 c 0
 363 597 296 570 251 529 c 0
 231 511 215 495 175 451 c 1
 108 478 l 1
 210 681 l 1
 270 681 l 1
 276 649 l 1
 321 676 386 694 444 694 c 0
 579.166 694 667.236 620.109 667.236 512.569 c 0
 667.236 500.767 666.176 488.559 664 476 c 0
 657 438 641 403 617 374 c 1
 649.584 350.158 666.378 310.526 666.378 264.139 c 0
 666.378 252.158 665.258 239.726 663 227 c 0
 639 89 501 -13 338 -13 c 0
 270 -13 204 7 168 38 c 1
 103 81 74 148 55 201 c 1
 142 242 l 1
 164 194 159 192 181 167 c 0
 230 114 287 84 357 84 c 0
 431 84 489 121 498 173 c 0
 500.078 183.984 503.302 200.874 503.302 219.195 c 0
 503.302 262.584 485.218 314 391 314 c 2
 249 314 l 1
 269 428 l 1
EndSplineSet
Fore
269 428 m 1xf0
 413 429 l 1
 414 429 414 429 415 429 c 0
 496 429 519 482 519 525 c 0
 519 561 479 597 420 597 c 0
 363 597 296 570 251 529 c 0
 231 511 215 495 175 451 c 1
 108 478 l 1
 210 681 l 1
 270 681 l 1
 276 649 l 1
 321 676 386 694 444 694 c 0
 579 694 667 620 667 513 c 0xe8
 667 453 647 410 617 374 c 1
 650 350 666 311 666 264 c 0
 666 100 498 -13 338 -13 c 0
 175 -13 90 91 55 201 c 1
 142 242 l 1
 164 194 159 192 181 167 c 0
 230 114 287 84 357 84 c 0
 448 84 503 132 503 219 c 0
 503 263 485 314 391 314 c 2
 249 314 l 1
 269 428 l 1xf0
EndSplineSet
EndChar
StartChar: afii10026
Encoding: 431 1048 325
Width: 819
Flags: W
HStem: 0 21G<14 365 458 809> 661 20G<134 485 578 929>
DStem: 192 513 367 513 132 168 325 275 618 406 811 513 576 168 751 168 635 503 618 406 325 275 308 178
Fore
325 275 m 1
 635 503 l 1
 636 513 l 1
 648 577 638 591 583 597 c 2
 564 599 l 1
 578 681 l 1
 929 681 l 1
 915 599 l 1
 894 597 l 2
 837 591 823 577 811 513 c 1
 751 168 l 1
 739 104 749 90 804 84 c 2
 823 82 l 1
 809 0 l 1
 458 0 l 1
 472 82 l 1
 493 84 l 2
 550 90 564 104 576 168 c 1
 618 406 l 1
 308 178 l 1
 307 168 l 1
 295 104 305 90 360 84 c 2
 379 82 l 1
 365 0 l 1
 14 0 l 1
 28 82 l 1
 49 84 l 2
 106 90 120 104 132 168 c 1
 192 513 l 1
 204 577 194 591 139 597 c 2
 120 599 l 1
 134 681 l 1
 485 681 l 1
 471 599 l 1
 450 597 l 2
 393 591 379 577 367 513 c 1
 325 275 l 1
EndSplineSet
MinimumDistance: x29,34 x16,11 
EndChar
StartChar: afii10027
Encoding: 432 1049 326
Width: 804
Flags: W
HStem: 0 21G<14 365 443 794> 661 20G<134 485 563 914> 738 84<525 561>
DStem: 192 513 367 513 132 168 325 275 603 406 796 513 561 168 736 168 620 503 603 406 325 275 308 178
Fore
639 878 m 1
 712 878 l 1
 700 822 689 799 664 777 c 0
 636 751 591 738 535 738 c 0
 430 738 385 777 373 878 c 1
 446 878 l 1
 460 835 483 822 539 822 c 0
 594 822 622 837 639 878 c 1
325 275 m 1
 620 503 l 1
 621 513 l 1
 633 577 623 591 568 597 c 2
 549 599 l 1
 563 681 l 1
 914 681 l 1
 900 599 l 1
 879 597 l 2
 822 591 808 577 796 513 c 1
 736 168 l 1
 724 104 734 90 789 84 c 2
 808 82 l 1
 794 0 l 1
 443 0 l 1
 457 82 l 1
 478 84 l 2
 535 90 549 104 561 168 c 1
 603 406 l 1
 308 178 l 1
 307 168 l 1
 295 104 305 90 360 84 c 2
 379 82 l 1
 365 0 l 1
 14 0 l 1
 28 82 l 1
 49 84 l 2
 106 90 120 104 132 168 c 1
 192 513 l 1
 204 577 194 591 139 597 c 2
 120 599 l 1
 134 681 l 1
 485 681 l 1
 471 599 l 1
 450 597 l 2
 393 591 379 577 367 513 c 1
 325 275 l 1
EndSplineSet
MinimumDistance: x36,41 x23,18 
Ligature: 0 1 'liga' afii10026 uni0306
EndChar
StartChar: afii10028
Encoding: 433 1050 327
Width: 732
Flags: W
HStem: -16 109<609 683> 513 183<726 756>
VStem: 480 171<76 150>
Fore
335 325 m 1
 313 196 l 2
 299 115 297 91 346 86 c 2
 375 83 l 1
 360 0 l 1
 14 0 l 1
 28 80 l 1
 54 83 l 2
 107 89 124 111 138 193 c 1
 190 487 l 1
 204 569 195 591 144 597 c 2
 120 600 l 1
 134 681 l 1
 480 681 l 1
 465 597 l 1
 436 594 l 2
 385 589 377 565 363 484 c 1
 349 401 l 1
 429 401 l 2
 497 401 534 472 570 572 c 0
 597 647 663 696 726 696 c 0
 811 696 831 652 830 591 c 0
 830 548 795 514 756 513 c 0
 704 512 695 525 690 543 c 0
 684 565 695 595 673 595 c 0
 657 595 649 585 643 563 c 0
 620 476 583 399 506 363 c 1
 635 364 651 224 651 150 c 0
 651 109 650 94 683 93 c 0
 727 92 737 150 737 150 c 1
 788 140 l 1
 788 140 741 -16 609 -16 c 0
 514 -16 480 24 480 76 c 0
 481 246 539 324 399 325 c 2
 335 325 l 1
EndSplineSet
EndChar
StartChar: afii10029
Encoding: 434 1051 328
Width: 821
Flags: W
HStem: -14 107<192 205> 585 96<313 626>
DStem: 637 483 807 488 586 194 755 193
Back
199 93 m 0
 255 93 337 306 368 487 c 0
 383 568 374 591 323 597 c 2
 299 600 l 1
 313 681 l 1
 931 681 l 1
 917 601 l 1
 892 598 l 2
 838 592 822 570 807 488 c 1
 755 193 l 1
 751.172 170.576 749.063 152.639 749.063 138.289 c 0
 749.063 100.164 763.946 87.3592 801 83 c 2
 825 80 l 1
 811 0 l 1
 462 0 l 1
 476 81 l 1
 502 84 l 2
 555 90 572 112 586 194 c 1
 637 483 l 1
 642.909 514.761 646.09 536.974 646.09 552.36 c 0
 646.09 578.636 636.813 585 616 585 c 2
 557 585 l 2
 516 584 519 565 508 525 c 0
 459 332 439 270 358 106 c 0
 324 37 266 -14 203 -14 c 0
 97.7957 -14 32.6186 15.8075 32.6186 72.2788 c 0
 32.6186 77.0001 33.0741 81.9078 34 87 c 0
 41 129 73 161 112 161 c 0
 146 161 166 149 171 131 c 0
 177 109 172 93 199 93 c 0
EndSplineSet
Fore
199 93 m 0
 255 93 337 306 368 487 c 0
 372 510 375 528 375 543 c 0
 375 580 360 593 323 597 c 2
 299 600 l 1
 313 681 l 1
 931 681 l 1
 917 601 l 1
 892 598 l 2
 838 592 822 570 807 488 c 2
 755 193 l 2
 751 171 749 153 749 138 c 0
 749 100 764 87 801 83 c 2
 825 80 l 1
 811 0 l 1
 462 0 l 1
 476 81 l 1
 502 84 l 2
 555 90 572 112 586 194 c 2
 637 483 l 2
 643 515 646 537 646 552 c 0
 646 579 637 585 616 585 c 2
 557 585 l 2
 516 584 519 565 508 525 c 0
 459 332 439 270 358 106 c 0
 324 37 266 -14 203 -14 c 0
 98 -14 33 15 33 72 c 0
 33 120 70 161 112 161 c 0
 146 161 166 149 171 131 c 0
 177 109 172 93 199 93 c 0
EndSplineSet
EndChar
StartChar: afii10030
Encoding: 435 1052 329
Width: 860
Flags: W
HStem: 0 21G<14 286 358 425 507 846> 661 20G<137 437 666 970>
DStem: 185 513 288 553 123 168 218 168 288 553 437 681 358 0 480 303 666 681 695 553 480 303 425 0 695 553 861 513 625 168 799 168
Fore
358 0 m 1
 288 553 l 1
 218 168 l 2
 216 158 214 138 214 129 c 0
 214 101 233 85 267 83 c 2
 301 81 l 1
 286 0 l 1
 14 0 l 1
 29 81 l 1
 42 83 l 2
 96 90 109 105 123 168 c 1
 185 513 l 2
 187 524 189 543 189 552 c 0
 189 581 176 592 136 598 c 2
 123 600 l 1
 137 681 l 1
 437 681 l 1
 480 303 l 1
 666 681 l 1
 970 681 l 1
 955 600 l 1
 940 598 l 2
 888 590 874 575 861 513 c 1
 799 168 l 1
 797 158 795 138 795 129 c 0
 795 101 810 88 846 83 c 2
 861 81 l 1
 846 0 l 1
 507 0 l 1
 522 81 l 1
 544 83 l 2
 597 90 612 105 625 168 c 1
 695 553 l 1
 425 0 l 1
 358 0 l 1
EndSplineSet
EndChar
StartChar: afii10031
Encoding: 436 1053 330
Width: 800
Flags: W
HStem: 323 90<350 584>
Fore
334 323 m 1
 305 168 l 1
 304 160 302 137 302 128 c 0
 302 101 319 86 355 83 c 2
 377 81 l 1
 362 0 l 1
 14 0 l 1
 29 81 l 1
 51 83 l 2
 104 90 119 106 131 168 c 1
 194 513 l 1
 196 525 198 542 198 552 c 0
 198 580 181 595 145 598 c 2
 123 600 l 1
 137 681 l 1
 485 681 l 1
 471 600 l 1
 448 598 l 2
 396 591 381 575 368 513 c 1
 350 413 l 1
 600 413 l 1
 618 513 l 1
 620 523 622 542 622 552 c 0
 622 580 605 595 569 598 c 2
 547 600 l 1
 562 681 l 1
 910 681 l 1
 895 600 l 1
 873 598 l 2
 820 591 805 575 793 513 c 1
 730 168 l 2
 728 157 726 138 726 129 c 0
 726 101 743 86 779 83 c 2
 801 81 l 1
 786 0 l 1
 438 0 l 1
 453 81 l 1
 476 83 l 2
 528 90 543 105 556 168 c 1
 584 323 l 1
 334 323 l 1
EndSplineSet
EndChar
StartChar: afii10032
Encoding: 437 1054 331
Width: 760
Flags: W
HStem: -13 96<392 415> 602 92<461 487>
VStem: 78 188<263 293> 613 193<385 414>
Fore
485 694 m 0
 678 694 806 571 806 386 c 0
 806 297 765 192 704 123 c 0
 630 38 514 -13 394 -13 c 0
 206 -13 78 110 78 291 c 0
 78 395 123 506 193 575 c 0
 269 650 376 694 485 694 c 0
473 602 m 0
 360 602 266 449 266 265 c 0
 266 152 317 83 400 83 c 0
 461 83 516 119 557 187 c 0
 588 239 613 339 613 412 c 0
 613 533 563 602 473 602 c 0
EndSplineSet
EndChar
StartChar: afii10033
Encoding: 438 1055 332
Width: 780
Flags: W
HStem: 0 21G<14 362 418 766> 591 90<137 614>
DStem: 194 513 384 591 131 168 305 168 614 591 773 513 536 168 710 168
Fore
384 591 m 1
 305 168 l 1
 304 160 302 137 302 128 c 0
 302 101 319 86 355 83 c 2
 377 81 l 1
 362 0 l 1
 14 0 l 1
 29 81 l 1
 51 83 l 2
 104 88 119 106 131 168 c 1
 194 513 l 1
 196 525 198 542 198 552 c 0
 198 580 181 595 145 598 c 2
 123 600 l 1
 137 681 l 1
 890 681 l 1
 875 600 l 1
 853 598 l 2
 800 593 785 575 773 513 c 1
 710 168 l 2
 708 157 706 138 706 129 c 0
 706 101 723 86 759 83 c 2
 781 81 l 1
 766 0 l 1
 418 0 l 1
 433 81 l 1
 456 83 l 2
 508 88 523 105 536 168 c 1
 614 591 l 1
 384 591 l 1
EndSplineSet
EndChar
StartChar: afii10034
Encoding: 439 1056 333
Width: 640
Flags: W
HStem: 0 21G<14 374> 601 80<137 463>
VStem: 558 186<495 519>
Fore
326 283 m 1
 305 168 l 1
 304 160 302 137 302 128 c 0
 302 101 321 85 355 83 c 2
 389 81 l 1
 374 0 l 1
 14 0 l 1
 29 81 l 1
 51 83 l 2
 104 90 119 106 131 168 c 1
 194 513 l 1
 196 525 198 542 198 552 c 0
 198 580 181 595 145 598 c 2
 123 600 l 1
 137 681 l 1
 479 681 l 2
 588 681 636 673 678 648 c 0
 719 623 744 574 744 517 c 0
 744 422 687 342 596 308 c 0
 550 291 494 283 409 283 c 2
 326 283 l 1
342 369 m 1
 367 369 l 2
 439 369 461 374 493 394 c 0
 532 420 558 466 558 510 c 0
 558 540 545 570 526 584 c 0
 511 595 485 601 453 601 c 0
 422 601 401 595 389 583 c 0
 380 574 378 570 371 527 c 1
 342 369 l 1
EndSplineSet
EndChar
StartChar: afii10035
Encoding: 440 1057 334
Width: 700
Flags: W
HStem: -13 92<397 436> 602 92<466 495>
VStem: 78 192<258 292>
Fore
704 681 m 1
 754 419 l 1
 680 403 l 1
 674 437 651 485 620 527 c 0
 585 574 535 602 483 602 c 0
 426 602 377 571 336 509 c 0
 295 446 270 356 270 270 c 0
 270 150 332 79 436 79 c 0
 519 79 611 136 669 224 c 1
 738 179 l 1
 657 53 539 -13 397 -13 c 0
 302 -13 215 21 158 79 c 0
 109 130 78 208 78 282 c 0
 78 374 114 473 175 552 c 0
 246 644 349 694 468 694 c 0
 523 694 569 682 636 651 c 1
 648 681 l 1
 704 681 l 1
EndSplineSet
EndChar
StartChar: afii10036
Encoding: 441 1058 335
Width: 700
Flags: W
HStem: 0 21G<148 536> 661 20G<171 753>
DStem: 364 600 538 600 285 168 459 168
Fore
538 600 m 1
 459 168 l 1
 458 161 456 139 456 129 c 0
 456 98 472 86 518 83 c 2
 550 81 l 1
 536 0 l 1
 148 0 l 1
 162 81 l 1
 195 83 l 2
 255 87 272 102 285 168 c 1
 364 600 l 1
 260 592 208 558 129 448 c 1
 70 477 l 1
 171 681 l 1
 753 681 l 1
 802 464 l 1
 730 448 l 1
 692 546 631 594 538 600 c 1
EndSplineSet
EndChar
StartChar: afii10037
Encoding: 442 1059 336
Width: 676
Flags: W
HStem: -14 156<155 170> 661 20G<133 473 534 833>
DStem: 207 557 379 538 345 172 452 318 566 483 669 492 452 318 435 154
Back
452 318 m 1
 566 483 l 2
 588 514 602 545 604 559 c 0
 607 587 572 593 521 603 c 1
 534 681 l 1
 833 681 l 1
 819 600 l 1
 765 592 736 589 669 492 c 2
 435 154 l 1
 336 28 286 -14 170 -14 c 0
 113.111 -14 72.0247 17.6049 72.0247 63.9588 c 0
 72.0247 69.7531 72.6667 75.7778 74 82 c 0
 79 108 128 142 157 142 c 0
 158.111 142 159.247 142.003 160.402 142.003 c 0
 180.046 142.003 205.389 141.111 212 109 c 0
 216 94 218 79 234 79 c 0
 290 80 345 172 345 172 c 1
 207 557 l 1
 187 600 167 595 119 602 c 1
 133 681 l 1
 473 681 l 1
 459 601 l 1
 419 596 365 582 374 558 c 0
 376 552 377 545 379 538 c 2
 452 318 l 1
EndSplineSet
Fore
452 318 m 1
 566 483 l 2
 588 514 602 545 604 559 c 0
 607 587 572 593 521 603 c 1
 534 681 l 1
 833 681 l 1
 819 600 l 1
 765 592 736 589 669 492 c 2
 435 154 l 1
 336 28 286 -14 170 -14 c 0
 113 -14 72 18 72 64 c 0
 72 114 120 142 157 142 c 0
 180 142 204 134 212 109 c 0
 217 94 218 79 234 79 c 0
 291 79 345 172 345 172 c 1
 207 557 l 1
 187 600 167 595 119 602 c 1
 133 681 l 1
 473 681 l 1
 459 601 l 1
 419 596 365 582 374 558 c 0
 376 552 377 545 379 538 c 2
 452 318 l 1
EndSplineSet
EndChar
StartChar: afii10038
Encoding: 443 1060 337
Width: 888
Flags: W
HStem: 43 88<523 544> 553 78<430 453>
VStem: 63 154<277 311> 764 155<389 407>
DStem: 440 553 613 553 365 131 538 131
Back
523 43 m 1x50
 518 17 534 2 587 -6 c 2
 606 -9 l 1
 592 -90 l 1
 234 -90 l 1x80
 248 -9 l 1
 269 -6 l 2
 325 2 345 14 350 44 c 1
 288.371 44 62.5979 72.7675 62.5979 285.18 c 0
 62.5979 303.691 64.3126 323.597 68 345 c 1
 114 600 366 631 453 631 c 1x30
 457 651 453 676 391 686 c 2
 372 689 l 1
 386 770 l 1
 743 770 l 1x08
 729 689 l 1
 708 686 l 2
 645 677 629 652 626 631 c 1
 708.461 631 918.525 606.655 918.525 404.899 c 0
 918.525 386.455 916.769 366.527 913 345 c 0
 866 80 600 44 523 43 c 1x50
613 553 m 1x90
 538 131 l 1
 591 132 726 158 759 345 c 0
 762.356 363.981 763.886 381.257 763.886 396.978 c 0
 763.886 531.178 652.386 552.105 613 553 c 1x90
440 553 m 1
 397 552 255 528 222 345 c 1
 218.755 325.844 217.274 308.364 217.274 292.419 c 0
 217.274 156.037 325.606 131.895 365 131 c 1
 440 553 l 1
EndSplineSet
Fore
523 43 m 1
 518 17 534 2 587 -6 c 2
 606 -9 l 1
 592 -90 l 1
 234 -90 l 1
 248 -9 l 1
 269 -6 l 2
 325 2 345 14 350 44 c 1
 288 44 63 76 63 285 c 0
 63 558 317 631 453 631 c 1
 457 651 453 676 391 686 c 2
 372 689 l 1
 386 770 l 1
 743 770 l 1
 729 689 l 1
 708 686 l 2
 645 677 629 652 626 631 c 1
 708 631 919 607 919 405 c 0
 919 122 646 45 523 43 c 1
613 553 m 1
 538 131 l 1
 611 132 764 192 764 397 c 0
 764 531 652 552 613 553 c 1
440 553 m 1
 378 552 217 496 217 292 c 0
 217 156 326 132 365 131 c 1
 440 553 l 1
EndSplineSet
EndChar
StartChar: afii10039
Encoding: 444 1061 338
Width: 740
Flags: W
HStem: 0 21G<-7 299 375 751> 661 20G<130 487 537 835>
DStem: 326 348 374 269 182 186 270 150 568 550 641 497 473 442 523 363
Fore
523 363 m 1
 627 180 l 1
 667 115 705 88 766 81 c 1
 751 0 l 1
 375 0 l 1
 390 81 l 1
 444 85 455 89 455 103 c 0
 455 110 450 122 440 143 c 1
 374 269 l 1
 270 150 l 2
 251 129 245 118 245 108 c 0
 245 94 258 88 303 82 c 2
 314 81 l 1
 299 0 l 1
 -7 0 l 1
 8 81 l 1
 94 102 104 108 182 186 c 1
 326 348 l 1
 241 500 l 1
 194 575 179 588 127 597 c 0
 125 598 120 599 115 600 c 1
 130 681 l 1
 487 681 l 1
 473 600 l 1
 423 598 406 592 406 576 c 0
 406 568 412 553 422 534 c 2
 473 442 l 1
 568 550 l 2
 581 564 585 572 585 579 c 0
 585 594 575 597 523 600 c 1
 537 681 l 1
 835 681 l 1
 820 600 l 1
 754 593 701 563 641 497 c 1
 523 363 l 1
EndSplineSet
EndChar
StartChar: afii10040
Encoding: 445 1062 339
Width: 804
Flags: W
HStem: 0 97<294 644> 661 20G<134 485 563 914>
DStem: 193 513 368 513 132 168 294 97 622 513 797 513 548 97 738 180
Fore
827 95 m 1
 826 -109 l 1
 754 -129 l 1
 728 -13 748 1 644 1 c 2
 14 0 l 1
 29 82 l 1
 49 84 l 2
 106 90 121 104 132 168 c 1
 193 513 l 1
 204 577 195 591 140 597 c 2
 120 599 l 1
 134 681 l 1
 485 681 l 1
 471 599 l 1
 451 597 l 2
 394 591 379 577 368 513 c 1
 294 97 l 1
 548 97 l 1
 622 513 l 1
 633 577 624 591 569 597 c 2
 549 599 l 1
 563 681 l 1
 914 681 l 1
 900 599 l 1
 880 597 l 2
 823 591 808 577 797 513 c 1
 738 180 l 1
 727 116 735 98 791 96 c 2
 827 95 l 1
EndSplineSet
MinimumDistance: x19,24 x9,14 
EndChar
StartChar: afii10041
Encoding: 446 1063 340
Width: 754
Flags: W
HStem: 0 21G<393 744> 226 94<323 400> 661 20G<108 459 513 864>
Fore
317 373 m 2
 308 328 387 320 400 320 c 0
 468 320 496 342 547 373 c 1
 571 513 l 2
 583 577 573 591 518 597 c 2
 499 599 l 1
 513 681 l 1
 864 681 l 1
 850 599 l 1
 829 597 l 2
 772 591 757 577 746 513 c 2
 686 168 l 2
 675 104 684 90 739 84 c 2
 758 82 l 1
 744 0 l 1
 393 0 l 1
 407 82 l 1
 428 84 l 2
 485 90 500 104 511 168 c 2
 530 276 l 1
 477 253 400 226 323 226 c 0
 186 226 128 299 141 369 c 2
 166 513 l 2
 178 577 168 591 113 597 c 2
 94 599 l 1
 108 681 l 1
 459 681 l 1
 445 599 l 1
 424 597 l 2
 367 591 353 577 341 513 c 2
 317 373 l 2
EndSplineSet
EndChar
StartChar: afii10042
Encoding: 447 1064 341
Width: 1124
Flags: W
HStem: 0 96<294 1113> 661 20G<134 485 509 860 883 1234>
DStem: 192 513 367 513 132 168 294 97 567 513 742 513 493 96 670 96 941 513 1116 513 868 97 1055 168
Fore
1113 0 m 1
 14 0 l 1
 28 82 l 1
 49 84 l 2
 106 90 120 104 132 168 c 1
 192 513 l 1
 204 577 194 591 139 597 c 2
 120 599 l 1
 134 681 l 1
 485 681 l 1
 471 599 l 1
 450 597 l 2
 393 591 379 577 367 513 c 1
 294 97 l 1
 493 96 l 1
 567 513 l 1
 579 577 569 591 514 597 c 2
 495 599 l 1
 509 681 l 1
 860 681 l 1
 846 599 l 1
 825 597 l 2
 768 591 754 577 742 513 c 1
 670 96 l 1
 868 97 l 1
 941 513 l 1
 953 577 943 591 888 597 c 2
 869 599 l 1
 883 681 l 1
 1234 681 l 1
 1220 599 l 1
 1199 597 l 2
 1142 591 1128 577 1116 513 c 1
 1055 168 l 1
 1043 104 1053 90 1108 84 c 2
 1127 82 l 1
 1113 0 l 1
EndSplineSet
MinimumDistance: x26,31 x6,11 x16,21 
EndChar
StartChar: afii10043
Encoding: 448 1065 342
Width: 1155
Flags: W
HStem: 0 96<294 964> 661 20G<134 485 509 860 883 1234>
DStem: 193 513 368 513 132 168 294 97 568 513 743 513 493 96 670 96 942 513 1117 513 868 97 1058 180
Fore
670 96 m 1
 868 97 l 1
 942 513 l 1
 953 577 944 591 889 597 c 2
 869 599 l 1
 883 681 l 1
 1234 681 l 1
 1220 599 l 1
 1200 597 l 2
 1143 591 1128 577 1117 513 c 1
 1058 180 l 1
 1047 116 1055 98 1111 96 c 2
 1147 95 l 1
 1146 -109 l 1
 1074 -129 l 1
 1048 -13 1068 1 964 1 c 2
 14 0 l 1
 29 82 l 1
 49 84 l 2
 106 90 121 104 132 168 c 1
 193 513 l 1
 204 577 195 591 140 597 c 2
 120 599 l 1
 134 681 l 1
 485 681 l 1
 471 599 l 1
 451 597 l 2
 394 591 379 577 368 513 c 1
 294 97 l 1
 493 96 l 1
 568 513 l 1
 579 577 570 591 515 597 c 2
 495 599 l 1
 509 681 l 1
 860 681 l 1
 846 599 l 1
 826 597 l 2
 769 591 754 577 743 513 c 1
 670 96 l 1
EndSplineSet
MinimumDistance: x0,11 x3,8 x21,26 x31,36 
EndChar
StartChar: afii10044
Encoding: 449 1066 343
Width: 858
Flags: W
HStem: 0 84<522 585> 591 89<137 356>
VStem: 695 194<223 241>
Fore
204 0 m 1
 219 81 l 1
 241 83 l 2
 294 88 309 106 321 168 c 1
 384 513 l 1
 389 545 392 562 392 565 c 0
 392 582 383 591 345 591 c 0
 275 591 268 575 210 536 c 0
 192 524 131 474 88 409 c 1
 19 446 l 1
 137 680 l 1
 675 681 l 1
 661 600 l 1
 638 598 l 2
 586 593 571 573 558 511 c 1
 538 405 l 1
 573 405 l 2
 856 405 889 310 889 232 c 0
 889 172 857 108 807 66 c 0
 754 22 680 0 585 0 c 2
 204 0 l 1
523 322 m 1
 501 201 l 1
 494 151 491 124 491 121 c 0
 491 96 492 84 544 84 c 0
 596 84 623 95 655 125 c 0
 688 155 695 192 695 233 c 0
 695 298 660 322 567 322 c 2
 523 322 l 1
EndSplineSet
EndChar
StartChar: afii10045
Encoding: 450 1067 344
Width: 1014
Flags: W
HStem: 0 84<332 395> 661 20G<137 485 776 1124>
VStem: 505 194<223 241>
DStem: 833 513 1007 513 770 168 944 168
Fore
368 511 m 1
 348 405 l 1
 383 405 l 2
 666 405 699 310 699 232 c 0
 699 172 667 108 617 66 c 0
 564 22 490 0 395 0 c 2
 14 0 l 1
 29 81 l 1
 51 83 l 2
 104 88 119 106 131 168 c 1
 194 513 l 1
 196 525 198 542 198 552 c 0
 198 580 181 595 145 598 c 2
 123 600 l 1
 137 681 l 1
 485 681 l 1
 471 600 l 1
 448 598 l 2
 396 593 381 573 368 511 c 1
333 322 m 1
 311 201 l 1
 304 151 301 124 301 121 c 0
 301 96 302 84 354 84 c 0
 406 84 433 95 465 125 c 0
 498 155 505 192 505 233 c 0
 505 298 470 322 377 322 c 2
 333 322 l 1
762 600 m 1
 776 681 l 1
 1124 681 l 1
 1109 600 l 1
 1087 598 l 2
 1034 591 1020 575 1007 513 c 1
 944 168 l 1
 943 161 941 137 941 128 c 0
 941 101 958 86 994 83 c 2
 1015 81 l 1
 1000 0 l 1
 653 0 l 1
 668 81 l 1
 690 83 l 2
 743 90 757 106 770 168 c 1
 833 513 l 1
 834 521 836 543 836 552 c 0
 836 580 819 595 783 598 c 2
 762 600 l 1
EndSplineSet
EndChar
StartChar: afii10046
Encoding: 451 1068 345
Width: 677
Flags: W
HStem: 0 84<332 395> 661 20G<137 485>
VStem: 505 194<223 241>
Fore
368 511 m 1
 348 405 l 1
 383 405 l 2
 666 405 699 310 699 232 c 0
 699 172 667 108 617 66 c 0
 564 22 490 0 395 0 c 2
 14 0 l 1
 29 81 l 1
 51 83 l 2
 104 88 119 106 131 168 c 1
 194 513 l 1
 196 525 198 542 198 552 c 0
 198 580 181 595 145 598 c 2
 123 600 l 1
 137 681 l 1
 485 681 l 1
 471 600 l 1
 448 598 l 2
 396 593 381 573 368 511 c 1
333 322 m 1
 311 201 l 1
 304 151 301 124 301 121 c 0
 301 96 302 84 354 84 c 0
 406 84 433 95 465 125 c 0
 498 155 505 192 505 233 c 0
 505 298 470 322 377 322 c 2
 333 322 l 1
EndSplineSet
EndChar
StartChar: afii10047
Encoding: 452 1069 346
Width: 729
Flags: W
HStem: -13 92<321 349> 320 92<339 572> 612 82<448 488>
VStem: 584 191<412 436>
Back
584 412 m 1
 584.233 417.815 584.348 423.521 584.348 429.117 c 0
 584.348 543.815 535.72 612 448 612 c 0
 399 612 348 588 293 541 c 1
 265 515 247 494 188 416 c 1
 116 445 l 1
 242 681 l 1
 311 681 l 1
 315 658 l 1
 367 681 429 694 488 694 c 0
 570 694 638 672 688 629 c 0
 744.075 579.244 774.575 502.665 774.575 414.045 c 0
 774.575 390.457 772.414 366.016 768 341 c 0
 732 135 556 -13 347 -13 c 0
 196 -13 79 71 54 199 c 1
 143 241 l 1
 164 192 180 163 201 141 c 0
 235 103 288 79 338 79 c 0
 378 79 423 95 460 123 c 0
 515 165 553 232 572 320 c 1
 323 320 l 1
 340 412 l 1
 584 412 l 1
EndSplineSet
Fore
584 412 m 1
 584 418 584 424 584 429 c 0
 584 544 536 612 448 612 c 0
 399 612 348 588 293 541 c 1
 265 515 247 494 188 416 c 1
 116 445 l 1
 242 681 l 1
 311 681 l 1
 315 658 l 1
 367 681 429 694 488 694 c 0
 570 694 638 672 688 629 c 0
 744 579 775 503 775 414 c 0
 775 165 567 -13 347 -13 c 0
 196 -13 79 71 54 199 c 1
 143 241 l 1
 164 192 180 163 201 141 c 0
 235 103 288 79 338 79 c 0
 378 79 423 95 460 123 c 0
 515 165 553 232 572 320 c 1
 323 320 l 1
 340 412 l 1
 584 412 l 1
EndSplineSet
EndChar
StartChar: afii10048
Encoding: 453 1070 347
Width: 1083
Flags: W
HStem: -13 102<709 737> 592 102<827 848>
VStem: 427 192<242 292> 947 189<413 444>
Back
455 415 m 1
 520 580 662 694 846 694 c 0
 942 694 1003 664 1060 608 c 0
 1110.65 558.116 1135.98 495.864 1135.98 419.436 c 0
 1135.98 396.276 1133.65 371.814 1129 346 c 0
 1093 142 923 -13 709 -13 c 0
 621 -13 575 10 517 59 c 1
 456.681 111.882 427.086 179.785 427.086 263.272 c 0
 427.086 280.824 428.394 299.065 431 318 c 1
 333 318 l 1
 307 168 l 1
 295 104 305 90 360 84 c 2
 379 82 l 1
 365 0 l 1
 14 0 l 1
 28 82 l 1
 49 84 l 2
 106 90 120 104 132 168 c 1
 192 513 l 1
 204 577 194 591 139 597 c 2
 120 599 l 1
 134 681 l 1
 485 681 l 1
 471 599 l 1
 450 597 l 2
 393 591 379 577 367 513 c 1
 350 415 l 1
 455 415 l 1
829 592 m 0
 723 592 652 489 626 338 c 0
 621.47 312.908 619.247 287.816 619.247 263.952 c 0
 619.247 219.338 627.015 179.015 642 151 c 0
 662 113 686 89 735 89 c 0
 841 89 910 192 937 344 c 0
 943.306 380.434 946.612 413.378 946.612 442.473 c 0
 946.612 537.956 911.01 592 829 592 c 0
EndSplineSet
Fore
455 415 m 1
 520 580 662 694 846 694 c 0
 1015 694 1136 581 1136 419 c 0
 1136 168 933 -13 709 -13 c 0
 540 -13 427 106 427 263 c 0
 427 281 428 299 431 318 c 1
 333 318 l 1
 307 168 l 2
 295 104 305 90 360 84 c 2
 379 82 l 1
 365 0 l 1
 14 0 l 1
 28 82 l 1
 49 84 l 2
 106 90 120 104 132 168 c 2
 192 513 l 2
 204 577 194 591 139 597 c 2
 120 599 l 1
 134 681 l 1
 485 681 l 1
 471 599 l 1
 450 597 l 2
 393 591 379 577 367 513 c 2
 350 415 l 1
 455 415 l 1
829 592 m 0
 705 592 619 427 619 264 c 0
 619 174 650 89 735 89 c 0
 868 89 947 275 947 442 c 0
 947 538 911 592 829 592 c 0
EndSplineSet
EndChar
StartChar: afii10049
Encoding: 454 1071 348
Width: 725
Flags: W
HStem: -16 96<136 184> 276 89<464 501> 589 92<474 503>
VStem: 158 194<435 459>
Back
325 276 m 1
 201.297 292.946 157.997 356.554 157.997 434.587 c 0
 157.997 448.652 159.404 463.186 162 478 c 0
 173 544 212 603 268 638 c 0
 317 670 371 681 476 681 c 2
 835 681 l 1
 821 599 l 1
 801 597 l 2
 744 591 729 577 718 513 c 1
 657 168 l 1
 646 104 655 90 710 84 c 2
 730 82 l 1
 715 0 l 1
 364 0 l 1
 379 82 l 1
 399 84 l 2
 456 90 471 104 482 168 c 2
 501 276 l 1
 412 276 l 1
 376 256 347 232 326 76 c 0
 318 16 251 -16 184 -16 c 0
 26 -16 51 140 51 140 c 1
 105 150 l 1
 105 150 92 80 136 80 c 0
 184 80 185 114 198 146 c 0
 236 238 270 260 325 276 c 1
543 516 m 1
 550 552 551 563 546 571 c 0
 541 582 518 589 488 589 c 0
 420 589 365 545 354 480 c 0
 352.577 472.012 351.873 464.394 351.873 457.163 c 0
 351.873 398.311 398.505 365 484 365 c 0
 493 365 501 365 517 367 c 1
 543 516 l 1
EndSplineSet
Fore
325 276 m 1
 201 293 158 357 158 435 c 0
 158 592 266 681 476 681 c 2
 835 681 l 1
 821 599 l 1
 801 597 l 2
 744 591 729 577 718 513 c 2
 657 168 l 2
 646 104 655 90 710 84 c 2
 730 82 l 1
 715 0 l 1
 364 0 l 1
 379 82 l 1
 399 84 l 2
 456 90 471 104 482 168 c 2
 501 276 l 1
 412 276 l 1
 376 256 347 232 326 76 c 0
 318 16 251 -16 184 -16 c 0
 26 -16 51 140 51 140 c 1
 105 150 l 1
 105 150 92 80 136 80 c 0
 184 80 185 114 198 146 c 0
 236 238 270 260 325 276 c 1
544 516 m 2
 551 552 551 563 546 571 c 0
 541 582 518 589 488 589 c 0
 414 589 352 533 352 457 c 0
 352 398 399 365 484 365 c 0
 493 365 501 365 517 367 c 1
 544 516 l 2
EndSplineSet
EndChar
StartChar: afii10065
Encoding: 455 1072 349
Width: 680
Flags: W
HStem: -9 100<279 322> 432 88<382 409>
VStem: 84 169<180 204>
Fore
667 511 m 1
 609 189 l 1
 601 152 601 151 601 139 c 0
 601 116 617 99 639 99 c 0
 655 99 670 106 692 123 c 1
 735 70 l 1
 680 18 623 -9 567 -9 c 0
 503 -9 460 19 446 70 c 1
 403 19 343 -9 279 -9 c 0
 166 -9 84 80 84 204 c 0
 84 374 222 520 382 520 c 0
 432 520 482 503 518 473 c 1
 525 511 l 1
 667 511 l 1
494 400 m 1
 459 422 434 432 409 432 c 0
 373 432 338 411 311 373 c 0
 278 328 253 245 253 182 c 0
 253 126 280 91 322 91 c 0
 360 91 394 117 425 170 c 0
 450 213 465 264 494 400 c 1
EndSplineSet
EndChar
StartChar: afii10066
Encoding: 456 1073 350
Width: 595
Flags: W
HStem: -9 88<292 310> 432 88<358.141 390> 604 134<385 566>
VStem: 53 173<165 195> 453 168<308 337>
Fore
265 500 m 1
 303 514 334 520 378 520 c 0
 534 520 621 444 621 308 c 0
 621 233 584 143 531 87 c 0
 473 25 389 -9 295 -9 c 0
 146 -9 53 72 53 195 c 0
 53 324 140 738 408 738 c 2
 558 738 l 2
 596 738 605 743 606 765 c 1
 678 765 l 1
 678 765 652 604 552 604 c 2
 384 604 l 2
 346 604 298 576 265 500 c 1
374 432 m 0
 329 432 299 410 272 358 c 0
 248 312 226 220 226 165 c 0
 226 111 254 79 303 79 c 0
 347 79 382 104 407 153 c 0
 430 197 453 289 453 337 c 0
 453 403 429 432 374 432 c 0
EndSplineSet
EndChar
StartChar: afii10067
Encoding: 457 1074 351
Width: 558
Flags: W
HStem: -9 72<263 304> 450 69<334 352>
VStem: 47 159<89 102> 418 150<159 176> 427 134<386 404>
Back
345 519 m 0
 427 520 459 506 495 491 c 0
 536 473 561 440 561 404 c 0
 561 337 517 284 410 275 c 1
 503 274 568 218 568 159 c 0
 568 114 536 66 486 35 c 0
 433 2 366 -8 283 -9 c 4
 279.434 -9.03794 275.766 -9.05976 272.011 -9.05976 c 0
 183.487 -9.05976 46.58 3.07041 46.58 102.065 c 0
 46.58 109.538 47.3601 117.505 49 126 c 2
 99 385 l 2
 119.998 493.77 235 518 345 519 c 0
234 242 m 1
 227 208 209 113 206 91 c 1
 206 72 251 63 283 63 c 0
 395 64 407 114 418 175 c 1
 418.021 175.485 418.032 175.98 418.032 176.483 c 0
 418.032 199.837 394.658 242 286 242 c 2
 234 242 l 1
248 304 m 1
 302 304 l 2
 415 304 425 354 427 388 c 0
 427.075 389.196 427.127 390.559 427.127 392.058 c 0
 427.127 410.619 419.096 450 346 450 c 0
 315 450 318 448 303 442 c 0
 290 437 273 425 265 394 c 1
 248 304 l 1
EndSplineSet
Fore
345 519 m 0xf0
 427 520 459 506 495 491 c 0
 536 473 561 440 561 404 c 0xe8
 561 337 517 284 410 275 c 1
 503 274 568 218 568 159 c 0
 568 114 536 66 486 35 c 0
 431 1 359 -9 272 -9 c 0
 183 -9 47 3 47 102 c 0
 47 110 47 118 49 126 c 2
 99 385 l 2
 120 494 235 518 345 519 c 0xf0
234 242 m 1
 227 208 209 113 206 91 c 1
 206 72 251 63 283 63 c 0
 391 63 418 134 418 176 c 0xf0
 418 200 395 242 286 242 c 2
 234 242 l 1
248 304 m 1
 302 304 l 2
 415 304 427 355 427 392 c 0xe8
 427 411 419 450 346 450 c 0
 315 450 318 448 303 442 c 0
 290 437 273 425 265 394 c 1
 248 304 l 1
EndSplineSet
EndChar
StartChar: afii10068
Encoding: 458 1075 352
Width: 549
Flags: W
HStem: -9 82<278 306> 438 82<337 369>
VStem: 46 186<122 142> 392 182<387 403>
Back
301 328 m 2
 345 341 351 343 363 352 c 0
 374 359 384 372 389 385 c 0
 390.95 390.673 391.894 396 391.894 400.926 c 0
 391.894 423.786 371.554 438 337 438 c 0
 302 438 280 430 253 407 c 0
 212 371 190 361 158 361 c 0
 130.749 361 113.776 376.418 113.776 398.501 c 0
 113.776 403.97 114.817 409.847 117 416 c 0
 137 474 248 520 369 520 c 0
 495.704 520 573.826 466.489 573.826 386.645 c 0
 573.826 371.334 570.953 355.056 565 338 c 0
 543 275 488 235 389 209 c 2
 310 189 l 2
 262 176 244 164 235 138 c 0
 232.875 132.232 231.879 126.74 231.879 121.571 c 0
 231.879 92.6829 262.982 73.8482 302 73 c 0
 303.37 72.9689 304.737 72.9535 306.101 72.9535 c 0
 392.357 72.9535 466.56 134.452 502 163 c 1
 502 163 546.792 101.842 547.636 101.842 c 0
 547.644 101.842 547.648 101.848 547.648 101.859 c 0
 547.648 101.939 547.441 102.306 547 103 c 1
 484.459 58.3277 394.324 -9.01091 277.573 -9.01091 c 0
 276.717 -9.01091 275.859 -9.00728 275 -9 c 0
 149.008 -8.13109 45.6664 54.6481 45.6664 141.944 c 0
 45.6664 155.114 48.0186 168.842 53 183 c 0
 65 216 95 251 128 270 c 0
 149 282 176 293 213 303 c 2
 301 328 l 2
EndSplineSet
Fore
301 328 m 2
 362 346 392 363 392 401 c 0
 392 424 372 438 337 438 c 0
 302 438 280 430 253 407 c 0
 212 371 190 361 158 361 c 0
 131 361 114 376 114 399 c 0
 114 465 244 520 369 520 c 0
 496 520 574 466 574 387 c 0
 574 292 493 236 389 209 c 2
 310 189 l 2
 258 175 232 154 232 122 c 0
 232 92 263 73 306 73 c 0
 392 73 467 134 502 163 c 1
 547 103 l 1
 484 58 394 -9 278 -9 c 0
 152 -9 46 54 46 142 c 0
 46 200 87 246 128 270 c 0
 149 282 176 293 213 303 c 2
 301 328 l 2
EndSplineSet
EndChar
StartChar: afii10069
Encoding: 459 1076 353
Width: 600
Flags: W
HStem: -9 88<298 316> 432 88<364.141 396> 674 89<266 284>
VStem: 59 173<165 195> 459 165<308 344>
Back
461 511 m 1
 453 591 392 648 362 660 c 1
 332.664 668.599 302.56 674.127 271.041 674.127 c 0
 240.246 674.127 208.1 668.849 174 656 c 1
 161 746 l 1
 209.6 757.302 245.107 763.495 281.958 763.495 c 0
 310.316 763.495 339.47 759.828 376 752 c 0
 600 704 624 450 624 308 c 0
 624 233 590 143 537 87 c 0
 479 25 395 -9 301 -9 c 0
 152 -9 59 70 59 195 c 0
 59 284 99 379 162 439 c 0
 217 491 296 520 384 520 c 0
 413 520 434 520 461 511 c 1
380 432 m 0
 335 432 305 410 278 358 c 0
 254 312 232 220 232 165 c 0
 232 111 260 79 309 79 c 0
 353 79 388 104 413 153 c 0
 436 197 459 289 459 337 c 0
 459 403 435 432 380 432 c 0
EndSplineSet
Fore
461 511 m 1
 450 624 369 674 271 674 c 0
 240 674 208 669 174 656 c 1
 161 746 l 1
 210 757 245 763 282 763 c 0
 545 763 624 552 624 308 c 0
 624 233 590 143 537 87 c 0
 479 25 395 -9 301 -9 c 0
 152 -9 59 70 59 195 c 0
 59 284 99 379 162 439 c 0
 217 491 296 520 384 520 c 0
 413 520 434 520 461 511 c 1
380 432 m 0
 335 432 305 410 278 358 c 0
 254 312 232 220 232 165 c 0
 232 111 260 79 309 79 c 0
 353 79 388 104 413 153 c 0
 436 197 459 289 459 337 c 0
 459 403 435 432 380 432 c 0
EndSplineSet
EndChar
StartChar: afii10070
Encoding: 460 1077 354
Width: 560
Flags: W
HStem: -9 96<295 328> 222 70<246 284> 442 78<391 420>
VStem: 59 170<180 203> 448 148<383 399>
Fore
516 174 m 1
 570 115 l 1
 552 95 531 79 499 58 c 0
 426 11 364 -9 295 -9 c 0
 155 -9 59 78 59 203 c 0
 59 376 223 520 420 520 c 0
 526 520 596 471 596 397 c 0
 596 337 557 289 485 261 c 0
 418 235 343 222 258 222 c 0
 254 222 243 222 232 223 c 1
 230 206 229 193 229 180 c 0
 229 124 268 87 328 87 c 0
 388 87 447 115 516 174 c 1
246 292 m 1
 258 292 l 2
 362 292 448 338 448 394 c 0
 448 422 425 442 392 442 c 0
 356 442 320 421 291 383 c 0
 268 354 252 321 246 292 c 1
EndSplineSet
EndChar
StartChar: afii10071
Encoding: 461 1105 355
Width: 560
Flags: W
HStem: -9 96<295 328> 222 70<246 284> 442 78<391 420> 569 160<271 302 500 531>
VStem: 59 170<180 203> 207 160<634 664> 436 160<634 664> 448 148<383 399>
Fore
516 174 m 1xf9
 570 115 l 1
 552 95 531 79 499 58 c 0
 426 11 364 -9 295 -9 c 0
 155 -9 59 78 59 203 c 0
 59 376 223 520 420 520 c 0
 526 520 596 471 596 397 c 0
 596 337 557 289 485 261 c 0
 418 235 343 222 258 222 c 0
 254 222 243 222 232 223 c 1
 230 206 229 193 229 180 c 0
 229 124 268 87 328 87 c 0
 388 87 447 115 516 174 c 1xf9
246 292 m 1
 258 292 l 2
 362 292 448 338 448 394 c 0
 448 422 425 442 392 442 c 0
 356 442 320 421 291 383 c 0
 268 354 252 321 246 292 c 1
302 729 m 0
 341 729 367 703 367 664 c 0
 367 617 318 569 271 569 c 0
 234 569 207 597 207 634 c 0xf4
 207 683 253 729 302 729 c 0
531 729 m 0
 570 729 596 703 596 664 c 0
 596 617 547 569 500 569 c 0
 463 569 436 597 436 634 c 0xf2
 436 683 482 729 531 729 c 0
EndSplineSet
Ligature: 0 1 'liga' afii10070 uni0308
EndChar
StartChar: afii10072
Encoding: 462 1078 356
Width: 1253
Flags: W
HStem: -9 78<220 238> 424 96<293 330> 442 78<1077 1095>
VStem: 25 164<105 120> 25 172<106 150> 396 168<304 318> 751 168<193 216> 1118 172<361 391 361 400> 1126 164<391 406>
DStem: 587 222 719 222 547 0 680 0 639 510 771 510 601 304 734 304
Fore
719 222 m 1xa680
 680 0 l 1
 547 0 l 1
 587 222 l 1
 551 222 l 1
 509 92 371 -9 220 -9 c 0
 112 -9 25 48 25 120 c 0xb680
 25 169 70 210 123 210 c 0
 165 210 197 184 197 150 c 0xae
 197 141 189 116 189 105 c 0
 189 84 209 69 236 69 c 0
 316 69 396 192 396 316 c 0
 396 385 359 424 293 424 c 0
 235 424 177 398 105 340 c 1
 52 398 l 1
 118 470 232 520 330 520 c 0xd6
 469 520 564 432 564 304 c 1
 601 304 l 1
 639 510 l 1
 771 510 l 1
 734 304 l 1
 770 304 l 1
 818 426 950 520 1095 520 c 0
 1203 520 1290 463 1290 391 c 0
 1290 342 1245 301 1192 301 c 0
 1150 301 1118 327 1118 361 c 0xb7
 1118 370 1126 395 1126 406 c 0
 1126 427 1106 442 1079 442 c 0
 999 442 919 319 919 195 c 0
 919 126 956 87 1022 87 c 0
 1080 87 1138 113 1210 171 c 1
 1263 113 l 1
 1197 41 1083 -9 985 -9 c 0
 846 -9 751 78 751 206 c 2
 751 222 l 1
 719 222 l 1xa680
EndSplineSet
EndChar
StartChar: afii10073
Encoding: 463 1079 357
Width: 548
Flags: W
HStem: -9 82<259 293> 438 84<367 384>
VStem: 388 155<134 152> 433 145<373 392>
Back
230 222 m 1
 230 304 l 1
 289 304 l 2
 340 304 432 294 433 375 c 0
 433 407 411 438 369 438 c 0
 290 438 196 388 165 361 c 1
 165 450 l 1
 202 472 286 522 384 522 c 0
 520 522 574 476 578 392 c 0
 582 302 530 258 489 251 c 1
 532 236 543 171 543 150 c 0
 543 42 427 -9 264 -9 c 0
 190 -9 106 9 59 39 c 0
 34 55 20 78 20 103 c 0
 20 137 48 163 86 163 c 0
 122 163 142 151 180 108 c 0
 201 83 234 73 266 73 c 0
 357 72 388 100 388 138 c 0
 388 164 394 222 287 222 c 2
 230 222 l 1
EndSplineSet
Fore
230 222 m 1xe0
 244 304 l 1
 289 304 l 2
 340 304 433 296 433 375 c 0
 433 407 411 438 369 438 c 0
 290 438 196 388 165 361 c 1
 165 450 l 1
 202 472 286 522 384 522 c 0
 520 522 578 478 578 392 c 0xd0
 578 302 530 258 489 251 c 1
 532 236 543 171 543 150 c 0
 543 42 427 -9 264 -9 c 0
 190 -9 106 9 59 39 c 0
 34 55 20 78 20 103 c 0
 20 137 48 163 86 163 c 0
 122 163 142 151 180 108 c 0
 201 83 234 73 266 73 c 0
 356 73 388 98 388 141 c 0
 388 194 360 222 287 222 c 2
 230 222 l 1xe0
EndSplineSet
EndChar
StartChar: afii10074
Encoding: 464 1080 358
Width: 680
Flags: W
HStem: -9 108<561 636> 491 20G<290 342 508 666>
DStem: 150 321 342 511 117 142 287 205 508 511 666 511 441 142 609 195
Fore
666 511 m 1
 609 195 l 1
 602 159 601 151 601 139 c 0
 601 117 617 99 636 99 c 0
 649 99 658 104 681 122 c 1
 720 64 l 1
 679 19 618 -9 561 -9 c 0
 499 -9 461 13 443 57 c 1
 367 8 320 -9 260 -9 c 0
 174 -9 113 35 113 97 c 0
 113 107 115 132 117 142 c 2
 150 321 l 1
 152 334 154 351 154 358 c 0
 154 367 152 374 148 378 c 0
 139 385 112 394 95 394 c 2
 83 394 l 1
 98 476 l 1
 173 480 214 487 290 511 c 1
 342 511 l 1
 287 205 l 1
 281 162 281 160 281 151 c 0
 281 124 308 103 343 103 c 0
 376 103 409 116 441 142 c 1
 508 511 l 1
 666 511 l 1
EndSplineSet
EndChar
StartChar: afii10075
Encoding: 465 1081 359
Width: 680
Flags: W
HStem: -9 108<561 636> 491 20G<290 342 508 666> 570 83<434 468>
DStem: 150 321 342 511 117 142 287 205 508 511 666 511 441 142 609 195
Fore
666 511 m 1
 609 195 l 1
 602 159 601 151 601 139 c 0
 601 117 617 99 636 99 c 0
 649 99 658 104 681 122 c 1
 720 64 l 1
 679 19 618 -9 561 -9 c 0
 499 -9 461 13 443 57 c 1
 367 8 320 -9 260 -9 c 0
 174 -9 113 35 113 97 c 0
 113 107 115 132 117 142 c 2
 150 321 l 1
 152 334 154 351 154 358 c 0
 154 367 152 374 148 378 c 0
 139 385 112 394 95 394 c 2
 83 394 l 1
 98 476 l 1
 173 480 214 487 290 511 c 1
 342 511 l 1
 287 205 l 1
 281 162 281 160 281 151 c 0
 281 124 308 103 343 103 c 0
 376 103 409 116 441 142 c 1
 508 511 l 1
 666 511 l 1
553 710 m 1
 626 710 l 1
 614 654 603 631 578 609 c 0
 550 583 505 570 449 570 c 0
 344 570 299 609 287 710 c 1
 360 710 l 1
 374 667 397 653 453 653 c 0
 508 653 535 669 553 710 c 1
EndSplineSet
LCarets: 0 65535 '    ' 1 0 
Ligature: 0 1 'liga' afii10074 uni0306
EndChar
